SplineFontDB: 3.2
FontName: ATM490-Regular
FullName: ATM490-Regular
FamilyName: ATM 490
Weight: Book
Version: 1.001
ItalicAngle: -11
UnderlinePosition: -271
UnderlineWidth: 102
Ascent: 1600
Descent: 400
InvalidEm: 0
sfntRevision: 0x00010042
LayerCount: 2
Layer: 0 1 "Back" 1
Layer: 1 1 "Fore" 0
XUID: [1021 192 2086997156 31308]
StyleMap: 0x0040
FSType: 8
OS2Version: 3
OS2_WeightWidthSlopeOnly: 0
OS2_UseTypoMetrics: 0
CreationTime: 1537365047
ModificationTime: 1545685456
PfmFamily: 17
TTFWeight: 400
TTFWidth: 5
LineGap: 0
VLineGap: 0
Panose: 2 0 5 5 0 0 0 2 0 2
OS2TypoAscent: 2000
OS2TypoAOffset: 0
OS2TypoDescent: -1320
OS2TypoDOffset: 0
OS2TypoLinegap: 0
OS2WinAscent: 2000
OS2WinAOffset: 0
OS2WinDescent: 744
OS2WinDOffset: 0
HheadAscent: 2000
HheadAOffset: 0
HheadDescent: -1320
HheadDOffset: 0
OS2SubXSize: 1400
OS2SubYSize: 1300
OS2SubXOff: 0
OS2SubYOff: 0
OS2SupXSize: 1400
OS2SupYSize: 1300
OS2SupXOff: 0
OS2SupYOff: 0
OS2StrikeYSize: 100
OS2StrikeYPos: 518
OS2CapHeight: 1586
OS2XHeight: -200
OS2Vendor: '    '
OS2CodePages: 00000001.00000000
OS2UnicodeRanges: 00100003.00000000.00000000.00000000
Lookup: 4 0 0 "'akhn' Akhand in Tamil2 lookup 0" { "'akhn' Akhand in Tamil2 lookup 0 subtable"  } ['akhn' ('tml2' <'dflt' > ) ]
Lookup: 4 0 0 "'akhn' Akhand in Tamil lookup 1" { "'akhn' Akhand in Tamil lookup 1 subtable"  } ['akhn' ('taml' <'dflt' > ) ]
Lookup: 4 0 0 "'half' Half Forms in Tamil lookup 2" { "'half' Half Forms in Tamil lookup 2 subtable"  } ['half' ('taml' <'dflt' > ) ]
Lookup: 4 0 0 "'haln' Halant Forms in Tamil2 lookup 3" { "'haln' Halant Forms in Tamil2 lookup 3 subtable"  } ['haln' ('tml2' <'dflt' > ) ]
Lookup: 4 0 0 "'haln' Halant Forms in Tamil lookup 4" { "'haln' Halant Forms in Tamil lookup 4 subtable"  } ['haln' ('taml' <'dflt' > ) ]
Lookup: 4 0 0 "'abvs' Above Base Substitutions lookup 5" { "'abvs' Above Base Substitutions lookup 5 subtable"  } ['abvs' ('taml' <'dflt' > 'tml2' <'dflt' > ) ]

StartChar: exclam
Encoding: 33 33 4
Width: 432
GlyphClass: 2
Flags: W
LayerCount: 2
Fore
SplineSet
328 140 m 1,0,-1
 106 140 l 1,1,-1
 106 1038 l 1,2,-1
 328 1038 l 1,3,-1
 328 140 l 1,0,-1
346 -6 m 0,4,5
 346 -56 346 -56 306 -96 c 0,6,7
 270 -136 270 -136 218 -136 c 0,8,9
 168 -136 168 -136 127 -101 c 128,-1,10
 86 -66 86 -66 86 -16 c 0,11,12
 86 36 86 36 116 77 c 128,-1,13
 146 118 146 118 206 118 c 0,14,15
 258 118 258 118 302 83 c 128,-1,16
 346 48 346 48 346 -6 c 0,4,5
EndSplineSet
EndChar

StartChar: quotedbl
Encoding: 34 34 5
Width: 606
GlyphClass: 2
Flags: W
LayerCount: 2
Fore
SplineSet
109 647 m 1,0,-1
 63 912 l 1,1,-1
 63 1140 l 1,2,-1
 257 1140 l 1,3,-1
 257 912 l 1,4,-1
 214 647 l 1,5,-1
 109 647 l 1,0,-1
423 647 m 1,6,-1
 378 912 l 1,7,-1
 378 1140 l 1,8,-1
 572 1140 l 1,9,-1
 572 912 l 1,10,-1
 527 647 l 1,11,-1
 423 647 l 1,6,-1
EndSplineSet
EndChar

StartChar: numbersign
Encoding: 35 35 6
Width: 1203
GlyphClass: 2
Flags: W
LayerCount: 2
Fore
SplineSet
179 22 m 1,0,-1
 264 356 l 1,1,-1
 103 356 l 1,2,-1
 103 473 l 1,3,-1
 288 473 l 1,4,-1
 358 761 l 1,5,-1
 103 761 l 1,6,-1
 103 876 l 1,7,-1
 386 876 l 1,8,-1
 471 1218 l 1,9,-1
 609 1218 l 1,10,-1
 526 876 l 1,11,-1
 817 876 l 1,12,-1
 903 1218 l 1,13,-1
 1041 1218 l 1,14,-1
 962 876 l 1,15,-1
 1124 876 l 1,16,-1
 1124 761 l 1,17,-1
 932 761 l 1,18,-1
 861 473 l 1,19,-1
 1124 473 l 1,20,-1
 1124 356 l 1,21,-1
 832 356 l 1,22,-1
 755 22 l 1,23,-1
 611 22 l 1,24,-1
 688 356 l 1,25,-1
 401 356 l 1,26,-1
 322 22 l 1,27,-1
 179 22 l 1,0,-1
435 473 m 1,28,-1
 724 473 l 1,29,-1
 792 761 l 1,30,-1
 501 761 l 1,31,-1
 435 473 l 1,28,-1
EndSplineSet
EndChar

StartChar: dollar.001
Encoding: 65539 -1 7
Width: 1242
GlyphClass: 2
Flags: W
LayerCount: 2
Fore
SplineSet
1176 0 m 1,0,-1
 858 0 l 1,1,-1
 620 224 l 1,2,-1
 404 0 l 1,3,-1
 66 0 l 1,4,-1
 454 394 l 1,5,-1
 76 768 l 1,6,-1
 382 768 l 1,7,-1
 608 550 l 1,8,-1
 820 768 l 1,9,-1
 1140 768 l 1,10,-1
 772 386 l 1,11,-1
 1176 0 l 1,0,-1
EndSplineSet
EndChar

StartChar: percent
Encoding: 37 37 8
Width: 1132
GlyphClass: 2
Flags: W
LayerCount: 2
Fore
SplineSet
518 748 m 0,0,1
 518 664 518 664 455 601 c 128,-1,2
 392 538 392 538 304 538 c 0,3,4
 214 538 214 538 149 598 c 128,-1,5
 84 658 84 658 84 746 c 0,6,7
 84 832 84 832 150 898 c 128,-1,8
 216 964 216 964 304 964 c 256,9,10
 392 964 392 964 455 900 c 128,-1,11
 518 836 518 836 518 748 c 0,0,1
1026 968 m 1,12,-1
 452 0 l 1,13,-1
 190 0 l 1,14,-1
 774 968 l 1,15,-1
 1026 968 l 1,12,-1
1048 148 m 0,16,17
 1048 64 1048 64 984 0 c 0,18,19
 924 -64 924 -64 834 -64 c 0,20,21
 746 -64 746 -64 684 -2 c 128,-1,22
 622 60 622 60 622 146 c 0,23,24
 622 236 622 236 686 298 c 128,-1,25
 750 360 750 360 838 360 c 0,26,27
 924 360 924 360 986 298 c 128,-1,28
 1048 236 1048 236 1048 148 c 0,16,17
EndSplineSet
EndChar

StartChar: ampersand
Encoding: 38 38 9
Width: 1124
GlyphClass: 2
Flags: W
LayerCount: 2
Fore
SplineSet
1060 104 m 1,0,-1
 724 104 l 1,1,-1
 596 28 l 1,2,3
 518 -8 518 -8 428 -8 c 0,4,5
 298 -8 298 -8 191 98 c 128,-1,6
 84 204 84 204 84 346 c 0,7,8
 84 414 84 414 112 472 c 1,9,-1
 178 584 l 1,10,11
 138 642 138 642 138 708 c 0,12,13
 138 810 138 810 208 885 c 128,-1,14
 278 960 278 960 380 960 c 0,15,16
 484 960 484 960 562 883 c 128,-1,17
 640 806 640 806 640 700 c 0,18,19
 640 600 640 600 552 524 c 1,20,-1
 680 410 l 1,21,-1
 732 534 l 1,22,-1
 914 464 l 1,23,24
 914 428 914 428 911 406 c 128,-1,25
 908 384 908 384 900 362 c 1,26,27
 888 294 888 294 860 258 c 1,28,-1
 1060 104 l 1,0,-1
446 714 m 0,29,30
 446 770 446 770 400 770 c 0,31,32
 376 770 376 770 357 752 c 128,-1,33
 338 734 338 734 334 708 c 1,34,35
 334 668 334 668 380 656 c 1,36,37
 446 656 446 656 446 714 c 0,29,30
538 262 m 1,38,-1
 368 404 l 1,39,40
 314 370 314 370 314 306 c 0,41,42
 314 264 314 264 344 234 c 128,-1,43
 374 204 374 204 418 204 c 0,44,45
 478 204 478 204 538 262 c 1,38,-1
EndSplineSet
EndChar

StartChar: quotesingle
Encoding: 39 39 10
Width: 368
GlyphClass: 2
Flags: W
LayerCount: 2
Fore
SplineSet
137 647 m 1,0,-1
 91 912 l 1,1,-1
 91 1140 l 1,2,-1
 285 1140 l 1,3,-1
 285 912 l 1,4,-1
 242 647 l 1,5,-1
 137 647 l 1,0,-1
EndSplineSet
EndChar

StartChar: parenleft
Encoding: 40 40 11
Width: 794
GlyphClass: 2
Flags: W
LayerCount: 2
Fore
SplineSet
710 -220 m 1,0,1
 448 -220 448 -220 266 -45 c 128,-1,2
 84 130 84 130 84 388 c 0,3,4
 84 644 84 644 266 826 c 0,5,6
 440 1000 440 1000 710 1000 c 1,7,-1
 710 786 l 1,8,-1
 674 788 l 1,9,10
 522 788 522 788 404 670 c 128,-1,11
 286 552 286 552 286 394 c 0,12,13
 286 210 286 210 402 96 c 0,14,15
 462 40 462 40 538 11 c 128,-1,16
 614 -18 614 -18 710 -18 c 1,17,-1
 710 -220 l 1,0,1
EndSplineSet
EndChar

StartChar: parenright
Encoding: 41 41 12
Width: 794
GlyphClass: 2
Flags: W
LayerCount: 2
Fore
SplineSet
708 388 m 256,0,1
 708 132 708 132 525 -44 c 128,-1,2
 342 -220 342 -220 82 -220 c 1,3,-1
 82 -18 l 1,4,5
 268 -18 268 -18 387 95 c 128,-1,6
 506 208 506 208 506 394 c 0,7,8
 506 552 506 552 388 670 c 128,-1,9
 270 788 270 788 118 788 c 1,10,-1
 82 786 l 1,11,-1
 82 1000 l 1,12,13
 214 1000 214 1000 325 958 c 128,-1,14
 436 916 436 916 526 826 c 0,15,16
 708 644 708 644 708 388 c 256,0,1
EndSplineSet
EndChar

StartChar: asterisk
Encoding: 42 42 13
Width: 662
GlyphClass: 2
Flags: W
LayerCount: 2
Fore
SplineSet
460 890 m 1,0,-1
 574 794 l 1,1,-1
 434 684 l 1,2,-1
 332 802 l 1,3,-1
 240 680 l 1,4,-1
 90 786 l 1,5,-1
 204 892 l 1,6,-1
 54 940 l 1,7,-1
 118 1108 l 1,8,-1
 244 1046 l 1,9,-1
 244 1204 l 1,10,-1
 418 1204 l 1,11,-1
 418 1042 l 1,12,-1
 550 1098 l 1,13,-1
 606 934 l 1,14,-1
 460 890 l 1,0,-1
EndSplineSet
EndChar

StartChar: plus
Encoding: 43 43 14
Width: 948
GlyphClass: 2
Flags: W
LayerCount: 2
Fore
SplineSet
864 268 m 1,0,-1
 590 268 l 1,1,-1
 590 0 l 1,2,-1
 344 0 l 1,3,-1
 344 268 l 1,4,-1
 84 268 l 1,5,-1
 84 510 l 1,6,-1
 344 510 l 1,7,-1
 344 768 l 1,8,-1
 590 768 l 1,9,-1
 590 510 l 1,10,-1
 864 510 l 1,11,-1
 864 268 l 1,0,-1
EndSplineSet
EndChar

StartChar: comma
Encoding: 44 44 15
Width: 440
GlyphClass: 2
Flags: W
LayerCount: 2
Fore
SplineSet
394 160 m 0,0,1
 394 66 394 66 340 -10 c 128,-1,2
 286 -86 286 -86 198 -120 c 1,3,-1
 150 -64 l 1,4,-1
 206 0 l 1,5,6
 132 0 132 0 81 53 c 128,-1,7
 30 106 30 106 30 182 c 0,8,9
 30 256 30 256 84 308 c 128,-1,10
 138 360 138 360 210 360 c 0,11,12
 288 360 288 360 341 304 c 128,-1,13
 394 248 394 248 394 160 c 0,0,1
EndSplineSet
EndChar

StartChar: hyphen
Encoding: 45 45 16
Width: 664
GlyphClass: 2
Flags: W
LayerCount: 2
Fore
SplineSet
580 228 m 1,0,-1
 84 228 l 1,1,-1
 84 460 l 1,2,-1
 580 460 l 1,3,-1
 580 228 l 1,0,-1
EndSplineSet
EndChar

StartChar: period
Encoding: 46 46 17
Width: 422
GlyphClass: 2
Flags: W
LayerCount: 2
Fore
SplineSet
386 178 m 0,0,1
 386 106 386 106 333 53 c 128,-1,2
 280 0 280 0 206 0 c 0,3,4
 130 0 130 0 80 53 c 128,-1,5
 30 106 30 106 30 178 c 256,6,7
 30 250 30 250 84 302 c 128,-1,8
 138 354 138 354 210 354 c 256,9,10
 282 354 282 354 334 302 c 0,11,12
 386 254 386 254 386 178 c 0,0,1
EndSplineSet
EndChar

StartChar: slash
Encoding: 47 47 18
Width: 660
GlyphClass: 2
Flags: W
LayerCount: 2
Fore
SplineSet
678 1114 m 1,0,-1
 288 -158 l 1,1,-1
 30 -158 l 1,2,-1
 420 1114 l 1,3,-1
 678 1114 l 1,0,-1
EndSplineSet
EndChar

StartChar: zero
Encoding: 48 48 19
Width: 1070
GlyphClass: 2
Flags: W
LayerCount: 2
Fore
SplineSet
1003 452 m 0,0,1
 1003 268 1003 268 859.5 134 c 128,-1,2
 716 0 716 0 532 0 c 0,3,4
 344 0 344 0 205 134 c 128,-1,5
 66 268 66 268 66 456 c 0,6,7
 66 642 66 642 204 777 c 128,-1,8
 342 912 342 912 536 912 c 0,9,10
 731 912 731 912 867 779 c 128,-1,11
 1003 646 1003 646 1003 452 c 0,0,1
773 450 m 0,12,13
 773 553 773 553 704 626 c 128,-1,14
 635 699 635 699 530 699 c 0,15,16
 424 699 424 699 346 626 c 128,-1,17
 268 553 268 553 268 450 c 0,18,19
 268 344 268 344 343 271.5 c 128,-1,20
 418 199 418 199 522 199 c 0,21,22
 572 199 572 199 613.5 216.5 c 128,-1,23
 655 234 655 234 695 272 c 0,24,25
 773 346 773 346 773 450 c 0,12,13
EndSplineSet
EndChar

StartChar: one
Encoding: 49 49 20
Width: 374
GlyphClass: 2
Flags: W
LayerCount: 2
Fore
SplineSet
294 0 m 1,0,-1
 66 0 l 1,1,-1
 66 901 l 1,2,-1
 294 901 l 1,3,-1
 294 0 l 1,0,-1
EndSplineSet
EndChar

StartChar: two
Encoding: 50 50 21
Width: 809
GlyphClass: 2
Flags: W
LayerCount: 2
Fore
SplineSet
750 0 m 1,0,-1
 63 0 l 1,1,-1
 63 198 l 1,2,-1
 429 490 l 2,3,4
 509 553 509 553 509 623 c 0,5,6
 509 661 509 661 479.5 693.5 c 128,-1,7
 450 726 450 726 414 726 c 0,8,9
 365 726 365 726 321 686 c 1,10,11
 283 644 283 644 283 597 c 0,12,13
 283 574 283 574 294 551 c 1,14,-1
 89 551 l 1,15,-1
 80 627 l 1,16,17
 80 741 80 741 176 837 c 128,-1,18
 272 933 272 933 410 933 c 0,19,20
 549 933 549 933 645 840 c 128,-1,21
 741 747 741 747 741 602 c 0,22,23
 741 464 741 464 648 389 c 2,24,-1
 399 196 l 1,25,-1
 750 196 l 1,26,-1
 750 0 l 1,0,-1
EndSplineSet
EndChar

StartChar: three
Encoding: 51 51 22
Width: 847
GlyphClass: 2
Flags: W
LayerCount: 2
Fore
SplineSet
792 331 m 0,0,1
 792 186 792 186 678 89 c 0,2,3
 572 0 572 0 429 0 c 0,4,5
 277 0 277 0 171 100.5 c 128,-1,6
 65 201 65 201 65 357 c 0,7,8
 65 391 65 391 68 410 c 1,9,-1
 300 410 l 1,10,-1
 293 367 l 1,11,12
 293 310 293 310 332.5 262.5 c 128,-1,13
 372 215 372 215 445 215 c 0,14,15
 574 215 574 215 574 340 c 0,16,17
 574 397 574 397 531 440 c 128,-1,18
 488 483 488 483 427 483 c 1,19,-1
 367 644 l 1,20,-1
 460 714 l 1,21,-1
 80 714 l 1,22,-1
 80 910 l 1,23,-1
 769 910 l 1,24,-1
 769 695 l 1,25,-1
 638 606 l 1,26,27
 695 574 695 574 743.5 496 c 128,-1,28
 792 418 792 418 792 331 c 0,0,1
EndSplineSet
EndChar

StartChar: four
Encoding: 52 52 23
Width: 842
GlyphClass: 2
Flags: W
LayerCount: 2
Fore
SplineSet
800 104 m 1,0,-1
 688 104 l 1,1,-1
 688 0 l 1,2,-1
 437 0 l 1,3,-1
 437 104 l 1,4,-1
 28 104 l 1,5,-1
 28 296 l 1,6,-1
 445 929 l 1,7,-1
 688 929 l 1,8,-1
 688 312 l 1,9,-1
 800 312 l 1,10,-1
 800 104 l 1,0,-1
460 312 m 1,11,-1
 460 566 l 1,12,-1
 298 312 l 1,13,-1
 460 312 l 1,11,-1
EndSplineSet
EndChar

StartChar: five
Encoding: 53 53 24
Width: 855
GlyphClass: 2
Flags: W
LayerCount: 2
Fore
SplineSet
798 714 m 1,0,-1
 285 714 l 1,1,-1
 285 638 l 1,2,3
 363 684 363 684 456 684 c 0,4,5
 591 684 591 684 691.5 578.5 c 128,-1,6
 792 473 792 473 792 344 c 0,7,8
 792 194 792 194 699 97 c 128,-1,9
 606 0 606 0 464 0 c 0,10,11
 313 0 313 0 193.5 96 c 128,-1,12
 74 192 74 192 74 306 c 1,13,-1
 308 306 l 1,14,15
 302 275 302 275 339 240 c 128,-1,16
 376 205 376 205 420 205 c 0,17,18
 481 205 481 205 525.5 244 c 128,-1,19
 570 283 570 283 570 344 c 0,20,21
 570 399 570 399 532 435 c 1,22,23
 498 473 498 473 441 473 c 0,24,25
 340 473 340 473 306 401 c 1,26,-1
 65 503 l 1,27,-1
 65 918 l 1,28,-1
 798 918 l 1,29,-1
 798 714 l 1,0,-1
EndSplineSet
EndChar

StartChar: six
Encoding: 54 54 25
Width: 832
GlyphClass: 2
Flags: W
LayerCount: 2
Fore
SplineSet
775 336 m 0,0,1
 775 190 775 190 675.5 95 c 128,-1,2
 576 0 576 0 435 0 c 0,3,4
 283 0 283 0 174 99 c 128,-1,5
 65 198 65 198 65 357 c 0,6,7
 65 460 65 460 127 557 c 2,8,-1
 355 912 l 1,9,-1
 665 912 l 1,10,-1
 507 667 l 1,11,12
 619 633 619 633 697 547 c 1,13,14
 775 454 775 454 775 336 c 0,0,1
526 327 m 0,15,16
 526 374 526 374 491 409.5 c 128,-1,17
 456 445 456 445 407 445 c 0,18,19
 359 445 359 445 322 409.5 c 128,-1,20
 285 374 285 374 285 327 c 0,21,22
 285 275 285 275 319 241 c 128,-1,23
 353 207 353 207 407 207 c 0,24,25
 456 207 456 207 491 241 c 128,-1,26
 526 275 526 275 526 327 c 0,15,16
EndSplineSet
EndChar

StartChar: seven
Encoding: 55 55 26
Width: 893
GlyphClass: 2
Flags: W
LayerCount: 2
Fore
SplineSet
847 667 m 1,0,-1
 346 0 l 1,1,-1
 65 0 l 1,2,-1
 591 699 l 1,3,-1
 89 699 l 1,4,-1
 89 918 l 1,5,-1
 847 918 l 1,6,-1
 847 667 l 1,0,-1
EndSplineSet
EndChar

StartChar: eight
Encoding: 56 56 27
Width: 826
GlyphClass: 2
Flags: W
LayerCount: 2
Fore
SplineSet
760 325 m 0,0,1
 760 188 760 188 657.5 91 c 128,-1,2
 555 -6 555 -6 412 -6 c 0,3,4
 270 -6 270 -6 165.5 93 c 128,-1,5
 61 192 61 192 61 331 c 0,6,7
 61 445 61 445 125 545 c 1,8,9
 108 568 108 568 108 638 c 0,10,11
 108 758 108 758 193.5 845.5 c 128,-1,12
 279 933 279 933 408 933 c 0,13,14
 540 933 540 933 625.5 846.5 c 128,-1,15
 711 760 711 760 711 633 c 0,16,17
 711 557 711 557 686 532 c 1,18,19
 760 446 760 446 760 325 c 0,0,1
486 646 m 0,20,21
 486 673 486 673 462.5 694.5 c 128,-1,22
 439 716 439 716 408 716 c 0,23,24
 378 716 378 716 356 697 c 128,-1,25
 334 678 334 678 334 646 c 0,26,27
 334 621 334 621 357 598 c 0,28,29
 378 581 378 581 408 578 c 0,30,31
 486 578 486 578 486 646 c 0,20,21
519 321 m 0,32,33
 519 369 519 369 486.5 403 c 128,-1,34
 454 437 454 437 407 437 c 0,35,36
 363 437 363 437 323 395 c 0,37,38
 287 353 287 353 287 317 c 0,39,40
 287 203 287 203 407 203 c 0,41,42
 452 203 452 203 485.5 238.5 c 128,-1,43
 519 274 519 274 519 321 c 0,32,33
EndSplineSet
EndChar

StartChar: nine
Encoding: 57 57 28
Width: 842
GlyphClass: 2
Flags: W
LayerCount: 2
Fore
SplineSet
771 555 m 0,0,1
 771 452 771 452 709 355 c 2,2,-1
 481 0 l 1,3,-1
 171 0 l 1,4,-1
 329 245 l 1,5,6
 215 279 215 279 138 369.5 c 128,-1,7
 61 460 61 460 61 576 c 0,8,9
 61 720 61 720 160.5 816 c 128,-1,10
 260 912 260 912 401 912 c 0,11,12
 557 912 557 912 664 814 c 128,-1,13
 771 716 771 716 771 555 c 0,0,1
551 585 m 0,14,15
 551 636 551 636 516 670.5 c 128,-1,16
 481 705 481 705 429 705 c 0,17,18
 382 705 382 705 346 671.5 c 128,-1,19
 310 638 310 638 310 585 c 0,20,21
 310 540 310 540 344 503.5 c 128,-1,22
 378 467 378 467 429 467 c 0,23,24
 477 467 477 467 514 502.5 c 128,-1,25
 551 538 551 538 551 585 c 0,14,15
EndSplineSet
EndChar

StartChar: colon
Encoding: 58 58 29
Width: 502
GlyphClass: 2
Flags: W
LayerCount: 2
Fore
SplineSet
432 586 m 0,0,1
 432 516 432 516 378 458 c 1,2,3
 322 406 322 406 250 406 c 0,4,5
 176 406 176 406 123 458 c 128,-1,6
 70 510 70 510 70 586 c 0,7,8
 70 660 70 660 123 714 c 128,-1,9
 176 768 176 768 250 768 c 256,10,11
 324 768 324 768 378 715 c 128,-1,12
 432 662 432 662 432 586 c 0,0,1
432 180 m 256,13,14
 432 104 432 104 378 50 c 0,15,16
 324 0 324 0 250 0 c 256,17,18
 176 0 176 0 123 52 c 128,-1,19
 70 104 70 104 70 180 c 0,20,21
 70 254 70 254 123 308 c 128,-1,22
 176 362 176 362 250 362 c 256,23,24
 324 362 324 362 378 309 c 128,-1,25
 432 256 432 256 432 180 c 256,13,14
EndSplineSet
EndChar

StartChar: semicolon
Encoding: 59 59 30
Width: 498
GlyphClass: 2
Flags: W
LayerCount: 2
Fore
SplineSet
428 592 m 0,0,1
 428 522 428 522 375 467 c 128,-1,2
 322 412 322 412 250 412 c 0,3,4
 176 412 176 412 122 464 c 1,5,6
 70 520 70 520 70 592 c 256,7,8
 70 664 70 664 124 716 c 128,-1,9
 178 768 178 768 250 768 c 256,10,11
 322 768 322 768 375 716 c 128,-1,12
 428 664 428 664 428 592 c 0,0,1
428 156 m 0,13,14
 428 64 428 64 338 -26 c 0,15,16
 294 -68 294 -68 255 -89 c 128,-1,17
 216 -110 216 -110 178 -110 c 1,18,-1
 140 -44 l 1,19,-1
 206 0 l 1,20,21
 158 0 158 0 114 50 c 128,-1,22
 70 100 70 100 70 178 c 0,23,24
 70 250 70 250 124 301 c 128,-1,25
 178 352 178 352 250 352 c 0,26,27
 326 352 326 352 377 294 c 128,-1,28
 428 236 428 236 428 156 c 0,13,14
EndSplineSet
EndChar

StartChar: less
Encoding: 60 60 31
Width: 1240
GlyphClass: 2
Flags: W
LayerCount: 2
Fore
SplineSet
993 0 m 1,0,-1
 4 471 l 1,1,-1
 4 589 l 1,2,-1
 993 1070 l 1,3,-1
 993 859 l 1,4,-1
 261 531 l 1,5,-1
 993 202 l 1,6,-1
 993 0 l 1,0,-1
EndSplineSet
EndChar

StartChar: equal
Encoding: 61 61 32
Width: 898
GlyphClass: 2
Flags: W
LayerCount: 2
Fore
SplineSet
814 448 m 1,0,-1
 84 448 l 1,1,-1
 84 672 l 1,2,-1
 814 672 l 1,3,-1
 814 448 l 1,0,-1
814 94 m 1,4,-1
 84 94 l 1,5,-1
 84 328 l 1,6,-1
 814 328 l 1,7,-1
 814 94 l 1,4,-1
EndSplineSet
EndChar

StartChar: greater
Encoding: 62 62 33
Width: 1306
GlyphClass: 2
Flags: W
LayerCount: 2
Fore
SplineSet
242 202 m 1,0,-1
 974 531 l 1,1,-1
 242 859 l 1,2,-1
 242 1070 l 1,3,-1
 1231 589 l 1,4,-1
 1231 471 l 1,5,-1
 242 0 l 1,6,-1
 242 202 l 1,0,-1
EndSplineSet
EndChar

StartChar: question
Encoding: 63 63 34
Width: 876
GlyphClass: 2
Flags: W
LayerCount: 2
Fore
SplineSet
788 430 m 1,0,-1
 792 388 l 1,1,2
 792 278 792 278 702 209 c 128,-1,3
 612 140 612 140 496 140 c 0,4,5
 386 140 386 140 302 219 c 128,-1,6
 218 298 218 298 218 408 c 0,7,8
 218 512 218 512 296 594 c 1,9,-1
 446 712 l 2,10,11
 522 772 522 772 522 848 c 0,12,13
 522 896 522 896 488 930 c 128,-1,14
 454 964 454 964 404 964 c 0,15,16
 362 964 362 964 332 927 c 128,-1,17
 302 890 302 890 302 844 c 0,18,19
 302 822 302 822 314 798 c 1,20,-1
 96 798 l 1,21,22
 84 840 84 840 84 882 c 0,23,24
 84 1014 84 1014 186 1108 c 128,-1,25
 288 1202 288 1202 418 1202 c 0,26,27
 568 1202 568 1202 665 1109 c 128,-1,28
 762 1016 762 1016 762 866 c 0,29,30
 762 714 762 714 638 592 c 1,31,-1
 506 490 l 2,32,33
 440 438 440 438 440 396 c 0,34,35
 440 308 440 308 528 308 c 0,36,37
 558 308 558 308 583 330 c 128,-1,38
 608 352 608 352 608 386 c 1,39,-1
 594 430 l 1,40,-1
 788 430 l 1,0,-1
630 -24 m 256,41,42
 630 -82 630 -82 588 -124 c 128,-1,43
 546 -166 546 -166 488 -166 c 0,44,45
 428 -166 428 -166 386 -125 c 128,-1,46
 344 -84 344 -84 344 -24 c 0,47,48
 344 30 344 30 386 74 c 128,-1,49
 428 118 428 118 488 118 c 0,50,51
 542 118 542 118 586 76 c 128,-1,52
 630 34 630 34 630 -24 c 256,41,42
EndSplineSet
EndChar

StartChar: at
Encoding: 64 64 35
Width: 1619
GlyphClass: 2
Flags: W
LayerCount: 2
Fore
SplineSet
877 71 m 0,0,1
 870 83 870 83 867 104 c 1,2,3
 849 87 849 87 827.5 71 c 128,-1,4
 806 55 806 55 783 41 c 0,5,6
 711 -2 711 -2 640 -2 c 0,7,8
 564 -2 564 -2 495 41 c 128,-1,9
 426 84 426 84 381 178 c 0,10,11
 336 269 336 269 336 371 c 0,12,13
 336 493 336 493 401 626 c 0,14,15
 467 758 467 758 568 824 c 0,16,17
 668 890 668 890 764 890 c 0,18,19
 843 890 843 890 903 851 c 0,20,21
 929 837 929 837 950.5 818.5 c 128,-1,22
 972 800 972 800 991 774 c 1,23,24
 996 798 996 798 1002 821.5 c 128,-1,25
 1008 845 1008 845 1013 865 c 1,26,-1
 1190 865 l 1,27,-1
 1073 320 l 1,28,-1
 1050 195 l 2,29,30
 1051 190 1051 190 1054 185.5 c 128,-1,31
 1057 181 1057 181 1062 176 c 2,32,-1
 1060 178 l 2,33,34
 1072 168 1072 168 1085 168 c 0,35,36
 1122 168 1122 168 1181 210 c 0,37,38
 1263 267 1263 267 1316 371 c 0,39,40
 1370 474 1370 474 1370 583 c 0,41,42
 1370 702 1370 702 1304 813 c 0,43,44
 1272 869 1272 869 1223.5 913 c 128,-1,45
 1175 957 1175 957 1112 991 c 0,46,47
 1048 1021 1048 1021 977.5 1040.5 c 128,-1,48
 907 1060 907 1060 829 1060 c 0,49,50
 648 1060 648 1060 503 976 c 0,51,52
 429 934 429 934 372.5 874 c 128,-1,53
 316 814 316 814 274 733 c 0,54,55
 191 570 191 570 191 402 c 0,56,57
 191 311 191 311 211 230.5 c 128,-1,58
 231 150 231 150 271 83.5 c 128,-1,59
 311 17 311 17 369 -34 c 128,-1,60
 427 -85 427 -85 504 -118 c 0,61,62
 582 -152 582 -152 668 -168 c 128,-1,63
 754 -184 754 -184 849 -184 c 0,64,65
 1050 -184 1050 -184 1181 -119 c 0,66,67
 1315 -54 1315 -54 1393 54 c 1,68,-1
 1574 54 l 1,69,70
 1519 -65 1519 -65 1421 -148 c 0,71,72
 1374 -188 1374 -188 1310.5 -223.5 c 128,-1,73
 1247 -259 1247 -259 1181 -285 c 0,74,75
 1152 -295 1152 -295 1113 -305.5 c 128,-1,76
 1074 -316 1074 -316 1031 -324 c 0,77,78
 993 -331 993 -331 951 -334.5 c 128,-1,79
 909 -338 909 -338 852 -338 c 0,80,81
 716 -338 716 -338 599 -312 c 128,-1,82
 482 -286 482 -286 387 -235.5 c 128,-1,83
 292 -185 292 -185 220.5 -110.5 c 128,-1,84
 149 -36 149 -36 104 61 c 0,85,86
 37 219 37 219 37 388 c 0,87,88
 37 488 37 488 57.5 580 c 128,-1,89
 78 672 78 672 117 760 c 0,90,91
 217 973 217 973 394 1091 c 0,92,93
 575 1210 575 1210 835 1210 c 0,94,95
 935 1210 935 1210 1022 1190.5 c 128,-1,96
 1109 1171 1109 1171 1191 1129 c 0,97,98
 1272 1090 1272 1090 1335.5 1029 c 128,-1,99
 1399 968 1399 968 1448 883 c 0,100,101
 1523 740 1523 740 1523 581 c 0,102,103
 1523 464 1523 464 1480.5 359 c 128,-1,104
 1438 254 1438 254 1358 163 c 0,105,106
 1285 85 1285 85 1202.5 41.5 c 128,-1,107
 1120 -2 1120 -2 1033 -2 c 2,108,-1
 1012 -2 l 1,109,-1
 977 0 l 2,110,111
 954 4 954 4 933 18 c 1,112,-1
 934 18 l 1,113,114
 917 27 917 27 903.5 40.5 c 128,-1,115
 890 54 890 54 877 71 c 0,0,1
521 360 m 0,116,117
 521 261 521 261 566 207 c 0,118,119
 610 154 610 154 667 154 c 0,120,121
 707 154 707 154 753.5 178.5 c 128,-1,122
 800 203 800 203 839 251 c 0,123,124
 859 274 859 274 876.5 305.5 c 128,-1,125
 894 337 894 337 907 376 c 0,126,127
 936 455 936 455 936 530 c 0,128,129
 936 627 936 627 889 682 c 0,130,131
 844 735 844 735 774 735 c 0,132,133
 751 735 751 735 730 729.5 c 128,-1,134
 709 724 709 724 690 711 c 0,135,136
 646 687 646 687 611 636 c 128,-1,137
 576 585 576 585 545 500 c 1,138,-1
 545 501 l 1,139,140
 521 427 521 427 521 360 c 0,116,117
EndSplineSet
EndChar

StartChar: bracketleft
Encoding: 91 91 36
Width: 426
GlyphClass: 2
Flags: W
LayerCount: 2
Fore
SplineSet
89 1496 m 1,0,-1
 404 1496 l 1,1,-1
 404 1328 l 1,2,-1
 252 1328 l 1,3,-1
 252 -81 l 1,4,-1
 404 -81 l 1,5,-1
 404 -259 l 1,6,-1
 89 -259 l 1,7,-1
 89 1496 l 1,0,-1
EndSplineSet
EndChar

StartChar: backslash
Encoding: 92 92 37
Width: 865
GlyphClass: 2
Flags: W
LayerCount: 2
Fore
SplineSet
184 1239 m 1,0,-1
 838 -119 l 1,1,-1
 674 -119 l 1,2,-1
 16 1239 l 1,3,-1
 184 1239 l 1,0,-1
EndSplineSet
EndChar

StartChar: bracketright
Encoding: 93 93 38
Width: 428
GlyphClass: 2
Flags: W
LayerCount: 2
Fore
SplineSet
331 -259 m 1,0,-1
 16 -259 l 1,1,-1
 16 -81 l 1,2,-1
 169 -81 l 1,3,-1
 169 1328 l 1,4,-1
 16 1328 l 1,5,-1
 16 1496 l 1,6,-1
 331 1496 l 1,7,-1
 331 -259 l 1,0,-1
EndSplineSet
EndChar

StartChar: asciicircum
Encoding: 94 94 39
Width: 719
GlyphClass: 2
Flags: W
LayerCount: 2
Fore
SplineSet
180 450 m 1,0,-1
 43 450 l 1,1,-1
 306 1234 l 1,2,-1
 414 1234 l 1,3,-1
 674 450 l 1,4,-1
 540 450 l 1,5,-1
 358 1032 l 1,6,-1
 180 450 l 1,0,-1
EndSplineSet
EndChar

StartChar: underscore
Encoding: 95 95 40
Width: 1192
GlyphClass: 2
Flags: W
LayerCount: 2
Fore
SplineSet
108 -333 m 1,0,-1
 108 -226 l 1,1,-1
 1083 -226 l 1,2,-1
 1083 -333 l 1,3,-1
 108 -333 l 1,0,-1
EndSplineSet
EndChar

StartChar: braceleft
Encoding: 123 123 41
Width: 623
GlyphClass: 2
Flags: W
LayerCount: 2
Fore
SplineSet
124 705 m 1,0,1
 178 705 178 705 213.5 737.5 c 128,-1,2
 249 770 249 770 260 823 c 1,3,-1
 260 820 l 1,4,-1
 265 921 l 2,5,6
 267 948 267 948 269 977.5 c 128,-1,7
 271 1007 271 1007 273 1034 c 0,8,9
 273 1111 273 1111 274 1164.5 c 128,-1,10
 275 1218 275 1218 277 1247 c 0,11,12
 279 1277 279 1277 284.5 1305.5 c 128,-1,13
 290 1334 290 1334 299 1358 c 0,14,15
 318 1407 318 1407 345 1437.5 c 128,-1,16
 372 1468 372 1468 420 1485 c 0,17,18
 460 1500 460 1500 518 1500 c 2,19,-1
 578 1500 l 1,20,-1
 578 1319 l 1,21,-1
 533 1319 l 2,22,23
 473 1319 473 1319 451 1287 c 1,24,-1
 452 1288 l 1,25,26
 432 1259 432 1259 432 1151 c 2,27,-1
 432 960 l 1,28,-1
 429 892 l 2,29,30
 429 867 429 867 423 851 c 0,31,32
 417 804 417 804 404.5 764.5 c 128,-1,33
 392 725 392 725 376 698 c 0,34,35
 363 678 363 678 342 655.5 c 128,-1,36
 321 633 321 633 297 613 c 1,37,38
 363 567 363 567 394 494 c 0,39,40
 412 449 412 449 422 376 c 128,-1,41
 432 303 432 303 432 203 c 2,42,-1
 434 -5 l 2,43,44
 437 -58 437 -58 454 -78 c 1,45,-1
 482 -93 l 1,46,47
 501 -97 501 -97 533 -97 c 2,48,-1
 578 -97 l 1,49,-1
 578 -275 l 1,50,-1
 518 -275 l 2,51,52
 442 -275 442 -275 409 -261 c 0,53,54
 363 -237 363 -237 324 -189 c 1,55,56
 298 -148 298 -148 281 -64 c 0,57,58
 277 -29 277 -29 275 31.5 c 128,-1,59
 273 92 273 92 273 177 c 0,60,61
 273 258 273 258 270 313.5 c 128,-1,62
 267 369 267 369 260 399 c 0,63,64
 248 454 248 454 220 485 c 1,65,66
 200 499 200 499 176.5 507 c 128,-1,67
 153 515 153 515 124 515 c 1,68,-1
 124 705 l 1,0,1
EndSplineSet
EndChar

StartChar: bar
Encoding: 124 124 42
Width: 313
GlyphClass: 2
Flags: W
LayerCount: 2
Fore
SplineSet
70 -259 m 1,0,-1
 70 1586 l 1,1,-1
 242 1586 l 1,2,-1
 239 -259 l 1,3,-1
 70 -259 l 1,0,-1
EndSplineSet
EndChar

StartChar: braceright
Encoding: 125 125 43
Width: 547
GlyphClass: 2
Flags: W
LayerCount: 2
Fore
SplineSet
489 517 m 1,0,1
 458 517 458 517 435 510 c 128,-1,2
 412 503 412 503 395 489 c 0,3,4
 379 472 379 472 368 451 c 128,-1,5
 357 430 357 430 351 401 c 0,6,7
 339 341 339 341 339 179 c 0,8,9
 339 11 339 11 330 -59 c 0,10,11
 316 -146 316 -146 289 -187 c 0,12,13
 270 -210 270 -210 248.5 -228.5 c 128,-1,14
 227 -247 227 -247 203 -259 c 0,15,16
 170 -273 170 -273 94 -273 c 2,17,-1
 33 -273 l 1,18,-1
 33 -95 l 1,19,-1
 79 -95 l 2,20,21
 96 -95 96 -95 108 -93.5 c 128,-1,22
 120 -92 120 -92 131 -90 c 2,23,-1
 158 -76 l 1,24,25
 176 -55 176 -55 179 -2 c 0,26,27
 179 49 179 49 180 101 c 128,-1,28
 181 153 181 153 181 205 c 0,29,30
 181 306 181 306 190 378.5 c 128,-1,31
 199 451 199 451 218 496 c 0,32,33
 252 572 252 572 315 615 c 1,34,35
 290 635 290 635 269 657.5 c 128,-1,36
 248 680 248 680 235 700 c 0,37,38
 219 726 219 726 207.5 767 c 128,-1,39
 196 808 196 808 188 853 c 0,40,41
 185 861 185 861 184.5 870.5 c 128,-1,42
 184 880 184 880 184 894 c 2,43,-1
 181 962 l 1,44,-1
 181 1153 l 2,45,46
 181 1261 181 1261 161 1290 c 1,47,-1
 162 1289 l 1,48,49
 140 1321 140 1321 79 1321 c 2,50,-1
 33 1321 l 1,51,-1
 33 1502 l 1,52,-1
 94 1502 l 2,53,54
 153 1502 153 1502 191 1487 c 0,55,56
 237 1470 237 1470 265.5 1439 c 128,-1,57
 294 1408 294 1408 311 1360 c 0,58,59
 321 1336 321 1336 326.5 1307.5 c 128,-1,60
 332 1279 332 1279 334 1249 c 0,61,62
 336 1220 336 1220 337.5 1166 c 128,-1,63
 339 1112 339 1112 339 1037 c 1,64,-1
 348 923 l 1,65,-1
 352 825 l 1,66,67
 364 773 364 773 399 740 c 128,-1,68
 434 707 434 707 489 707 c 1,69,-1
 489 517 l 1,0,1
EndSplineSet
EndChar

StartChar: asciitilde
Encoding: 126 126 44
Width: 1161
GlyphClass: 2
Flags: W
LayerCount: 2
Fore
SplineSet
1045 747 m 1,0,-1
 1086 747 l 1,1,2
 1082 571 1082 571 1014 469.5 c 128,-1,3
 946 368 946 368 850 368 c 0,4,5
 807 368 807 368 757.5 389 c 128,-1,6
 708 410 708 410 503 535 c 0,7,8
 356 620 356 620 294 620 c 0,9,10
 229 620 229 620 183.5 562 c 128,-1,11
 138 504 138 504 118 371 c 1,12,-1
 75 371 l 1,13,14
 83 557 83 557 148.5 654.5 c 128,-1,15
 214 752 214 752 302 752 c 0,16,17
 342 752 342 752 387 732 c 0,18,19
 484 691 484 691 642.5 592.5 c 128,-1,20
 801 494 801 494 867 494 c 0,21,22
 936 494 936 494 985 559.5 c 128,-1,23
 1034 625 1034 625 1045 747 c 1,0,-1
EndSplineSet
EndChar

StartChar: cent
Encoding: 162 162 45
Width: 721
GlyphClass: 2
Flags: W
LayerCount: 2
Fore
SplineSet
598 156 m 1,0,1
 537 71 537 71 467 31 c 128,-1,2
 397 -9 397 -9 304 -17 c 1,3,-1
 228 -265 l 1,4,-1
 187 -265 l 1,5,-1
 262 -17 l 1,6,7
 177 -8 177 -8 128.5 47 c 128,-1,8
 80 102 80 102 80 188 c 0,9,10
 80 345 80 345 191.5 478.5 c 128,-1,11
 303 612 303 612 457 638 c 1,12,-1
 541 917 l 1,13,-1
 580 917 l 1,14,-1
 499 638 l 1,15,16
 580 638 580 638 616.5 607 c 128,-1,17
 653 576 653 576 653 523 c 0,18,19
 653 482 653 482 631.5 455.5 c 128,-1,20
 610 429 610 429 580 429 c 0,21,22
 557 429 557 429 544 442 c 128,-1,23
 531 455 531 455 531 476 c 0,24,25
 531 491 531 491 536 502 c 128,-1,26
 541 513 541 513 560.5 534.5 c 128,-1,27
 580 556 580 556 580 570 c 0,28,29
 580 578 580 578 575 585 c 0,30,31
 565 596 565 596 549.5 601 c 128,-1,32
 534 606 534 606 489 606 c 1,33,-1
 322 49 l 1,34,-1
 352 47 l 1,35,36
 470 47 470 47 580 173 c 1,37,-1
 598 156 l 1,0,1
284 57 m 1,38,-1
 445 598 l 1,39,40
 383 570 383 570 342 533 c 0,41,42
 274 467 274 467 237 380.5 c 128,-1,43
 200 294 200 294 200 205 c 0,44,45
 200 146 200 146 224 108 c 0,46,47
 243 81 243 81 284 57 c 1,38,-1
EndSplineSet
EndChar

StartChar: multiply
Encoding: 215 215 46
Width: 975
GlyphClass: 2
Flags: W
LayerCount: 2
Fore
SplineSet
267 230 m 1,0,-1
 515 479 l 1,1,-1
 267 728 l 1,2,-1
 308 768 l 1,3,-1
 556 520 l 1,4,-1
 805 768 l 1,5,-1
 844 728 l 1,6,-1
 595 480 l 1,7,-1
 845 230 l 1,8,-1
 805 190 l 1,9,-1
 555 439 l 1,10,-1
 307 190 l 1,11,-1
 267 230 l 1,0,-1
EndSplineSet
EndChar

StartChar: divide
Encoding: 247 247 47
Width: 864
GlyphClass: 2
Flags: W
LayerCount: 2
Fore
SplineSet
518 650 m 0,0,1
 518 612 518 612 491 586 c 128,-1,2
 464 560 464 560 426 560 c 256,3,4
 388 560 388 560 360 586 c 128,-1,5
 332 612 332 612 332 650 c 0,6,7
 332 686 332 686 360 713 c 128,-1,8
 388 740 388 740 426 740 c 256,9,10
 464 740 464 740 491 713 c 128,-1,11
 518 686 518 686 518 650 c 0,0,1
864 430 m 0,12,13
 864 384 864 384 816 384 c 2,14,-1
 52 384 l 2,15,16
 -4 384 -4 384 -4 426 c 0,17,18
 -4 484 -4 484 54 484 c 2,19,-1
 806 482 l 2,20,21
 864 482 864 482 864 430 c 0,12,13
526 222 m 0,22,23
 526 184 526 184 497 155 c 128,-1,24
 468 126 468 126 428 126 c 256,25,26
 388 126 388 126 358 155 c 128,-1,27
 328 184 328 184 328 222 c 0,28,29
 328 262 328 262 358 291 c 128,-1,30
 388 320 388 320 428 320 c 256,31,32
 468 320 468 320 497 291 c 128,-1,33
 526 262 526 262 526 222 c 0,22,23
EndSplineSet
EndChar

StartChar: tm_visarga
Encoding: 2947 2947 48
Width: 1030
GlyphClass: 2
Flags: W
LayerCount: 2
Fore
SplineSet
696 902 m 0,0,1
 696 830 696 830 644 778 c 128,-1,2
 592 726 592 726 522 726 c 0,3,4
 450 726 450 726 392 774 c 0,5,6
 340 822 340 822 340 902 c 0,7,8
 340 972 340 972 397 1025 c 128,-1,9
 454 1078 454 1078 526 1078 c 0,10,11
 600 1078 600 1078 648 1025 c 128,-1,12
 696 972 696 972 696 902 c 0,0,1
1000 174 m 0,13,14
 1000 104 1000 104 946 50 c 1,15,16
 890 0 890 0 820 0 c 0,17,18
 748 0 748 0 698 52 c 128,-1,19
 648 104 648 104 648 174 c 0,20,21
 648 246 648 246 702 298 c 128,-1,22
 756 350 756 350 826 350 c 0,23,24
 898 350 898 350 949 298 c 128,-1,25
 1000 246 1000 246 1000 174 c 0,13,14
382 176 m 0,26,27
 382 102 382 102 332 51 c 128,-1,28
 282 0 282 0 204 0 c 0,29,30
 132 0 132 0 80 50 c 1,31,32
 30 104 30 104 30 172 c 0,33,34
 30 238 30 238 84 294 c 128,-1,35
 138 350 138 350 210 350 c 256,36,37
 282 350 282 350 332 299 c 128,-1,38
 382 248 382 248 382 176 c 0,26,27
EndSplineSet
EndChar

StartChar: tm_a
Encoding: 2949 2949 49
Width: 1382
GlyphClass: 2
Flags: W
LayerCount: 2
Fore
SplineSet
1312 0 m 1,0,-1
 1104 0 l 1,1,-1
 1104 470 l 1,2,-1
 1074 470 l 1,3,4
 1074 266 1074 266 929 127 c 128,-1,5
 784 -12 784 -12 582 -12 c 0,6,7
 348 -12 348 -12 189 129 c 128,-1,8
 30 270 30 270 30 480 c 0,9,10
 30 660 30 660 144 660 c 1,11,-1
 220 654 l 1,12,13
 240 802 240 802 358 892 c 0,14,15
 462 972 462 972 600 972 c 0,16,17
 894 972 894 972 1044 642 c 1,18,-1
 1104 642 l 1,19,-1
 1104 822 l 1,20,-1
 1312 822 l 1,21,-1
 1312 0 l 1,0,-1
832 642 m 1,22,23
 820 676 820 676 750 726 c 128,-1,24
 680 776 680 776 636 770 c 1,25,26
 708 734 708 734 732 642 c 1,27,-1
 832 642 l 1,22,23
580 568 m 256,28,29
 580 636 580 636 514 636 c 0,30,31
 450 636 450 636 450 570 c 0,32,33
 450 500 450 500 518 500 c 0,34,35
 580 500 580 500 580 568 c 256,28,29
890 470 m 1,36,-1
 724 470 l 1,37,38
 654 332 654 332 514 332 c 0,39,40
 434 332 434 332 364 378 c 0,41,42
 304 416 304 416 264 476 c 1,43,-1
 228 476 l 1,44,45
 228 346 228 346 354 254 c 1,46,47
 464 168 464 168 598 168 c 0,48,49
 718 168 718 168 802 258 c 0,50,51
 844 304 844 304 867 357 c 128,-1,52
 890 410 890 410 890 470 c 1,36,-1
EndSplineSet
EndChar

StartChar: tm_aa
Encoding: 2950 2950 50
Width: 1660
GlyphClass: 2
Flags: W
LayerCount: 2
Fore
SplineSet
1646 14 m 0,0,1
 1646 -150 1646 -150 1534 -250 c 0,2,3
 1430 -342 1430 -342 1296 -342 c 0,4,5
 1160 -342 1160 -342 1054 -263 c 128,-1,6
 948 -184 948 -184 928 -62 c 1,7,-1
 1102 -62 l 1,8,9
 1154 -162 1154 -162 1290 -162 c 0,10,11
 1362 -162 1362 -162 1412 -112 c 128,-1,12
 1462 -62 1462 -62 1462 14 c 0,13,14
 1462 82 1462 82 1422 133 c 128,-1,15
 1382 184 1382 184 1314 198 c 1,16,-1
 1314 0 l 1,17,-1
 1102 0 l 1,18,-1
 1102 468 l 1,19,-1
 1076 468 l 1,20,21
 1076 266 1076 266 929 127 c 128,-1,22
 782 -12 782 -12 580 -12 c 0,23,24
 346 -12 346 -12 188 129 c 128,-1,25
 30 270 30 270 30 478 c 0,26,27
 30 658 30 658 142 658 c 1,28,-1
 220 652 l 1,29,30
 238 804 238 804 356 892 c 0,31,32
 464 972 464 972 600 972 c 0,33,34
 750 972 750 972 870 880 c 128,-1,35
 990 788 990 788 1044 640 c 1,36,-1
 1102 640 l 1,37,-1
 1102 822 l 1,38,-1
 1314 822 l 1,39,-1
 1314 372 l 1,40,41
 1442 372 1442 372 1544 261 c 128,-1,42
 1646 150 1646 150 1646 14 c 0,0,1
834 640 m 1,43,44
 822 682 822 682 753 725 c 128,-1,45
 684 768 684 768 634 768 c 1,46,47
 670 752 670 752 702 704 c 0,48,49
 726 668 726 668 732 640 c 1,50,-1
 834 640 l 1,43,44
580 566 m 0,51,52
 580 634 580 634 514 634 c 0,53,54
 450 634 450 634 450 568 c 0,55,56
 450 546 450 546 468 522 c 0,57,58
 486 504 486 504 514 502 c 0,59,60
 580 502 580 502 580 566 c 0,51,52
892 468 m 1,61,-1
 722 468 l 1,62,63
 650 330 650 330 512 330 c 0,64,65
 432 330 432 330 362 376 c 0,66,67
 302 414 302 414 262 474 c 1,68,-1
 230 474 l 1,69,70
 230 346 230 346 352 254 c 0,71,72
 460 170 460 170 594 170 c 0,73,74
 712 170 712 170 800 260 c 0,75,76
 844 306 844 306 868 357 c 128,-1,77
 892 408 892 408 892 468 c 1,61,-1
EndSplineSet
EndChar

StartChar: tm_i
Encoding: 2951 2951 51
Width: 1568
GlyphClass: 2
Flags: W
LayerCount: 2
Fore
SplineSet
1538 182 m 0,0,1
 1538 40 1538 40 1429 -68 c 128,-1,2
 1320 -176 1320 -176 1172 -176 c 0,3,4
 1066 -176 1066 -176 920 -90 c 1,5,6
 752 -182 752 -182 592 -182 c 0,7,8
 384 -182 384 -182 207 -1 c 128,-1,9
 30 180 30 180 30 406 c 0,10,11
 30 460 30 460 42 514 c 1,12,-1
 92 536 l 1,13,14
 92 654 92 654 142 756 c 128,-1,15
 192 858 192 858 290 948 c 0,16,17
 464 1110 464 1110 692 1110 c 0,18,19
 932 1110 932 1110 1116 968 c 128,-1,20
 1300 826 1300 826 1348 594 c 1,21,-1
 1160 550 l 1,22,23
 1126 710 1126 710 1005 804 c 128,-1,24
 884 898 884 898 720 898 c 0,25,26
 550 898 550 898 433 799 c 128,-1,27
 316 700 316 700 286 526 c 1,28,-1
 332 526 l 1,29,30
 354 664 354 664 458 753 c 128,-1,31
 562 842 562 842 704 842 c 0,32,33
 868 842 868 842 998 738 c 0,34,35
 1104 650 1104 650 1138 540 c 1,36,37
 1220 540 1220 540 1285 518 c 128,-1,38
 1350 496 1350 496 1412 444 c 0,39,40
 1538 336 1538 336 1538 182 c 0,0,1
920 526 m 1,41,42
 918 548 918 548 845 597 c 128,-1,43
 772 646 772 646 740 640 c 1,44,45
 786 622 786 622 838 526 c 1,46,-1
 920 526 l 1,41,42
692 438 m 0,47,48
 692 462 692 462 674 480 c 128,-1,49
 656 498 656 498 624 502 c 1,50,51
 560 502 560 502 560 434 c 0,52,53
 560 370 560 370 620 370 c 0,54,55
 648 370 648 370 668 389 c 128,-1,56
 688 408 688 408 692 438 c 0,47,48
988 346 m 1,57,-1
 838 346 l 1,58,59
 768 198 768 198 624 198 c 0,60,61
 546 198 546 198 466 248 c 0,62,63
 400 288 400 288 372 346 c 1,64,-1
 228 346 l 1,65,66
 246 214 246 214 378 118 c 0,67,68
 500 30 500 30 624 30 c 0,69,70
 772 30 772 30 880 120 c 128,-1,71
 988 210 988 210 988 346 c 1,57,-1
1350 176 m 0,72,73
 1350 240 1350 240 1303 302 c 128,-1,74
 1256 364 1256 364 1194 364 c 1,75,76
 1194 278 1194 278 1156 175 c 128,-1,77
 1118 72 1118 72 1064 30 c 1,78,79
 1108 2 1108 2 1158 2 c 0,80,81
 1232 2 1232 2 1292 50 c 1,82,83
 1350 102 1350 102 1350 176 c 0,72,73
EndSplineSet
EndChar

StartChar: tm_ii
Encoding: 2952 2952 52
Width: 1230
GlyphClass: 2
Flags: W
LayerCount: 2
Fore
SplineSet
1042 562 m 1,0,-1
 866 562 l 1,1,-1
 866 0 l 1,2,-1
 648 0 l 1,3,-1
 648 562 l 1,4,-1
 296 562 l 1,5,-1
 296 0 l 1,6,-1
 70 0 l 1,7,-1
 70 768 l 1,8,-1
 1042 768 l 1,9,-1
 1042 562 l 1,0,-1
626 310 m 0,10,11
 626 244 626 244 583 202 c 128,-1,12
 540 160 540 160 474 160 c 0,13,14
 410 160 410 160 364 203 c 128,-1,15
 318 246 318 246 318 310 c 256,16,17
 318 374 318 374 361 420 c 128,-1,18
 404 466 404 466 468 466 c 0,19,20
 530 466 530 466 578 419 c 128,-1,21
 626 372 626 372 626 310 c 0,10,11
1216 308 m 0,22,23
 1216 234 1216 234 1176 193 c 128,-1,24
 1136 152 1136 152 1070 152 c 0,25,26
 1006 152 1006 152 962 198 c 0,27,28
 940 220 940 220 929 247 c 128,-1,29
 918 274 918 274 918 308 c 0,30,31
 918 372 918 372 958 418 c 128,-1,32
 998 464 998 464 1060 464 c 0,33,34
 1124 464 1124 464 1170 418 c 128,-1,35
 1216 372 1216 372 1216 308 c 0,22,23
EndSplineSet
EndChar

StartChar: tm_u
Encoding: 2953 2953 53
Width: 1300
GlyphClass: 2
Flags: W
LayerCount: 2
Fore
SplineSet
1286 0 m 1,0,-1
 326 0 l 2,1,2
 244 0 244 0 185 58 c 128,-1,3
 126 116 126 116 126 194 c 0,4,5
 126 332 126 332 292 398 c 1,6,-1
 374 416 l 1,7,8
 426 422 426 422 454 434 c 0,9,10
 602 488 602 488 602 618 c 0,11,12
 602 682 602 682 556 740 c 128,-1,13
 510 798 510 798 454 810 c 1,14,15
 540 740 540 740 540 644 c 0,16,17
 540 546 540 546 476 480 c 128,-1,18
 412 414 412 414 310 414 c 0,19,20
 190 414 190 414 110 498 c 128,-1,21
 30 582 30 582 30 716 c 0,22,23
 30 854 30 854 144 948 c 128,-1,24
 258 1042 258 1042 410 1042 c 0,25,26
 574 1042 574 1042 693 930 c 128,-1,27
 812 818 812 818 812 664 c 0,28,29
 812 396 812 396 560 284 c 0,30,31
 522 266 522 266 404 242 c 0,32,33
 350 230 350 230 348 214 c 0,34,35
 348 194 348 194 434 194 c 2,36,-1
 1286 194 l 1,37,-1
 1286 0 l 1,0,-1
362 638 m 0,38,39
 362 708 362 708 298 708 c 0,40,41
 270 708 270 708 251 689 c 128,-1,42
 232 670 232 670 228 638 c 1,43,44
 228 574 228 574 298 574 c 0,45,46
 362 574 362 574 362 638 c 0,38,39
EndSplineSet
EndChar

StartChar: tm_uu
Encoding: 2954 2954 54
Width: 1936
GlyphClass: 2
Flags: W
LayerCount: 2
Fore
SplineSet
1896 0 m 1,0,-1
 320 0 l 2,1,2
 242 0 242 0 184 58 c 128,-1,3
 126 116 126 116 126 194 c 0,4,5
 126 332 126 332 286 398 c 1,6,-1
 368 416 l 1,7,8
 420 422 420 422 448 434 c 0,9,10
 602 488 602 488 602 618 c 0,11,12
 602 684 602 684 557 741 c 128,-1,13
 512 798 512 798 454 810 c 1,14,15
 538 744 538 744 538 644 c 0,16,17
 538 546 538 546 474 480 c 128,-1,18
 410 414 410 414 306 414 c 0,19,20
 186 414 186 414 108 498 c 128,-1,21
 30 582 30 582 30 714 c 0,22,23
 30 852 30 852 143 947 c 128,-1,24
 256 1042 256 1042 410 1042 c 0,25,26
 572 1042 572 1042 692 929 c 128,-1,27
 812 816 812 816 812 662 c 0,28,29
 812 398 812 398 554 280 c 1,30,-1
 398 242 l 2,31,32
 344 230 344 230 342 214 c 0,33,34
 342 194 342 194 430 194 c 2,35,-1
 1896 194 l 1,36,-1
 1896 0 l 1,0,-1
1922 590 m 1,37,-1
 1804 590 l 1,38,-1
 1804 220 l 1,39,-1
 1610 220 l 1,40,-1
 1610 590 l 1,41,-1
 1550 590 l 1,42,-1
 1550 220 l 1,43,-1
 1328 220 l 1,44,-1
 1328 410 l 2,45,46
 1328 476 1328 476 1298 530 c 0,47,48
 1258 602 1258 602 1182 602 c 0,49,50
 1154 602 1154 602 1128 594 c 1,51,52
 1188 586 1188 586 1238 539 c 128,-1,53
 1288 492 1288 492 1288 430 c 0,54,55
 1288 350 1288 350 1235 293 c 128,-1,56
 1182 236 1182 236 1098 236 c 0,57,58
 998 236 998 236 922 316 c 128,-1,59
 846 396 846 396 846 498 c 0,60,61
 846 612 846 612 930 698 c 128,-1,62
 1014 784 1014 784 1134 784 c 0,63,64
 1192 784 1192 784 1256 760 c 128,-1,65
 1320 736 1320 736 1336 708 c 1,66,-1
 1336 768 l 1,67,-1
 1922 768 l 1,68,-1
 1922 590 l 1,37,-1
364 640 m 0,69,70
 364 708 364 708 296 708 c 0,71,72
 268 708 268 708 249 690 c 128,-1,73
 230 672 230 672 226 640 c 1,74,75
 226 576 226 576 296 576 c 0,76,77
 364 576 364 576 364 640 c 0,69,70
1140 424 m 0,78,79
 1140 456 1140 456 1108 458 c 0,80,81
 1076 458 1076 458 1076 424 c 0,82,83
 1076 398 1076 398 1108 396 c 0,84,85
 1138 396 1138 396 1140 424 c 0,78,79
EndSplineSet
EndChar

StartChar: tm_e
Encoding: 2958 2958 55
Width: 1188
GlyphClass: 2
Flags: W
LayerCount: 2
Fore
SplineSet
1174 572 m 1,0,-1
 952 572 l 1,1,-1
 952 0 l 1,2,-1
 706 0 l 1,3,-1
 706 572 l 1,4,-1
 410 572 l 2,5,6
 350 572 350 572 299 521 c 128,-1,7
 248 470 248 470 248 404 c 1,8,9
 298 490 298 490 418 490 c 0,10,11
 518 490 518 490 593 419 c 128,-1,12
 668 348 668 348 668 244 c 0,13,14
 668 134 668 134 598 63 c 128,-1,15
 528 -8 528 -8 404 -8 c 0,16,17
 250 -8 250 -8 140 106 c 128,-1,18
 30 220 30 220 30 386 c 0,19,20
 30 544 30 544 151 656 c 128,-1,21
 272 768 272 768 436 768 c 2,22,-1
 1174 768 l 1,23,-1
 1174 572 l 1,0,-1
516 236 m 0,24,25
 516 274 516 274 494 297 c 128,-1,26
 472 320 472 320 436 320 c 256,27,28
 400 320 400 320 377 295 c 128,-1,29
 354 270 354 270 354 236 c 0,30,31
 354 156 354 156 434 156 c 0,32,33
 516 156 516 156 516 236 c 0,24,25
EndSplineSet
EndChar

StartChar: tm_ee
Encoding: 2959 2959 56
Width: 1194
GlyphClass: 2
Flags: W
LayerCount: 2
Fore
SplineSet
1180 566 m 1,0,-1
 948 566 l 1,1,-1
 948 -266 l 1,2,-1
 268 -266 l 1,3,-1
 268 -48 l 1,4,-1
 708 -48 l 1,5,-1
 708 566 l 1,6,-1
 386 566 l 2,7,8
 344 566 344 566 302 523 c 128,-1,9
 260 480 260 480 236 400 c 1,10,11
 290 488 290 488 418 488 c 0,12,13
 522 488 522 488 595 418 c 128,-1,14
 668 348 668 348 668 246 c 0,15,16
 668 136 668 136 601 63 c 128,-1,17
 534 -10 534 -10 412 -10 c 0,18,19
 248 -10 248 -10 142 96 c 0,20,21
 28 208 28 208 28 384 c 0,22,23
 28 544 28 544 149 656 c 128,-1,24
 270 768 270 768 434 768 c 2,25,-1
 1180 768 l 1,26,-1
 1180 566 l 1,0,-1
512 236 m 256,27,28
 512 318 512 318 434 318 c 0,29,30
 352 318 352 318 352 236 c 256,31,32
 352 154 352 154 430 154 c 0,33,34
 512 154 512 154 512 236 c 256,27,28
EndSplineSet
EndChar

StartChar: tm_ai
Encoding: 2960 2960 57
Width: 1174
GlyphClass: 2
Flags: W
LayerCount: 2
Fore
SplineSet
1144 498 m 0,0,1
 1144 400 1144 400 1088 318 c 128,-1,2
 1032 236 1032 236 954 206 c 1,3,-1
 1114 206 l 1,4,5
 1128 156 1128 156 1128 128 c 0,6,7
 1128 8 1128 8 1043 -65 c 128,-1,8
 958 -138 958 -138 836 -138 c 0,9,10
 638 -138 638 -138 558 -14 c 1,11,12
 456 -122 456 -122 328 -122 c 0,13,14
 214 -122 214 -122 132 -45 c 128,-1,15
 50 32 50 32 50 138 c 0,16,17
 50 252 50 252 136 330 c 1,18,19
 30 442 30 442 30 558 c 0,20,21
 30 686 30 686 124 774 c 0,22,23
 170 818 170 818 226 842 c 128,-1,24
 282 866 282 866 348 866 c 0,25,26
 410 866 410 866 484 836 c 128,-1,27
 558 806 558 806 598 760 c 1,28,29
 694 850 694 850 820 850 c 0,30,31
 970 850 970 850 1062 738 c 0,32,33
 1144 638 1144 638 1144 498 c 0,0,1
510 382 m 1,34,-1
 510 582 l 1,35,36
 504 608 504 608 464 642 c 0,37,38
 418 682 418 682 374 682 c 1,39,-1
 348 678 l 1,40,41
 386 672 386 672 436 619 c 128,-1,42
 486 566 486 566 486 508 c 0,43,44
 486 422 486 422 434 382 c 1,45,-1
 510 382 l 1,34,-1
914 512 m 0,46,47
 914 566 914 566 880 607 c 128,-1,48
 846 648 846 648 802 648 c 256,49,50
 758 648 758 648 746 620 c 1,51,-1
 746 386 l 1,52,-1
 808 386 l 2,53,54
 842 386 842 386 878 420 c 128,-1,55
 914 454 914 454 914 512 c 0,46,47
318 494 m 0,56,57
 318 510 318 510 305 527 c 128,-1,58
 292 544 292 544 274 544 c 0,59,60
 226 544 226 544 226 494 c 0,61,62
 226 440 226 440 274 440 c 0,63,64
 288 440 288 440 304 458 c 0,65,66
 314 474 314 474 318 494 c 0,56,57
892 122 m 0,67,68
 892 158 892 158 859 178 c 128,-1,69
 826 198 826 198 790 198 c 2,70,-1
 340 198 l 2,71,72
 270 198 270 198 270 140 c 0,73,74
 270 116 270 116 300 88 c 1,75,76
 332 66 332 66 366 66 c 0,77,78
 410 66 410 66 445 93 c 128,-1,79
 480 120 480 120 492 156 c 1,80,-1
 732 156 l 1,81,-1
 732 114 l 2,82,83
 732 92 732 92 762 70 c 0,84,85
 790 54 790 54 824 50 c 1,86,87
 892 50 892 50 892 122 c 0,67,68
EndSplineSet
EndChar

StartChar: tm_o
Encoding: 2962 2962 58
Width: 1134
GlyphClass: 2
Flags: W
LayerCount: 2
Fore
SplineSet
1104 518 m 0,0,1
 1104 412 1104 412 1012 328 c 0,2,3
 928 250 928 250 842 250 c 0,4,5
 816 250 816 250 800 258 c 1,6,7
 800 234 800 234 848 188 c 0,8,9
 872 168 872 168 898 157 c 128,-1,10
 924 146 924 146 950 146 c 1,11,-1
 950 -12 l 1,12,-1
 850 -12 l 1,13,14
 830 -96 830 -96 747 -162 c 128,-1,15
 664 -228 664 -228 560 -228 c 0,16,17
 406 -228 406 -228 307 -136 c 128,-1,18
 208 -44 208 -44 208 96 c 1,19,-1
 404 96 l 1,20,21
 404 66 404 66 413 42 c 128,-1,22
 422 18 422 18 442 -4 c 0,23,24
 486 -48 486 -48 550 -48 c 0,25,26
 608 -48 608 -48 650 0 c 1,27,28
 678 40 678 40 688 96 c 1,29,30
 602 166 602 166 602 298 c 0,31,32
 602 348 602 348 620 376 c 1,33,34
 602 386 602 386 584 434 c 0,35,36
 576 460 576 460 572 480 c 128,-1,37
 568 500 568 500 568 526 c 0,38,39
 568 548 568 548 572 556 c 1,40,-1
 740 556 l 1,41,-1
 734 516 l 1,42,43
 734 474 734 474 758 445 c 128,-1,44
 782 416 782 416 824 416 c 0,45,46
 910 416 910 416 910 514 c 0,47,48
 910 602 910 602 797 684 c 128,-1,49
 684 766 684 766 556 766 c 0,50,51
 384 766 384 766 284 670 c 1,52,53
 334 670 334 670 375 657 c 128,-1,54
 416 644 416 644 452 614 c 0,55,56
 526 552 526 552 526 458 c 0,57,58
 526 368 526 368 461 301 c 128,-1,59
 396 234 396 234 300 234 c 0,60,61
 190 234 190 234 110 328 c 128,-1,62
 30 422 30 422 30 534 c 0,63,64
 30 698 30 698 193 835 c 128,-1,65
 356 972 356 972 556 972 c 0,66,67
 752 972 752 972 928 834 c 128,-1,68
 1104 696 1104 696 1104 518 c 0,0,1
358 424 m 0,69,70
 358 492 358 492 294 492 c 0,71,72
 240 492 240 492 240 434 c 0,73,74
 240 364 240 364 300 364 c 0,75,76
 358 364 358 364 358 424 c 0,69,70
EndSplineSet
EndChar

StartChar: tm_oo
Encoding: 2963 2963 59
Width: 1122
GlyphClass: 2
Flags: W
LayerCount: 2
Fore
SplineSet
1092 518 m 0,0,1
 1092 400 1092 400 1004 318 c 0,2,3
 924 242 924 242 826 242 c 1,4,-1
 776 248 l 1,5,6
 784 214 784 214 830 172 c 1,7,8
 878 134 878 134 918 134 c 1,9,-1
 918 -28 l 1,10,11
 834 -28 834 -28 816 -18 c 1,12,13
 792 -88 792 -88 726 -152 c 0,14,15
 644 -230 644 -230 540 -230 c 0,16,17
 400 -230 400 -230 292 -144 c 128,-1,18
 184 -58 184 -58 184 60 c 0,19,20
 184 132 184 132 230 182 c 128,-1,21
 276 232 276 232 344 232 c 0,22,23
 416 232 416 232 468 186 c 1,24,25
 522 144 522 144 522 74 c 0,26,27
 522 8 522 8 492 -34 c 1,28,29
 504 -46 504 -46 528 -46 c 0,30,31
 572 -46 572 -46 612 -6 c 1,32,33
 652 28 652 28 658 90 c 1,34,35
 588 166 588 166 588 278 c 0,36,37
 588 356 588 356 608 378 c 1,38,39
 562 396 562 396 562 518 c 0,40,41
 562 546 562 546 566 558 c 1,42,-1
 740 558 l 1,43,44
 728 536 728 536 724 498 c 1,45,46
 724 404 724 404 814 404 c 0,47,48
 850 404 850 404 877 434 c 128,-1,49
 904 464 904 464 904 512 c 0,50,51
 904 596 904 596 789 681 c 128,-1,52
 674 766 674 766 546 766 c 0,53,54
 378 766 378 766 282 682 c 1,55,56
 332 682 332 682 371 668 c 128,-1,57
 410 654 410 654 448 620 c 0,58,59
 520 556 520 556 520 462 c 0,60,61
 520 374 520 374 452 308 c 0,62,63
 386 248 386 248 292 248 c 0,64,65
 180 248 180 248 105 336 c 128,-1,66
 30 424 30 424 30 546 c 0,67,68
 30 710 30 710 188 841 c 128,-1,69
 346 972 346 972 546 972 c 0,70,71
 744 972 744 972 918 834 c 128,-1,72
 1092 696 1092 696 1092 518 c 0,0,1
352 436 m 0,73,74
 352 464 352 464 332 484 c 0,75,76
 316 504 316 504 286 506 c 0,77,78
 260 506 260 506 246 487 c 128,-1,79
 232 468 232 468 228 440 c 1,80,81
 228 378 228 378 292 378 c 0,82,83
 352 378 352 378 352 436 c 0,73,74
374 54 m 0,84,85
 374 86 374 86 348 88 c 0,86,87
 316 88 316 88 316 54 c 0,88,89
 316 30 316 30 344 28 c 0,90,91
 374 28 374 28 374 54 c 0,84,85
EndSplineSet
EndChar

StartChar: tm_ka
Encoding: 2965 2965 61
Width: 1004
GlyphClass: 2
Flags: W
LayerCount: 2
Fore
SplineSet
974 266 m 0,0,1
 974 160 974 160 890 76 c 0,2,3
 846 36 846 36 801 16 c 128,-1,4
 756 -4 756 -4 702 -4 c 0,5,6
 626 -4 626 -4 542 56 c 1,7,-1
 454 22 l 2,8,9
 426 12 426 12 397 6 c 128,-1,10
 368 0 368 0 336 0 c 0,11,12
 222 0 222 0 132 76 c 0,13,14
 30 160 30 160 30 282 c 0,15,16
 30 346 30 346 61 400 c 128,-1,17
 92 454 92 454 134 482 c 1,18,-1
 134 768 l 1,19,-1
 862 768 l 1,20,-1
 862 586 l 1,21,-1
 660 586 l 1,22,-1
 660 520 l 1,23,-1
 708 524 l 1,24,25
 808 524 808 524 891 447 c 128,-1,26
 974 370 974 370 974 266 c 0,0,1
438 524 m 1,27,-1
 438 586 l 1,28,-1
 350 586 l 1,29,-1
 350 524 l 1,30,-1
 438 524 l 1,27,-1
786 266 m 0,31,32
 786 348 786 348 726 348 c 2,33,-1
 660 348 l 1,34,-1
 660 198 l 1,35,36
 672 186 672 186 702 186 c 0,37,38
 730 186 730 186 760 210 c 0,39,40
 784 234 784 234 786 266 c 0,31,32
438 288 m 2,41,-1
 438 348 l 1,42,-1
 298 348 l 2,43,44
 238 348 238 348 238 264 c 0,45,46
 238 186 238 186 338 186 c 256,47,48
 438 186 438 186 438 288 c 2,41,-1
EndSplineSet
EndChar

StartChar: tm_nga
Encoding: 2969 2969 62
Width: 1406
GlyphClass: 2
Flags: W
LayerCount: 2
Fore
SplineSet
1336 0 m 1,0,-1
 716 0 l 1,1,-1
 716 184 l 1,2,-1
 748 182 l 2,3,4
 808 182 808 182 808 236 c 0,5,6
 808 318 808 318 728 318 c 0,7,8
 638 318 638 318 638 200 c 2,9,-1
 638 0 l 1,10,-1
 394 0 l 1,11,-1
 394 562 l 1,12,-1
 296 562 l 1,13,-1
 296 0 l 1,14,-1
 70 0 l 1,15,-1
 70 768 l 1,16,-1
 836 768 l 1,17,-1
 836 548 l 1,18,-1
 638 548 l 1,19,-1
 638 498 l 1,20,21
 664 504 664 504 676 506 c 128,-1,22
 688 508 688 508 716 508 c 0,23,24
 848 508 848 508 928 416 c 0,25,26
 1000 332 1000 332 1000 180 c 1,27,-1
 1110 180 l 1,28,-1
 1110 768 l 1,29,-1
 1336 768 l 1,30,-1
 1336 0 l 1,0,-1
EndSplineSet
EndChar

StartChar: tm_ca
Encoding: 2970 2970 63
Width: 892
GlyphClass: 2
Flags: W
LayerCount: 2
Fore
SplineSet
878 348 m 1,0,-1
 666 348 l 1,1,-1
 670 286 l 1,2,3
 670 144 670 144 556 62 c 0,4,5
 510 32 510 32 457 16 c 128,-1,6
 404 0 404 0 338 0 c 0,7,8
 238 0 238 0 134 81 c 128,-1,9
 30 162 30 162 30 278 c 0,10,11
 30 378 30 378 134 458 c 1,12,-1
 134 768 l 1,13,-1
 878 768 l 1,14,-1
 878 590 l 1,15,-1
 672 590 l 1,16,-1
 672 526 l 1,17,-1
 878 526 l 1,18,-1
 878 348 l 1,0,-1
454 526 m 1,19,-1
 454 590 l 1,20,-1
 352 590 l 1,21,-1
 352 526 l 1,22,-1
 454 526 l 1,19,-1
454 304 m 2,23,-1
 454 348 l 1,24,-1
 300 348 l 2,25,26
 244 348 244 348 244 282 c 0,27,28
 244 194 244 194 344 194 c 0,29,30
 386 194 386 194 420 228 c 128,-1,31
 454 262 454 262 454 304 c 2,23,-1
EndSplineSet
EndChar

StartChar: tm_ja
Encoding: 2972 2972 64
Width: 1170
GlyphClass: 2
Flags: W
LayerCount: 2
Fore
SplineSet
1140 532 m 0,0,1
 1140 430 1140 430 1036 324 c 1,2,3
 1112 224 1112 224 1112 114 c 0,4,5
 1112 14 1112 14 1031 -63 c 128,-1,6
 950 -140 950 -140 816 -140 c 0,7,8
 752 -140 752 -140 677 -105 c 128,-1,9
 602 -70 602 -70 568 -18 c 1,10,-1
 706 114 l 1,11,12
 766 54 766 54 800 54 c 0,13,14
 870 54 870 54 870 126 c 256,15,16
 870 198 870 198 772 198 c 0,17,18
 660 198 660 198 588 94 c 2,19,-1
 510 -14 l 1,20,21
 440 -96 440 -96 300 -96 c 0,22,23
 198 -96 198 -96 118 -22 c 0,24,25
 28 62 28 62 28 196 c 0,26,27
 28 234 28 234 60 292 c 0,28,29
 74 322 74 322 90 343 c 128,-1,30
 106 364 106 364 124 376 c 1,31,32
 30 474 30 474 30 600 c 0,33,34
 30 732 30 732 122 823 c 128,-1,35
 214 914 214 914 340 914 c 0,36,37
 520 914 520 914 600 784 c 1,38,39
 650 828 650 828 706 852 c 128,-1,40
 762 876 762 876 824 876 c 0,41,42
 968 876 968 876 1058 768 c 0,43,44
 1140 668 1140 668 1140 532 c 0,0,1
510 414 m 1,45,-1
 510 622 l 1,46,47
 446 720 446 720 380 720 c 1,48,-1
 354 716 l 1,49,50
 398 710 398 710 440 657 c 128,-1,51
 482 604 482 604 482 542 c 0,52,53
 482 456 482 456 432 414 c 1,54,-1
 510 414 l 1,45,-1
316 538 m 1,55,56
 316 586 316 586 270 586 c 0,57,58
 222 586 222 586 222 536 c 256,59,60
 222 486 222 486 270 486 c 0,61,62
 288 486 288 486 302 502 c 0,63,64
 312 518 312 518 316 538 c 1,55,56
914 524 m 0,65,66
 914 578 914 578 882 623 c 128,-1,67
 850 668 850 668 798 668 c 0,68,69
 762 668 762 668 748 642 c 1,70,-1
 748 402 l 1,71,-1
 810 402 l 2,72,73
 838 402 838 402 876 438 c 128,-1,74
 914 474 914 474 914 524 c 0,65,66
444 230 m 1,75,-1
 332 230 l 2,76,77
 228 230 228 230 228 158 c 0,78,79
 228 94 228 94 294 94 c 0,80,81
 334 94 334 94 366 146 c 0,82,83
 408 210 408 210 444 230 c 1,75,-1
EndSplineSet
EndChar

StartChar: tm_nya
Encoding: 2974 2974 65
Width: 1594
GlyphClass: 2
Flags: W
LayerCount: 2
Fore
SplineSet
1564 124 m 0,0,1
 1564 -110 1564 -110 1354 -230 c 0,2,3
 1286 -270 1286 -270 1130 -299 c 128,-1,4
 974 -328 974 -328 828 -328 c 0,5,6
 466 -328 466 -328 248 -156 c 128,-1,7
 30 16 30 16 30 326 c 0,8,9
 30 560 30 560 166 698 c 1,10,-1
 296 596 l 1,11,12
 214 504 214 504 214 326 c 0,13,14
 214 164 214 164 328 38 c 0,15,16
 424 -64 424 -64 566 -102 c 0,17,18
 662 -126 662 -126 832 -126 c 0,19,20
 1372 -126 1372 -126 1372 120 c 0,21,22
 1372 184 1372 184 1323 240 c 128,-1,23
 1274 296 1274 296 1220 296 c 0,24,25
 1208 294 1208 294 1202 294 c 1,26,-1
 1202 0 l 1,27,-1
 962 0 l 1,28,-1
 962 572 l 1,29,-1
 662 572 l 2,30,31
 602 572 602 572 553 523 c 128,-1,32
 504 474 504 474 492 404 c 1,33,34
 560 490 560 490 670 490 c 0,35,36
 768 490 768 490 846 418 c 128,-1,37
 924 346 924 346 924 244 c 0,38,39
 924 136 924 136 851 65 c 128,-1,40
 778 -6 778 -6 654 -6 c 0,41,42
 500 -6 500 -6 390 102 c 128,-1,43
 280 210 280 210 280 386 c 0,44,45
 280 548 280 548 396 658 c 128,-1,46
 512 768 512 768 686 768 c 2,47,-1
 1432 768 l 1,48,-1
 1432 572 l 1,49,-1
 1202 572 l 1,50,-1
 1202 480 l 1,51,-1
 1268 480 l 2,52,53
 1394 480 1394 480 1486 356 c 0,54,55
 1564 248 1564 248 1564 124 c 0,0,1
768 240 m 0,56,57
 768 320 768 320 686 320 c 0,58,59
 602 320 602 320 602 244 c 0,60,61
 602 156 602 156 684 156 c 0,62,63
 768 156 768 156 768 240 c 0,56,57
EndSplineSet
EndChar

StartChar: tm_tta
Encoding: 2975 2975 66
Width: 1004
GlyphClass: 2
Flags: W
LayerCount: 2
Fore
SplineSet
990 0 m 1,0,-1
 70 0 l 1,1,-1
 70 768 l 1,2,-1
 302 768 l 1,3,-1
 302 222 l 1,4,-1
 990 222 l 1,5,-1
 990 0 l 1,0,-1
EndSplineSet
EndChar

StartChar: tm_nna
Encoding: 2979 2979 67
Width: 2442
GlyphClass: 2
Flags: W
LayerCount: 2
Fore
SplineSet
2428 566 m 1,0,-1
 2196 566 l 1,1,-1
 2196 -34 l 1,2,-1
 1964 -34 l 1,3,-1
 1964 566 l 1,4,-1
 1856 566 l 1,5,6
 1872 548 1872 548 1896 484 c 128,-1,7
 1920 420 1920 420 1920 364 c 0,8,9
 1920 196 1920 196 1800 88 c 0,10,11
 1692 -4 1692 -4 1556 -4 c 0,12,13
 1384 -4 1384 -4 1244 148 c 1,14,15
 1102 6 1102 6 946 6 c 0,16,17
 768 6 768 6 656 138 c 1,18,19
 568 0 568 0 432 0 c 0,20,21
 266 0 266 0 148 115 c 128,-1,22
 30 230 30 230 30 396 c 0,23,24
 30 546 30 546 147 657 c 128,-1,25
 264 768 264 768 424 768 c 2,26,-1
 2428 768 l 1,27,-1
 2428 566 l 1,0,-1
608 566 m 1,28,-1
 392 566 l 2,29,30
 330 566 330 566 285 517 c 128,-1,31
 240 468 240 468 240 414 c 1,32,33
 264 444 264 444 318 471 c 128,-1,34
 372 498 372 498 424 498 c 0,35,36
 528 498 528 498 562 456 c 1,37,38
 570 484 570 484 583 513 c 128,-1,39
 596 542 596 542 608 566 c 1,28,-1
1098 372 m 0,40,41
 1098 442 1098 442 1047 492 c 128,-1,42
 996 542 996 542 924 542 c 0,43,44
 858 542 858 542 804 488 c 1,45,46
 754 432 754 432 754 364 c 0,47,48
 754 288 754 288 801 243 c 128,-1,49
 848 198 848 198 918 198 c 0,50,51
 990 198 990 198 1044 246 c 128,-1,52
 1098 294 1098 294 1098 372 c 0,40,41
1710 364 m 0,53,54
 1710 424 1710 424 1660 469 c 128,-1,55
 1610 514 1610 514 1546 514 c 256,56,57
 1482 514 1482 514 1438 470 c 128,-1,58
 1394 426 1394 426 1394 364 c 256,59,60
 1394 302 1394 302 1443 253 c 128,-1,61
 1492 204 1492 204 1556 204 c 0,62,63
 1622 204 1622 204 1666 252 c 128,-1,64
 1710 300 1710 300 1710 364 c 0,53,54
516 248 m 0,65,66
 516 280 516 280 490 306 c 128,-1,67
 464 332 464 332 430 332 c 0,68,69
 394 332 394 332 370 307 c 128,-1,70
 346 282 346 282 346 248 c 0,71,72
 346 158 346 158 430 158 c 0,73,74
 516 158 516 158 516 248 c 0,65,66
EndSplineSet
EndChar

StartChar: tm_ta
Encoding: 2980 2980 68
Width: 1076
GlyphClass: 2
Flags: W
LayerCount: 2
Fore
SplineSet
1046 174 m 0,0,1
 1046 42 1046 42 954 -70 c 0,2,3
 852 -194 852 -194 696 -194 c 2,4,-1
 24 -194 l 1,5,-1
 24 -18 l 1,6,-1
 656 -18 l 2,7,8
 726 -18 726 -18 785 40 c 128,-1,9
 844 98 844 98 844 168 c 0,10,11
 844 332 844 332 738 332 c 2,12,-1
 664 332 l 1,13,-1
 664 272 l 2,14,15
 664 158 664 158 567 79 c 128,-1,16
 470 0 470 0 354 0 c 0,17,18
 240 0 240 0 142 68 c 0,19,20
 30 144 30 144 30 258 c 0,21,22
 30 410 30 410 158 482 c 1,23,-1
 158 768 l 1,24,-1
 866 768 l 1,25,-1
 866 592 l 1,26,-1
 664 592 l 1,27,-1
 664 522 l 1,28,-1
 724 526 l 1,29,30
 876 526 876 526 970 400 c 0,31,32
 1046 294 1046 294 1046 174 c 0,0,1
442 522 m 1,33,-1
 442 592 l 1,34,-1
 356 592 l 1,35,-1
 356 522 l 1,36,-1
 442 522 l 1,33,-1
442 294 m 2,37,-1
 442 332 l 1,38,-1
 296 332 l 2,39,40
 250 332 250 332 250 278 c 0,41,42
 250 250 250 250 276 226 c 1,43,44
 306 206 306 206 340 206 c 0,45,46
 442 206 442 206 442 294 c 2,37,-1
EndSplineSet
EndChar

StartChar: tm_na
Encoding: 2984 2984 69
Width: 1110
GlyphClass: 2
Flags: W
LayerCount: 2
Fore
SplineSet
1080 150 m 0,0,1
 1080 6 1080 6 992 -102 c 0,2,3
 886 -232 886 -232 706 -232 c 2,4,-1
 60 -232 l 1,5,-1
 60 -52 l 1,6,-1
 652 -52 l 2,7,8
 748 -52 748 -52 812 12 c 0,9,10
 868 72 868 72 868 150 c 0,11,12
 868 218 868 218 824 268 c 128,-1,13
 780 318 780 318 728 318 c 2,14,-1
 678 318 l 1,15,-1
 678 0 l 1,16,-1
 456 0 l 1,17,-1
 456 578 l 1,18,-1
 294 578 l 1,19,-1
 294 0 l 1,20,-1
 70 0 l 1,21,-1
 70 768 l 1,22,-1
 880 768 l 1,23,-1
 880 576 l 1,24,-1
 684 576 l 1,25,-1
 684 518 l 1,26,27
 782 518 782 518 857 490 c 128,-1,28
 932 462 932 462 988 396 c 0,29,30
 1080 286 1080 286 1080 150 c 0,0,1
EndSplineSet
EndChar

StartChar: tm_nnna
Encoding: 2985 2985 70
Width: 1822
GlyphClass: 2
Flags: W
LayerCount: 2
Fore
SplineSet
1808 562 m 1,0,-1
 1588 562 l 1,1,-1
 1588 -16 l 1,2,-1
 1364 -16 l 1,3,-1
 1364 562 l 1,4,-1
 1242 562 l 1,5,6
 1310 494 1310 494 1310 364 c 0,7,8
 1310 198 1310 198 1209 97 c 128,-1,9
 1108 -4 1108 -4 952 -4 c 0,10,11
 768 -4 768 -4 650 140 c 1,12,13
 564 0 564 0 416 0 c 0,14,15
 250 0 250 0 140 114 c 128,-1,16
 30 228 30 228 30 384 c 0,17,18
 30 552 30 552 142 660 c 128,-1,19
 254 768 254 768 416 768 c 2,20,-1
 1808 768 l 1,21,-1
 1808 562 l 1,0,-1
636 558 m 1,22,-1
 412 558 l 2,23,24
 342 558 342 558 288 516 c 0,25,26
 242 476 242 476 236 418 c 1,27,28
 256 448 256 448 314 476 c 1,29,30
 368 496 368 496 410 496 c 256,31,32
 452 496 452 496 508 478 c 128,-1,33
 564 460 564 460 584 432 c 1,34,35
 588 462 588 462 604 496 c 0,36,37
 608 506 608 506 636 558 c 1,22,-1
1106 360 m 0,38,39
 1106 438 1106 438 1058 481 c 128,-1,40
 1010 524 1010 524 938 524 c 256,41,42
 866 524 866 524 818 477 c 128,-1,43
 770 430 770 430 770 354 c 256,44,45
 770 278 770 278 818 232 c 128,-1,46
 866 186 866 186 936 186 c 0,47,48
 1012 186 1012 186 1060 236 c 0,49,50
 1082 260 1082 260 1094 290 c 128,-1,51
 1106 320 1106 320 1106 360 c 0,38,39
502 230 m 0,52,53
 502 256 502 256 480 280 c 128,-1,54
 458 304 458 304 432 304 c 0,55,56
 364 304 364 304 364 230 c 0,57,58
 364 206 364 206 384 184 c 1,59,60
 404 168 404 168 438 164 c 1,61,62
 502 164 502 164 502 230 c 0,52,53
EndSplineSet
EndChar

StartChar: tm_pa
Encoding: 2986 2986 71
Width: 950
GlyphClass: 2
Flags: W
LayerCount: 2
Fore
SplineSet
880 0 m 1,0,-1
 70 0 l 1,1,-1
 70 768 l 1,2,-1
 292 768 l 1,3,-1
 292 188 l 1,4,-1
 648 188 l 1,5,-1
 648 768 l 1,6,-1
 880 768 l 1,7,-1
 880 0 l 1,0,-1
EndSplineSet
EndChar

StartChar: tm_ma
Encoding: 2990 2990 72
Width: 1176
GlyphClass: 2
Flags: W
LayerCount: 2
Fore
SplineSet
1146 366 m 0,0,1
 1146 226 1146 226 1061 125 c 128,-1,2
 976 24 976 24 842 0 c 1,3,-1
 70 0 l 1,4,-1
 70 768 l 1,5,-1
 306 768 l 1,6,-1
 306 198 l 1,7,-1
 440 198 l 1,8,-1
 440 618 l 1,9,10
 466 670 466 670 548 718 c 0,11,12
 630 762 630 762 714 762 c 0,13,14
 910 762 910 762 1032 640 c 0,15,16
 1146 526 1146 526 1146 366 c 0,0,1
936 370 m 0,17,18
 936 432 936 432 888 490 c 0,19,20
 834 550 834 550 760 550 c 0,21,22
 694 550 694 550 650 512 c 1,23,-1
 650 198 l 1,24,-1
 812 198 l 1,25,26
 858 216 858 216 897 265 c 128,-1,27
 936 314 936 314 936 370 c 0,17,18
EndSplineSet
EndChar

StartChar: tm_ya
Encoding: 2991 2991 73
Width: 1192
GlyphClass: 2
Flags: W
LayerCount: 2
Fore
SplineSet
1122 0 m 1,0,-1
 404 0 l 1,1,-1
 404 90 l 1,2,-1
 272 0 l 1,3,-1
 70 0 l 1,4,-1
 70 768 l 1,5,-1
 268 768 l 1,6,-1
 268 212 l 1,7,-1
 404 308 l 1,8,-1
 404 768 l 1,9,-1
 642 768 l 1,10,-1
 642 194 l 1,11,-1
 904 194 l 1,12,-1
 904 768 l 1,13,-1
 1122 768 l 1,14,-1
 1122 0 l 1,0,-1
EndSplineSet
EndChar

StartChar: tm_ra
Encoding: 2992 2992 74
Width: 948
GlyphClass: 2
Flags: W
LayerCount: 2
Fore
SplineSet
934 564 m 1,0,-1
 740 564 l 1,1,-1
 740 -318 l 1,2,-1
 -14 -318 l 1,3,-1
 -14 -88 l 1,4,-1
 498 -88 l 1,5,-1
 498 564 l 1,6,-1
 296 564 l 1,7,-1
 296 0 l 1,8,-1
 70 0 l 1,9,-1
 70 768 l 1,10,-1
 934 768 l 1,11,-1
 934 564 l 1,0,-1
EndSplineSet
EndChar

StartChar: tm_rra
Encoding: 2993 2993 75
Width: 1122
GlyphClass: 2
Flags: W
LayerCount: 2
Fore
SplineSet
1092 268 m 0,0,1
 1092 80 1092 80 956 -74 c 0,2,3
 808 -242 808 -242 600 -242 c 2,4,-1
 40 -242 l 1,5,-1
 40 -58 l 1,6,-1
 558 -58 l 2,7,8
 670 -58 670 -58 772 32 c 0,9,10
 882 130 882 130 882 260 c 0,11,12
 882 382 882 382 815 469 c 128,-1,13
 748 556 748 556 628 586 c 1,14,-1
 628 0 l 1,15,-1
 412 0 l 1,16,-1
 412 520 l 2,17,18
 412 596 412 596 350 596 c 0,19,20
 320 596 320 596 302 566 c 128,-1,21
 284 536 284 536 284 498 c 2,22,-1
 284 0 l 1,23,-1
 70 0 l 1,24,-1
 70 606 l 1,25,26
 102 688 102 688 178 736 c 0,27,28
 246 776 246 776 316 776 c 0,29,30
 442 776 442 776 504 720 c 1,31,32
 560 760 560 760 654 760 c 0,33,34
 816 760 816 760 954 613 c 128,-1,35
 1092 466 1092 466 1092 268 c 0,0,1
EndSplineSet
EndChar

StartChar: tm_la
Encoding: 2994 2994 76
Width: 1300
GlyphClass: 2
Flags: W
LayerCount: 2
Fore
SplineSet
1266 326 m 0,0,1
 1266 178 1266 178 1164 78 c 0,2,3
 1114 32 1114 32 1052 8 c 128,-1,4
 990 -16 990 -16 916 -16 c 0,5,6
 818 -16 818 -16 728 42 c 0,7,8
 650 92 650 92 610 168 c 1,9,-1
 610 402 l 1,10,11
 592 454 592 454 532 490 c 0,12,13
 480 518 480 518 430 518 c 0,14,15
 370 518 370 518 305 486 c 128,-1,16
 240 454 240 454 216 396 c 1,17,18
 274 454 274 454 368 454 c 0,19,20
 466 454 466 454 531 390 c 128,-1,21
 596 326 596 326 596 232 c 256,22,23
 596 138 596 138 524 69 c 128,-1,24
 452 0 452 0 358 0 c 0,25,26
 230 0 230 0 130 95 c 128,-1,27
 30 190 30 190 30 318 c 0,28,29
 30 472 30 472 136 572 c 128,-1,30
 242 672 242 672 412 672 c 0,31,32
 560 672 560 672 678 588 c 0,33,34
 768 522 768 522 800 436 c 1,35,-1
 800 208 l 1,36,37
 832 152 832 152 914 152 c 0,38,39
 978 152 978 152 1031 200 c 128,-1,40
 1084 248 1084 248 1084 332 c 0,41,42
 1084 402 1084 402 1024 448 c 1,43,44
 972 480 972 480 926 480 c 0,45,46
 870 480 870 480 836 460 c 1,47,-1
 836 660 l 1,48,49
 872 668 872 668 880 670 c 0,50,51
 902 670 902 670 912 670 c 0,52,53
 1048 670 1048 670 1157 571 c 128,-1,54
 1266 472 1266 472 1266 326 c 0,0,1
450 228 m 0,55,56
 450 256 450 256 429 278 c 128,-1,57
 408 300 408 300 374 302 c 0,58,59
 340 302 340 302 316 280 c 128,-1,60
 292 258 292 258 292 228 c 256,61,62
 292 198 292 198 316 170 c 1,63,64
 342 148 342 148 374 148 c 0,65,66
 450 148 450 148 450 228 c 0,55,56
EndSplineSet
EndChar

StartChar: tm_lla
Encoding: 2995 2995 77
Width: 1578
GlyphClass: 2
Flags: W
LayerCount: 2
Fore
SplineSet
1564 580 m 1,0,-1
 1324 580 l 1,1,-1
 1324 0 l 1,2,-1
 1100 0 l 1,3,-1
 1100 580 l 1,4,-1
 946 580 l 1,5,-1
 946 0 l 1,6,-1
 726 0 l 1,7,-1
 726 390 l 2,8,9
 726 484 726 484 646 546 c 1,10,11
 572 598 572 598 492 598 c 0,12,13
 420 598 420 598 348 552 c 0,14,15
 266 498 266 498 246 422 c 1,16,17
 330 516 330 516 440 516 c 0,18,19
 534 516 534 516 612 446 c 128,-1,20
 690 376 690 376 690 270 c 0,21,22
 690 158 690 158 610 85 c 128,-1,23
 530 12 530 12 410 12 c 0,24,25
 274 12 274 12 160 108 c 0,26,27
 30 216 30 216 30 394 c 0,28,29
 30 576 30 576 174 688 c 0,30,31
 302 788 302 788 480 788 c 0,32,33
 578 788 578 788 654 750 c 1,34,-1
 732 702 l 1,35,-1
 732 768 l 1,36,-1
 1564 768 l 1,37,-1
 1564 580 l 1,0,-1
524 260 m 0,38,39
 524 288 524 288 502 318 c 128,-1,40
 480 348 480 348 446 348 c 0,41,42
 410 348 410 348 384 322 c 128,-1,43
 358 296 358 296 358 258 c 0,44,45
 358 228 358 228 382 202 c 128,-1,46
 406 176 406 176 440 176 c 0,47,48
 472 176 472 176 498 202 c 128,-1,49
 524 228 524 228 524 260 c 0,38,39
EndSplineSet
EndChar

StartChar: tm_llla
Encoding: 2996 2996 78
Width: 1066
GlyphClass: 2
Flags: W
LayerCount: 2
Fore
SplineSet
1036 360 m 0,0,1
 1036 216 1036 216 946 110 c 0,2,3
 898 56 898 56 834 28 c 128,-1,4
 770 0 770 0 686 0 c 2,5,-1
 628 0 l 1,6,7
 640 -18 640 -18 676 -42 c 128,-1,8
 712 -66 712 -66 748 -72 c 1,9,-1
 748 -236 l 1,10,11
 712 -240 712 -240 698 -240 c 0,12,13
 634 -240 634 -240 584 -208 c 1,14,15
 564 -268 564 -268 494 -328 c 0,16,17
 404 -406 404 -406 286 -406 c 0,18,19
 154 -406 154 -406 52 -319 c 128,-1,20
 -50 -232 -50 -232 -64 -110 c 1,21,-1
 112 -110 l 1,22,23
 158 -218 158 -218 270 -218 c 0,24,25
 330 -218 330 -218 376 -178 c 0,26,27
 430 -132 430 -132 430 -62 c 0,28,29
 430 -28 430 -28 420 0 c 1,30,-1
 70 0 l 1,31,-1
 70 768 l 1,32,-1
 276 768 l 1,33,-1
 276 180 l 1,34,-1
 392 180 l 1,35,-1
 392 584 l 1,36,37
 412 644 412 644 497 695 c 128,-1,38
 582 746 582 746 664 746 c 0,39,40
 838 746 838 746 946 614 c 0,41,42
 1036 502 1036 502 1036 360 c 0,0,1
840 374 m 0,43,44
 840 444 840 444 791 497 c 128,-1,45
 742 550 742 550 680 550 c 0,46,47
 628 550 628 550 604 534 c 1,48,-1
 604 190 l 1,49,-1
 650 184 l 1,50,51
 728 184 728 184 784 236 c 128,-1,52
 840 288 840 288 840 374 c 0,43,44
EndSplineSet
EndChar

StartChar: tm_va
Encoding: 2997 2997 79
Width: 1308
GlyphClass: 2
Flags: W
LayerCount: 2
Fore
SplineSet
1238 0 m 1,0,-1
 648 0 l 1,1,-1
 648 184 l 1,2,3
 660 200 660 200 679 257 c 128,-1,4
 698 314 698 314 698 352 c 0,5,6
 698 448 698 448 625 525 c 128,-1,7
 552 602 552 602 452 602 c 0,8,9
 342 602 342 602 266 532 c 0,10,11
 228 496 228 496 208 453 c 128,-1,12
 188 410 188 410 188 356 c 1,13,14
 200 392 200 392 248 438 c 0,15,16
 280 470 280 470 315 485 c 128,-1,17
 350 500 350 500 394 500 c 0,18,19
 498 500 498 500 573 429 c 128,-1,20
 648 358 648 358 648 254 c 256,21,22
 648 150 648 150 580 81 c 128,-1,23
 512 12 512 12 394 12 c 0,24,25
 264 12 264 12 156 106 c 0,26,27
 30 214 30 214 30 384 c 0,28,29
 30 552 30 552 153 667 c 128,-1,30
 276 782 276 782 460 782 c 0,31,32
 636 782 636 782 770 660 c 128,-1,33
 904 538 904 538 904 370 c 0,34,35
 904 256 904 256 854 164 c 1,36,-1
 1018 164 l 1,37,-1
 1018 768 l 1,38,-1
 1238 768 l 1,39,-1
 1238 0 l 1,0,-1
482 260 m 0,40,41
 482 290 482 290 458 316 c 128,-1,42
 434 342 434 342 400 342 c 0,43,44
 372 342 372 342 342 318 c 0,45,46
 318 294 318 294 318 260 c 0,47,48
 318 232 318 232 342 206 c 128,-1,49
 366 180 366 180 400 180 c 0,50,51
 430 180 430 180 456 204 c 128,-1,52
 482 228 482 228 482 260 c 0,40,41
EndSplineSet
EndChar

StartChar: tm_ssa
Encoding: 2999 2999 80
Width: 1532
GlyphClass: 2
Flags: W
LayerCount: 2
Fore
SplineSet
1518 0 m 1,0,-1
 1340 0 l 1,1,-1
 1280 -158 l 1,2,-1
 1034 -158 l 1,3,-1
 1106 0 l 1,4,-1
 584 0 l 1,5,-1
 584 150 l 1,6,7
 680 186 680 186 680 330 c 0,8,9
 680 422 680 422 619 495 c 128,-1,10
 558 568 558 568 460 568 c 0,11,12
 326 568 326 568 256 490 c 1,13,-1
 350 504 l 1,14,15
 448 504 448 504 524 431 c 128,-1,16
 600 358 600 358 600 246 c 0,17,18
 600 150 600 150 521 78 c 128,-1,19
 442 6 442 6 340 6 c 0,20,21
 244 6 244 6 144 94 c 0,22,23
 30 194 30 194 30 334 c 0,24,25
 30 526 30 526 148 636 c 0,26,27
 260 738 260 738 444 738 c 0,28,29
 620 738 620 738 740 628 c 128,-1,30
 860 518 860 518 860 360 c 0,31,32
 860 254 860 254 812 178 c 1,33,-1
 1166 178 l 1,34,-1
 1194 240 l 1,35,36
 1094 240 1094 240 1021 318 c 128,-1,37
 948 396 948 396 948 510 c 0,38,39
 948 616 948 616 1017 692 c 128,-1,40
 1086 768 1086 768 1192 768 c 0,41,42
 1330 768 1330 768 1416 694 c 128,-1,43
 1502 620 1502 620 1502 502 c 0,44,45
 1502 434 1502 434 1398 178 c 1,46,-1
 1518 178 l 1,47,-1
 1518 0 l 1,0,-1
1322 506 m 0,48,49
 1322 586 1322 586 1230 586 c 0,50,51
 1146 586 1146 586 1146 506 c 0,52,53
 1146 474 1146 474 1174 449 c 128,-1,54
 1202 424 1202 424 1240 424 c 0,55,56
 1322 424 1322 424 1322 506 c 0,48,49
450 246 m 0,57,58
 450 274 450 274 425 301 c 128,-1,59
 400 328 400 328 368 328 c 0,60,61
 340 328 340 328 319 304 c 128,-1,62
 298 280 298 280 294 246 c 1,63,64
 294 170 294 170 372 170 c 256,65,66
 450 170 450 170 450 246 c 0,57,58
EndSplineSet
EndChar

StartChar: tm_sa
Encoding: 3000 3000 81
Width: 1658
GlyphClass: 2
Flags: W
LayerCount: 2
Fore
SplineSet
1628 380 m 0,0,1
 1628 220 1628 220 1526 107 c 128,-1,2
 1424 -6 1424 -6 1272 -6 c 0,3,4
 1036 -6 1036 -6 934 212 c 1,5,-1
 934 562 l 2,6,7
 934 598 934 598 896 598 c 256,8,9
 858 598 858 598 858 556 c 2,10,-1
 858 0 l 1,11,-1
 650 0 l 1,12,-1
 650 364 l 2,13,14
 650 448 650 448 579 510 c 128,-1,15
 508 572 508 572 428 572 c 0,16,17
 358 572 358 572 298 525 c 128,-1,18
 238 478 238 478 214 396 c 1,19,20
 300 494 300 494 412 494 c 0,21,22
 500 494 500 494 571 428 c 128,-1,23
 642 362 642 362 642 262 c 0,24,25
 642 144 642 144 572 72 c 0,26,27
 506 0 506 0 392 0 c 0,28,29
 254 0 254 0 152 94 c 0,30,31
 30 204 30 204 30 380 c 0,32,33
 30 564 30 564 152 668 c 0,34,35
 260 764 260 764 422 764 c 0,36,37
 502 764 502 764 592 716 c 0,38,39
 660 680 660 680 684 648 c 1,40,41
 698 684 698 684 742 718 c 0,42,43
 808 768 808 768 898 768 c 0,44,45
 990 768 990 768 1066 707 c 128,-1,46
 1142 646 1142 646 1142 556 c 2,47,-1
 1142 246 l 1,48,49
 1202 196 1202 196 1268 196 c 0,50,51
 1344 196 1344 196 1398 248 c 128,-1,52
 1452 300 1452 300 1452 386 c 0,53,54
 1452 476 1452 476 1380 536 c 0,55,56
 1320 584 1320 584 1248 584 c 1,57,-1
 1212 578 l 1,58,-1
 1212 762 l 1,59,60
 1302 762 1302 762 1371 739 c 128,-1,61
 1440 716 1440 716 1504 658 c 0,62,63
 1628 546 1628 546 1628 380 c 0,0,1
500 246 m 0,64,65
 500 274 500 274 478 303 c 128,-1,66
 456 332 456 332 422 332 c 0,67,68
 386 332 386 332 356 308 c 1,69,70
 330 282 330 282 330 246 c 0,71,72
 330 218 330 218 360 188 c 1,73,74
 390 164 390 164 424 164 c 0,75,76
 500 164 500 164 500 246 c 0,64,65
EndSplineSet
EndChar

StartChar: tm_ha
Encoding: 3001 3001 82
Width: 2040
GlyphClass: 2
Flags: W
LayerCount: 2
Fore
SplineSet
2010 272 m 0,0,1
 2010 70 2010 70 1875 -69 c 128,-1,2
 1740 -208 1740 -208 1538 -208 c 2,3,-1
 158 -208 l 1,4,-1
 158 -38 l 1,5,-1
 1558 -38 l 2,6,7
 1652 -38 1652 -38 1733 47 c 128,-1,8
 1814 132 1814 132 1814 254 c 0,9,10
 1814 370 1814 370 1734 464 c 128,-1,11
 1654 558 1654 558 1550 558 c 0,12,13
 1518 558 1518 558 1484 546 c 1,14,-1
 1484 0 l 1,15,-1
 1278 0 l 1,16,-1
 1278 550 l 1,17,18
 1256 568 1256 568 1232 572 c 1,19,20
 1204 572 1204 572 1192 526 c 1,21,-1
 1192 0 l 1,22,-1
 644 0 l 1,23,-1
 644 200 l 1,24,-1
 688 248 l 1,25,26
 714 294 714 294 714 360 c 0,27,28
 714 464 714 464 637 536 c 128,-1,29
 560 608 560 608 456 608 c 0,30,31
 360 608 360 608 290 550 c 128,-1,32
 220 492 220 492 204 392 c 1,33,34
 294 506 294 506 396 506 c 0,35,36
 496 506 496 506 574 436 c 128,-1,37
 652 366 652 366 652 254 c 0,38,39
 652 162 652 162 581 89 c 128,-1,40
 510 16 510 16 400 16 c 0,41,42
 286 16 286 16 174 94 c 0,43,44
 30 196 30 196 30 386 c 0,45,46
 30 550 30 550 155 671 c 128,-1,47
 280 792 280 792 458 792 c 0,48,49
 642 792 642 792 772 676 c 0,50,51
 912 548 912 548 912 350 c 0,52,53
 912 274 912 274 878 192 c 1,54,-1
 998 192 l 1,55,-1
 998 630 l 1,56,57
 1010 664 1010 664 1064 712 c 1,58,59
 1136 768 1136 768 1214 768 c 0,60,61
 1260 768 1260 768 1320 744 c 0,62,63
 1370 726 1370 726 1394 700 c 1,64,65
 1452 732 1452 732 1576 732 c 0,66,67
 1744 732 1744 732 1872 610 c 0,68,69
 2010 478 2010 478 2010 272 c 0,0,1
488 250 m 0,70,71
 488 280 488 280 464 306 c 128,-1,72
 440 332 440 332 406 334 c 0,73,74
 376 334 376 334 352 309 c 128,-1,75
 328 284 328 284 328 250 c 0,76,77
 328 222 328 222 352 196 c 128,-1,78
 376 170 376 170 408 170 c 0,79,80
 442 170 442 170 465 193 c 128,-1,81
 488 216 488 216 488 250 c 0,70,71
EndSplineSet
EndChar

StartChar: tm_aakaar
Encoding: 3006 3006 83
Width: 952
GlyphClass: 2
Flags: W
LayerCount: 2
Fore
SplineSet
938 566 m 1,0,-1
 736 566 l 1,1,-1
 736 0 l 1,2,-1
 488 0 l 1,3,-1
 488 566 l 1,4,-1
 278 566 l 1,5,-1
 278 0 l 1,6,-1
 70 0 l 1,7,-1
 70 768 l 1,8,-1
 938 768 l 1,9,-1
 938 566 l 1,0,-1
EndSplineSet
EndChar

StartChar: tm_ikaar
Encoding: 3007 3007 84
Width: 836
GlyphClass: 2
Flags: W
LayerCount: 2
Fore
SplineSet
1168 424 m 1,0,-1
 952 424 l 1,1,-1
 952 788 l 2,2,3
 952 870 952 870 905 921 c 128,-1,4
 858 972 858 972 776 972 c 0,5,6
 702 972 702 972 656 926 c 128,-1,7
 610 880 610 880 610 802 c 1,8,-1
 612 768 l 1,9,-1
 404 768 l 1,10,-1
 402 812 l 1,11,12
 402 968 402 968 511 1077 c 128,-1,13
 620 1186 620 1186 772 1186 c 0,14,15
 934 1186 934 1186 1051 1076 c 128,-1,16
 1168 966 1168 966 1168 810 c 2,17,-1
 1168 424 l 1,0,-1
EndSplineSet
EndChar

StartChar: tm_iikaar
Encoding: 3008 3008 85
Width: 890
GlyphClass: 4
Flags: W
LayerCount: 2
Fore
SplineSet
356 768 m 1,0,1
 296 880 296 880 296 1006 c 0,2,3
 296 1138 296 1138 388 1230 c 128,-1,4
 480 1322 480 1322 614 1322 c 0,5,6
 724 1322 724 1322 809 1255 c 128,-1,7
 894 1188 894 1188 894 1084 c 0,8,9
 894 1000 894 1000 828 936 c 128,-1,10
 762 872 762 872 668 872 c 0,11,12
 554 872 554 872 484 978 c 1,13,14
 484 946 484 946 492 916 c 128,-1,15
 500 886 500 886 520 854 c 1,16,-1
 590 768 l 1,17,-1
 356 768 l 1,0,1
712 1070 m 0,18,19
 712 1110 712 1110 666 1110 c 0,20,21
 652 1110 652 1110 636 1092 c 0,22,23
 626 1076 626 1076 622 1056 c 1,24,25
 622 1016 622 1016 666 1016 c 0,26,27
 712 1016 712 1016 712 1070 c 0,18,19
EndSplineSet
EndChar

StartChar: tm_ukaar
Encoding: 3009 3009 86
Width: 593
GlyphClass: 4
Flags: W
LayerCount: 2
Fore
SplineSet
566 646 m 0,0,1
 566 564 566 564 506 486 c 0,2,3
 434 396 434 396 318 396 c 0,4,5
 218 396 218 396 149 467 c 128,-1,6
 80 538 80 538 80 636 c 0,7,8
 80 674 80 674 90 686 c 1,9,-1
 -368 686 l 1,10,-1
 -368 888 l 1,11,-1
 306 888 l 2,12,13
 408 888 408 888 487 817 c 128,-1,14
 566 746 566 746 566 646 c 0,0,1
378 624 m 0,15,16
 378 686 378 686 308 686 c 0,17,18
 246 686 246 686 246 620 c 0,19,20
 246 560 246 560 312 560 c 0,21,22
 334 560 334 560 358 578 c 0,23,24
 376 596 376 596 378 624 c 0,15,16
EndSplineSet
EndChar

StartChar: tm_uukaar
Encoding: 3010 3010 87
Width: 867
GlyphClass: 4
Flags: W
LayerCount: 2
Fore
SplineSet
792 492 m 1,0,-1
 574 492 l 1,1,2
 628 540 628 540 628 628 c 256,3,4
 628 716 628 716 566 772 c 0,5,6
 514 818 514 818 450 818 c 0,7,8
 434 816 434 816 426 816 c 1,9,10
 480 792 480 792 516 731 c 128,-1,11
 552 670 552 670 552 610 c 0,12,13
 552 510 552 510 488 438 c 0,14,15
 416 354 416 354 292 354 c 0,16,17
 156 354 156 354 86 472 c 0,18,19
 38 554 38 554 38 640 c 0,20,21
 40 660 40 660 40 670 c 1,22,-1
 -432 670 l 1,23,-1
 -432 860 l 1,24,-1
 90 860 l 1,25,26
 114 918 114 918 200 978 c 0,27,28
 302 1050 302 1050 420 1050 c 0,29,30
 588 1050 588 1050 704 926 c 128,-1,31
 820 802 820 802 820 638 c 0,32,33
 820 598 820 598 814 564 c 128,-1,34
 808 530 808 530 792 492 c 1,0,-1
396 610 m 0,35,36
 396 686 396 686 312 686 c 0,37,38
 230 686 230 686 230 606 c 0,39,40
 230 528 230 528 312 528 c 0,41,42
 396 528 396 528 396 610 c 0,35,36
EndSplineSet
EndChar

StartChar: tm_ekaar
Encoding: 3014 3014 88
Width: 1056
GlyphClass: 2
Flags: W
LayerCount: 2
Fore
SplineSet
986 0 m 1,0,-1
 794 0 l 1,1,-1
 794 492 l 2,2,3
 794 604 794 604 706 687 c 128,-1,4
 618 770 618 770 510 770 c 0,5,6
 396 770 396 770 308 692 c 128,-1,7
 220 614 220 614 220 496 c 1,8,9
 312 624 312 624 468 624 c 0,10,11
 596 624 596 624 685 538 c 128,-1,12
 774 452 774 452 774 328 c 0,13,14
 774 200 774 200 689 111 c 128,-1,15
 604 22 604 22 478 22 c 0,16,17
 300 22 300 22 165 161 c 128,-1,18
 30 300 30 300 30 506 c 0,19,20
 30 694 30 694 175 825 c 128,-1,21
 320 956 320 956 514 956 c 0,22,23
 714 956 714 956 856 814 c 0,24,25
 986 680 986 680 986 528 c 2,26,-1
 986 0 l 1,0,-1
580 328 m 256,27,28
 580 374 580 374 550 408 c 128,-1,29
 520 442 520 442 472 442 c 0,30,31
 422 442 422 442 388 408 c 1,32,33
 352 378 352 378 352 328 c 0,34,35
 352 272 352 272 388 244 c 128,-1,36
 424 216 424 216 472 216 c 256,37,38
 520 216 520 216 550 249 c 128,-1,39
 580 282 580 282 580 328 c 256,27,28
EndSplineSet
EndChar

StartChar: tm_eekaar
Encoding: 3015 3015 89
Width: 914
GlyphClass: 2
Flags: W
LayerCount: 2
Fore
SplineSet
884 710 m 0,0,1
 884 614 884 614 813 551 c 128,-1,2
 742 488 742 488 648 488 c 0,3,4
 568 488 568 488 506 550 c 1,5,6
 448 614 448 614 448 700 c 0,7,8
 448 740 448 740 466 788 c 1,9,10
 358 762 358 762 298 676 c 128,-1,11
 238 590 238 590 238 476 c 0,12,13
 238 306 238 306 398 208 c 1,14,15
 398 320 398 320 467 401 c 128,-1,16
 536 482 536 482 642 482 c 0,17,18
 742 482 742 482 808 416 c 128,-1,19
 874 350 874 350 874 254 c 0,20,21
 874 116 874 116 758 44 c 0,22,23
 658 -16 658 -16 508 -16 c 0,24,25
 318 -16 318 -16 174 142 c 128,-1,26
 30 300 30 300 30 472 c 0,27,28
 30 668 30 668 174 820 c 128,-1,29
 318 972 318 972 508 972 c 0,30,31
 650 972 650 972 758 908 c 0,32,33
 884 836 884 836 884 710 c 0,0,1
720 710 m 0,34,35
 720 772 720 772 656 772 c 0,36,37
 632 772 632 772 613 753 c 128,-1,38
 594 734 594 734 594 708 c 0,39,40
 594 652 594 652 654 652 c 0,41,42
 674 652 674 652 697 673 c 128,-1,43
 720 694 720 694 720 710 c 0,34,35
704 254 m 0,44,45
 704 318 704 318 642 318 c 256,46,47
 580 318 580 318 580 254 c 0,48,49
 580 192 580 192 642 192 c 256,50,51
 704 192 704 192 704 254 c 0,44,45
EndSplineSet
EndChar

StartChar: tm_aikaar
Encoding: 3016 3016 90
Width: 1710
GlyphClass: 2
Flags: W
LayerCount: 2
Fore
SplineSet
1680 392 m 0,0,1
 1680 240 1680 240 1598 140 c 0,2,3
 1506 26 1506 26 1328 2 c 1,4,-1
 1328 196 l 1,5,6
 1368 196 1368 196 1396 207 c 128,-1,7
 1424 218 1424 218 1448 248 c 0,8,9
 1490 300 1490 300 1490 380 c 0,10,11
 1490 462 1490 462 1438 520 c 1,12,13
 1390 580 1390 580 1308 580 c 1,14,-1
 1262 574 l 1,15,16
 1322 498 1322 498 1322 386 c 0,17,18
 1322 200 1322 200 1194 96 c 0,19,20
 1090 16 1090 16 966 16 c 0,21,22
 798 16 798 16 684 136 c 1,23,24
 626 66 626 66 575 33 c 128,-1,25
 524 0 524 0 432 0 c 0,26,27
 270 0 270 0 150 112 c 128,-1,28
 30 224 30 224 30 398 c 0,29,30
 30 540 30 540 132 654 c 128,-1,31
 234 768 234 768 382 768 c 2,32,-1
 1378 768 l 2,33,34
 1496 768 1496 768 1588 649 c 128,-1,35
 1680 530 1680 530 1680 392 c 0,0,1
662 582 m 1,36,-1
 416 582 l 2,37,38
 328 582 328 582 280 520 c 128,-1,39
 232 458 232 458 232 382 c 1,40,41
 260 434 260 434 324 472 c 128,-1,42
 388 510 388 510 460 510 c 0,43,44
 510 510 510 510 550 490 c 2,45,-1
 606 458 l 1,46,47
 618 528 618 528 662 582 c 1,36,-1
1110 376 m 0,48,49
 1110 444 1110 444 1064 490 c 1,50,51
 1022 538 1022 538 954 538 c 0,52,53
 884 538 884 538 839 493 c 128,-1,54
 794 448 794 448 794 376 c 0,55,56
 794 302 794 302 837 256 c 128,-1,57
 880 210 880 210 952 210 c 0,58,59
 1018 210 1018 210 1064 258 c 128,-1,60
 1110 306 1110 306 1110 376 c 0,48,49
522 252 m 0,61,62
 522 282 522 282 500 302 c 0,63,64
 484 320 484 320 456 324 c 1,65,66
 382 324 382 324 382 256 c 256,67,68
 382 188 382 188 456 188 c 0,69,70
 476 188 476 188 498 205 c 128,-1,71
 520 222 520 222 522 252 c 0,61,62
EndSplineSet
EndChar

StartChar: tm_two
Encoding: 3048 3048 97
Width: 1425
GlyphClass: 2
Flags: W
LayerCount: 2
Fore
SplineSet
1244 70 m 1,0,-1
 1226 0 l 1,1,-1
 586 0 l 2,2,3
 429 0 429 0 429 106 c 0,4,5
 429 153 429 153 478 181.5 c 128,-1,6
 527 210 527 210 586 210 c 2,7,-1
 779 210 l 2,8,9
 867 210 867 210 928 271.5 c 128,-1,10
 989 333 989 333 989 420 c 0,11,12
 989 500 989 500 945 560.5 c 128,-1,13
 901 621 901 621 831 621 c 0,14,15
 793 621 793 621 744 595 c 1,16,17
 814 555 814 555 814 437 c 0,18,19
 814 382 814 382 772.5 344.5 c 128,-1,20
 731 307 731 307 675 307 c 0,21,22
 618 307 618 307 580 351 c 128,-1,23
 542 395 542 395 542 455 c 0,24,25
 542 565 542 565 646.5 632.5 c 128,-1,26
 751 700 751 700 884 700 c 0,27,28
 987 700 987 700 1058 629 c 128,-1,29
 1129 558 1129 558 1129 455 c 0,30,31
 1129 321 1129 321 1025.5 230.5 c 128,-1,32
 922 140 922 140 779 140 c 2,33,-1
 595 140 l 2,34,35
 551 140 551 140 551 106 c 0,36,37
 551 70 551 70 604 70 c 2,38,-1
 1244 70 l 1,0,-1
675 560 m 1,39,40
 621 516 621 516 621 473 c 0,41,42
 621 386 621 386 666 386 c 0,43,44
 709 386 709 386 709 473 c 0,45,46
 709 518 709 518 675 560 c 1,39,40
EndSplineSet
EndChar

StartChar: tm_three
Encoding: 3049 3049 98
Width: 1424
GlyphClass: 2
Flags: W
LayerCount: 2
Fore
SplineSet
1270 70 m 1,0,-1
 1252 0 l 1,1,-1
 640 0 l 1,2,-1
 657 70 l 1,3,-1
 780 70 l 2,4,5
 874 70 874 70 941 130.5 c 128,-1,6
 1008 191 1008 191 1008 280 c 0,7,8
 1008 317 1008 317 982.5 342.5 c 128,-1,9
 957 368 957 368 920 368 c 0,10,11
 890 368 890 368 865 341 c 128,-1,12
 840 314 840 314 833 280 c 2,13,-1
 815 193 l 1,14,-1
 675 193 l 1,15,-1
 764 630 l 1,16,-1
 571 630 l 1,17,-1
 444 0 l 1,18,-1
 378 0 l 1,19,-1
 517 700 l 1,20,-1
 1095 700 l 1,21,-1
 1077 630 l 1,22,-1
 902 630 l 1,23,-1
 859 403 l 1,24,25
 918 455 918 455 990 455 c 0,26,27
 1057 455 1057 455 1102.5 403.5 c 128,-1,28
 1148 352 1148 352 1148 280 c 0,29,30
 1148 209 1148 209 1090 151 c 128,-1,31
 1032 93 1032 93 947 70 c 1,32,-1
 1270 70 l 1,0,-1
EndSplineSet
EndChar

StartChar: tm_four
Encoding: 3050 3050 99
Width: 1427
GlyphClass: 2
Flags: W
LayerCount: 2
Fore
SplineSet
915 316 m 1,0,-1
 644 316 l 2,1,2
 601 316 601 316 570.5 291 c 128,-1,3
 540 266 540 266 540 228 c 0,4,5
 540 158 540 158 609.5 114 c 128,-1,6
 679 70 679 70 766 70 c 0,7,8
 811 70 811 70 844 99.5 c 128,-1,9
 877 129 877 129 887 175 c 2,10,-1
 915 316 l 1,0,-1
979 630 m 1,11,-1
 784 630 l 1,12,-1
 735 386 l 1,13,-1
 930 386 l 1,14,-1
 979 630 l 1,11,-1
1042 245 m 2,15,16
 1017 125 1017 125 940 62.5 c 128,-1,17
 863 0 863 0 766 0 c 0,18,19
 651 0 651 0 559.5 64 c 128,-1,20
 468 128 468 128 468 228 c 0,21,22
 468 294 468 294 520.5 340 c 128,-1,23
 573 386 573 386 644 386 c 2,24,-1
 669 386 l 1,25,-1
 731 700 l 1,26,-1
 1344 700 l 1,27,-1
 1329 630 l 1,28,-1
 1118 630 l 1,29,-1
 1068 386 l 1,30,-1
 1232 386 l 1,31,-1
 1248 464 l 1,32,-1
 1309 464 l 1,33,-1
 1279 316 l 1,34,-1
 1055 316 l 1,35,-1
 1042 245 l 2,15,16
EndSplineSet
EndChar

StartChar: tm_five
Encoding: 3051 3051 100
Width: 1424
GlyphClass: 2
Flags: W
LayerCount: 2
Fore
SplineSet
1412 517 m 1,0,-1
 1359 526 l 1,1,2
 1369 563 1369 563 1369 598 c 0,3,4
 1369 723 1369 723 1253.5 825.5 c 128,-1,5
 1138 928 1138 928 965 928 c 0,6,7
 728 928 728 928 575.5 716 c 128,-1,8
 423 504 423 504 423 228 c 0,9,10
 423 -43 423 -43 515 -179.5 c 128,-1,11
 607 -316 607 -316 790 -316 c 0,12,13
 979 -316 979 -316 1103.5 -163.5 c 128,-1,14
 1228 -11 1228 -11 1228 193 c 0,15,16
 1228 257 1228 257 1200 304.5 c 128,-1,17
 1172 352 1172 352 1126 352 c 0,18,19
 1099 352 1099 352 1072.5 336.5 c 128,-1,20
 1046 321 1046 321 1039 298 c 2,21,-1
 980 0 l 1,22,-1
 840 0 l 1,23,-1
 965 630 l 1,24,-1
 759 630 l 1,25,-1
 634 0 l 1,26,-1
 566 0 l 1,27,-1
 706 700 l 1,28,-1
 1237 700 l 1,29,-1
 1219 630 l 1,30,-1
 1105 630 l 1,31,-1
 1057 386 l 1,32,33
 1101 437 1101 437 1171 437 c 0,34,35
 1261 437 1261 437 1314.5 368.5 c 128,-1,36
 1368 300 1368 300 1368 193 c 0,37,38
 1368 -47 1368 -47 1202.5 -216 c 128,-1,39
 1037 -385 1037 -385 799 -385 c 0,40,41
 589 -385 589 -385 471.5 -223 c 128,-1,42
 354 -61 354 -61 354 193 c 0,43,44
 354 513 354 513 519 764 c 128,-1,45
 684 1015 684 1015 948 1015 c 0,46,47
 1152 1015 1152 1015 1288.5 889.5 c 128,-1,48
 1425 764 1425 764 1425 613 c 0,49,50
 1425 566 1425 566 1412 517 c 1,0,-1
EndSplineSet
EndChar

StartChar: tm_six
Encoding: 3052 3052 101
Width: 1424
GlyphClass: 2
Flags: W
LayerCount: 2
Fore
SplineSet
784 316 m 1,0,-1
 513 316 l 2,1,2
 469 316 469 316 438 291 c 128,-1,3
 407 266 407 266 407 228 c 0,4,5
 407 158 407 158 477 114 c 128,-1,6
 547 70 547 70 635 70 c 0,7,8
 680 70 680 70 713 99.5 c 128,-1,9
 746 129 746 129 756 175 c 2,10,-1
 784 316 l 1,0,-1
846 630 m 1,11,-1
 653 630 l 1,12,-1
 603 386 l 1,13,-1
 798 386 l 1,14,-1
 846 630 l 1,11,-1
910 245 m 2,15,16
 884 125 884 125 808 62.5 c 128,-1,17
 732 0 732 0 635 0 c 0,18,19
 518 0 518 0 428 64 c 128,-1,20
 338 128 338 128 338 228 c 0,21,22
 338 294 338 294 389.5 340 c 128,-1,23
 441 386 441 386 513 386 c 2,24,-1
 537 386 l 1,25,-1
 600 700 l 1,26,-1
 1229 700 l 1,27,-1
 1213 630 l 1,28,-1
 988 630 l 1,29,-1
 938 386 l 1,30,-1
 1422 386 l 1,31,-1
 1410 316 l 1,32,-1
 1353 316 l 1,33,-1
 1291 0 l 1,34,-1
 1151 0 l 1,35,-1
 1213 316 l 1,36,-1
 1116 316 l 1,37,-1
 1055 0 l 1,38,-1
 967 0 l 1,39,-1
 1028 316 l 1,40,-1
 924 316 l 1,41,-1
 910 245 l 2,15,16
EndSplineSet
EndChar

StartChar: tm_seven
Encoding: 3053 3053 102
Width: 1425
GlyphClass: 2
Flags: W
LayerCount: 2
Fore
SplineSet
643 88 m 1,0,1
 706 88 706 88 753 128 c 128,-1,2
 800 168 800 168 800 228 c 0,3,4
 800 269 800 269 781 301 c 128,-1,5
 762 333 762 333 729 333 c 0,6,7
 684 333 684 333 654.5 296.5 c 128,-1,8
 625 260 625 260 625 210 c 0,9,10
 625 135 625 135 643 88 c 1,0,1
1042 0 m 1,11,-1
 1167 630 l 1,12,-1
 852 630 l 2,13,14
 704 630 704 630 594.5 540.5 c 128,-1,15
 485 451 485 451 485 316 c 0,16,17
 485 247 485 247 507 194.5 c 128,-1,18
 529 142 529 142 572 106 c 1,19,20
 555 135 555 135 555 228 c 256,21,22
 555 321 555 321 614.5 388 c 128,-1,23
 674 455 674 455 765 455 c 0,24,25
 837 455 837 455 884 398 c 128,-1,26
 931 341 931 341 931 263 c 0,27,28
 931 155 931 155 863 77.5 c 128,-1,29
 795 0 795 0 695 0 c 0,30,31
 576 0 576 0 495.5 94 c 128,-1,32
 415 188 415 188 415 316 c 0,33,34
 415 481 415 481 545.5 590.5 c 128,-1,35
 676 700 676 700 852 700 c 2,36,-1
 1430 700 l 1,37,-1
 1412 630 l 1,38,-1
 1307 630 l 1,39,-1
 1181 0 l 1,40,-1
 1042 0 l 1,11,-1
EndSplineSet
EndChar

StartChar: tm_eight
Encoding: 3054 3054 103
Width: 1427
GlyphClass: 2
Flags: W
LayerCount: 2
Fore
SplineSet
849 629 m 1,0,1
 745 611 745 611 670 548.5 c 128,-1,2
 595 486 595 486 595 402 c 0,3,4
 595 338 595 338 638.5 291 c 128,-1,5
 682 244 682 244 744 244 c 0,6,7
 817 244 817 244 864 307.5 c 128,-1,8
 911 371 911 371 911 454 c 0,9,10
 911 580 911 580 849 629 c 1,0,1
1024 140 m 1,11,-1
 411 140 l 2,12,13
 381 140 381 140 357 125 c 128,-1,14
 333 110 333 110 333 87 c 0,15,16
 333 43 333 43 412 -13.5 c 128,-1,17
 491 -70 491 -70 639 -70 c 0,18,19
 743 -70 743 -70 839.5 -18 c 128,-1,20
 936 34 936 34 1024 140 c 1,11,-1
1414 -245 m 1,21,-1
 1269 -245 l 1,22,-1
 1348 140 l 1,23,-1
 1164 140 l 1,24,25
 1051 4 1051 4 915 -63.5 c 128,-1,26
 779 -131 779 -131 621 -131 c 0,27,28
 421 -131 421 -131 311.5 -52.5 c 128,-1,29
 202 26 202 26 202 123 c 0,30,31
 202 160 202 160 233 184.5 c 128,-1,32
 264 209 264 209 307 209 c 2,33,-1
 666 209 l 1,34,35
 604 231 604 231 565 284.5 c 128,-1,36
 526 338 526 338 526 402 c 0,37,38
 526 534 526 534 652 617 c 128,-1,39
 778 700 778 700 937 700 c 0,40,41
 1069 700 1069 700 1169 620.5 c 128,-1,42
 1269 541 1269 541 1269 420 c 0,43,44
 1269 306 1269 306 1213 209 c 1,45,-1
 1364 209 l 1,46,-1
 1463 700 l 1,47,-1
 1603 700 l 1,48,-1
 1414 -245 l 1,21,-1
989 620 m 1,49,50
 1042 530 1042 530 1042 411 c 0,51,52
 1042 267 1042 267 919 209 c 1,53,-1
 1077 209 l 1,54,55
 1146 308 1146 308 1146 402 c 0,56,57
 1146 486 1146 486 1103 553 c 128,-1,58
 1060 620 1060 620 989 620 c 1,49,50
EndSplineSet
EndChar

StartChar: tm_nine
Encoding: 3055 3055 104
Width: 1427
GlyphClass: 2
Flags: W
LayerCount: 2
Fore
SplineSet
692 316 m 1,0,-1
 422 316 l 2,1,2
 379 316 379 316 348 291 c 128,-1,3
 317 266 317 266 317 228 c 0,4,5
 317 158 317 158 387 114 c 128,-1,6
 457 70 457 70 544 70 c 0,7,8
 589 70 589 70 622 99.5 c 128,-1,9
 655 129 655 129 665 175 c 2,10,-1
 692 316 l 1,0,-1
756 630 m 1,11,-1
 562 630 l 1,12,-1
 513 386 l 1,13,-1
 707 386 l 1,14,-1
 756 630 l 1,11,-1
1157 175 m 0,15,16
 1157 259 1157 259 1052 298 c 1,17,18
 982 240 982 240 982 158 c 0,19,20
 982 121 982 121 1007.5 95.5 c 128,-1,21
 1033 70 1033 70 1068 70 c 0,22,23
 1107 70 1107 70 1132 101.5 c 128,-1,24
 1157 133 1157 133 1157 175 c 0,15,16
1297 0 m 1,25,26
 1375 93 1375 93 1375 193 c 0,27,28
 1375 263 1375 263 1332.5 315.5 c 128,-1,29
 1290 368 1290 368 1226 368 c 0,30,31
 1163 368 1163 368 1113 342 c 1,32,33
 1167 322 1167 322 1201 276.5 c 128,-1,34
 1235 231 1235 231 1235 175 c 0,35,36
 1235 104 1235 104 1187 52 c 128,-1,37
 1139 0 1139 0 1068 0 c 0,38,39
 1005 0 1005 0 958.5 46.5 c 128,-1,40
 912 93 912 93 912 158 c 0,41,42
 912 257 912 257 982 316 c 1,43,-1
 833 316 l 1,44,-1
 819 245 l 2,45,46
 795 125 795 125 718.5 62.5 c 128,-1,47
 642 0 642 0 544 0 c 0,48,49
 428 0 428 0 337 64 c 128,-1,50
 246 128 246 128 246 228 c 0,51,52
 246 294 246 294 299 340 c 128,-1,53
 352 386 352 386 422 386 c 2,54,-1
 446 386 l 1,55,-1
 508 700 l 1,56,-1
 1122 700 l 1,57,-1
 1104 630 l 1,58,-1
 896 630 l 1,59,-1
 847 386 l 1,60,-1
 947 386 l 2,61,62
 1014 386 1014 386 1052 368 c 1,63,64
 1111 420 1111 420 1226 420 c 0,65,66
 1327 420 1327 420 1399.5 354.5 c 128,-1,67
 1472 289 1472 289 1472 193 c 0,68,69
 1472 109 1472 109 1410 0 c 1,70,-1
 1297 0 l 1,25,26
EndSplineSet
EndChar

StartChar: tm_ten
Encoding: 3056 3056 105
Width: 1260
GlyphClass: 2
Flags: W
LayerCount: 2
Fore
SplineSet
597 149 m 1,0,1
 558 74 558 74 508 37 c 128,-1,2
 458 0 458 0 395 0 c 0,3,4
 302 0 302 0 242 64 c 128,-1,5
 182 128 182 128 182 200 c 0,6,7
 182 224 182 224 186 244 c 2,8,-1
 279 700 l 1,9,-1
 419 700 l 1,10,-1
 325 244 l 2,11,12
 320 223 320 223 320 205 c 0,13,14
 320 155 320 155 346.5 112.5 c 128,-1,15
 373 70 373 70 413 70 c 0,16,17
 472 70 472 70 525 146 c 128,-1,18
 578 222 578 222 606 359 c 2,19,-1
 675 700 l 1,20,-1
 815 700 l 1,21,-1
 746 351 l 2,22,23
 728 262 728 262 728 204 c 0,24,25
 728 150 728 150 760.5 110 c 128,-1,26
 793 70 793 70 841 70 c 0,27,28
 957 70 957 70 1026 204 c 128,-1,29
 1095 338 1095 338 1095 500 c 0,30,31
 1095 691 1095 691 995.5 840 c 128,-1,32
 896 989 896 989 737 989 c 1,33,-1
 755 1042 l 1,34,35
 960 1042 960 1042 1097.5 880.5 c 128,-1,36
 1235 719 1235 719 1235 500 c 0,37,38
 1235 300 1235 300 1118.5 150 c 128,-1,39
 1002 0 1002 0 824 0 c 0,40,41
 739 0 739 0 673.5 40.5 c 128,-1,42
 608 81 608 81 597 149 c 1,0,1
EndSplineSet
EndChar

StartChar: tm_hundred
Encoding: 3057 3057 106
Width: 1166
GlyphClass: 2
Flags: W
LayerCount: 2
Fore
SplineSet
1284 700 m 1,0,-1
 1267 629 l 1,1,-1
 1117 629 l 1,2,-1
 991 0 l 1,3,-1
 851 0 l 1,4,-1
 977 629 l 1,5,-1
 770 629 l 1,6,-1
 644 0 l 1,7,-1
 504 0 l 1,8,-1
 599 472 l 2,9,10
 606 507 606 507 606 534 c 0,11,12
 606 579 606 579 589 613 c 128,-1,13
 572 647 572 647 540 647 c 0,14,15
 483 647 483 647 440 595.5 c 128,-1,16
 397 544 397 544 382 472 c 2,17,-1
 285 0 l 1,18,-1
 146 0 l 1,19,-1
 242 472 l 2,20,21
 263 577 263 577 336.5 647 c 128,-1,22
 410 717 410 717 503 717 c 0,23,24
 567 717 567 717 614 679.5 c 128,-1,25
 661 642 661 642 661 585 c 1,26,-1
 685 700 l 1,27,-1
 1284 700 l 1,0,-1
EndSplineSet
EndChar

StartChar: tm_thousand
Encoding: 3058 3058 107
Width: 1256
GlyphClass: 2
Flags: W
LayerCount: 2
Fore
SplineSet
551 316 m 1,0,-1
 280 316 l 2,1,2
 237 316 237 316 206 291 c 128,-1,3
 175 266 175 266 175 228 c 0,4,5
 175 158 175 158 245.5 114 c 128,-1,6
 316 70 316 70 402 70 c 0,7,8
 447 70 447 70 480 99.5 c 128,-1,9
 513 129 513 129 523 175 c 2,10,-1
 551 316 l 1,0,-1
615 630 m 1,11,-1
 420 630 l 1,12,-1
 371 386 l 1,13,-1
 565 386 l 1,14,-1
 615 630 l 1,11,-1
677 245 m 2,15,16
 653 125 653 125 576 62.5 c 128,-1,17
 499 0 499 0 402 0 c 0,18,19
 285 0 285 0 195 64 c 128,-1,20
 105 128 105 128 105 228 c 0,21,22
 105 294 105 294 156.5 340 c 128,-1,23
 208 386 208 386 280 386 c 2,24,-1
 304 386 l 1,25,-1
 367 700 l 1,26,-1
 997 700 l 1,27,-1
 983 630 l 1,28,-1
 755 630 l 1,29,-1
 705 386 l 1,30,-1
 1120 386 l 1,31,-1
 1105 316 l 1,32,-1
 971 316 l 1,33,-1
 945 175 l 1,34,35
 990 228 990 228 1067 228 c 0,36,37
 1134 228 1134 228 1179.5 176 c 128,-1,38
 1225 124 1225 124 1225 53 c 0,39,40
 1225 -78 1225 -78 1108 -161 c 128,-1,41
 991 -244 991 -244 840 -244 c 0,42,43
 740 -244 740 -244 542 -205 c 0,44,45
 346 -167 346 -167 244 -167 c 0,46,47
 181 -167 181 -167 134 -206.5 c 128,-1,48
 87 -246 87 -246 87 -307 c 0,49,50
 87 -384 87 -384 158 -411 c 1,51,-1
 149 -445 l 1,52,53
 82 -433 82 -433 36.5 -387 c 128,-1,54
 -9 -341 -9 -341 -9 -280 c 0,55,56
 -9 -205 -9 -205 70.5 -159.5 c 128,-1,57
 150 -114 150 -114 244 -114 c 0,58,59
 346 -114 346 -114 542 -153 c 0,60,61
 740 -192 740 -192 840 -192 c 0,62,63
 938 -192 938 -192 1011.5 -135 c 128,-1,64
 1085 -78 1085 -78 1085 9 c 0,65,66
 1085 61 1085 61 1061 100.5 c 128,-1,67
 1037 140 1037 140 997 140 c 256,68,69
 957 140 957 140 927 88 c 1,70,-1
 910 0 l 1,71,-1
 769 0 l 1,72,-1
 831 316 l 1,73,-1
 691 316 l 1,74,-1
 677 245 l 2,15,16
EndSplineSet
EndChar

StartChar: zerowidthnonjoiner
Encoding: 8204 8204 108
Width: 0
GlyphClass: 2
Flags: W
LayerCount: 2
Fore
SplineSet
315 1225 m 1,0,-1
 -34 -516 l 1,1,-1
 -103 -516 l 1,2,-1
 244 1225 l 1,3,-1
 315 1225 l 1,0,-1
EndSplineSet
EndChar

StartChar: zerowidthjoiner
Encoding: 8205 8205 109
Width: 0
GlyphClass: 2
Flags: W
LayerCount: 2
Fore
SplineSet
415 997 m 1,0,-1
 363 953 l 1,1,-1
 270 1073 l 1,2,-1
 -24 -441 l 1,3,-1
 -87 -441 l 1,4,-1
 206 1073 l 1,5,-1
 65 953 l 1,6,-1
 32 997 l 1,7,-1
 210 1145 l 1,8,-1
 89 1292 l 1,9,-1
 140 1334 l 1,10,-1
 260 1185 l 1,11,-1
 437 1334 l 1,12,-1
 472 1292 l 1,13,-1
 294 1145 l 1,14,-1
 415 997 l 1,0,-1
EndSplineSet
EndChar

StartChar: u2013
Encoding: 8211 8211 110
Width: 722
GlyphClass: 2
Flags: W
LayerCount: 2
Fore
SplineSet
733 319 m 1,0,-1
 -12 319 l 1,1,-1
 -12 370 l 1,2,-1
 733 370 l 1,3,-1
 733 319 l 1,0,-1
EndSplineSet
EndChar

StartChar: u2014
Encoding: 8212 8212 111
Width: 1284
GlyphClass: 2
Flags: W
LayerCount: 2
Fore
SplineSet
1296 318 m 1,0,-1
 -13 319 l 1,1,-1
 -13 371 l 1,2,-1
 1296 370 l 1,3,-1
 1296 318 l 1,0,-1
EndSplineSet
EndChar

StartChar: u2018
Encoding: 8216 8216 112
Width: 354
GlyphClass: 2
Flags: W
LayerCount: 2
Fore
SplineSet
324 816 m 0,0,1
 324 760 324 760 281 717 c 128,-1,2
 238 674 238 674 180 674 c 0,3,4
 118 674 118 674 75 717 c 128,-1,5
 32 760 32 760 32 834 c 0,6,7
 32 996 32 996 190 1058 c 1,8,-1
 228 1014 l 1,9,-1
 184 962 l 1,10,11
 242 962 242 962 283 921 c 128,-1,12
 324 880 324 880 324 816 c 0,0,1
EndSplineSet
EndChar

StartChar: u2019
Encoding: 8217 8217 113
Width: 354
GlyphClass: 2
Flags: W
LayerCount: 2
Fore
SplineSet
324 896 m 0,0,1
 324 734 324 734 166 672 c 1,2,-1
 128 716 l 1,3,-1
 172 768 l 1,4,5
 114 768 114 768 73 809 c 128,-1,6
 32 850 32 850 32 914 c 0,7,8
 32 968 32 968 74 1012 c 128,-1,9
 116 1056 116 1056 176 1056 c 0,10,11
 238 1056 238 1056 281 1013 c 128,-1,12
 324 970 324 970 324 896 c 0,0,1
EndSplineSet
EndChar

StartChar: u2026
Encoding: 8230 8230 116
Width: 1283
GlyphClass: 2
Flags: W
LayerCount: 2
Fore
SplineSet
265 136 m 0,0,1
 298 136 298 136 320.5 114 c 128,-1,2
 343 92 343 92 343 58 c 0,3,4
 343 26 343 26 320.5 3 c 128,-1,5
 298 -20 298 -20 265 -20 c 0,6,7
 233 -20 233 -20 210 3 c 128,-1,8
 187 26 187 26 187 58 c 0,9,10
 187 92 187 92 210 114 c 128,-1,11
 233 136 233 136 265 136 c 0,0,1
638 136 m 256,12,13
 670 136 670 136 693 114 c 128,-1,14
 716 92 716 92 716 58 c 0,15,16
 716 26 716 26 692.5 3 c 128,-1,17
 669 -20 669 -20 638 -20 c 0,18,19
 606 -20 606 -20 583 3 c 128,-1,20
 560 26 560 26 560 58 c 0,21,22
 560 92 560 92 583 114 c 128,-1,23
 606 136 606 136 638 136 c 256,12,13
1010 136 m 0,24,25
 1043 136 1043 136 1066 114 c 128,-1,26
 1089 92 1089 92 1089 58 c 0,27,28
 1089 26 1089 26 1065.5 3 c 128,-1,29
 1042 -20 1042 -20 1010 -20 c 256,30,31
 978 -20 978 -20 955.5 3 c 128,-1,32
 933 26 933 26 933 58 c 0,33,34
 933 92 933 92 955.5 114 c 128,-1,35
 978 136 978 136 1010 136 c 0,24,25
EndSplineSet
EndChar

StartChar: u2212
Encoding: 8722 8722 117
Width: 974
GlyphClass: 2
Flags: W
LayerCount: 2
Fore
SplineSet
133 450 m 1,0,-1
 133 508 l 1,1,-1
 894 508 l 1,2,-1
 894 450 l 1,3,-1
 133 450 l 1,0,-1
EndSplineSet
EndChar

StartChar: u25CC
Encoding: 9676 9676 118
Width: 1167
GlyphClass: 2
Flags: W
LayerCount: 2
Fore
SplineSet
654 665 m 0,0,1
 626 665 626 665 612 679 c 128,-1,2
 598 693 598 693 598 724 c 0,3,4
 598 746 598 746 615 762.5 c 128,-1,5
 632 779 632 779 654 779 c 0,6,7
 683 779 683 779 697.5 765 c 128,-1,8
 712 751 712 751 712 724 c 0,9,10
 712 693 712 693 697.5 679 c 128,-1,11
 683 665 683 665 654 665 c 0,0,1
840 616 m 0,12,13
 811 616 811 616 796.5 630.5 c 128,-1,14
 782 645 782 645 782 674 c 0,15,16
 782 701 782 701 796.5 715 c 128,-1,17
 811 729 811 729 840 729 c 0,18,19
 862 729 862 729 879 713 c 128,-1,20
 896 697 896 697 896 674 c 0,21,22
 896 645 896 645 882 630.5 c 128,-1,23
 868 616 868 616 840 616 c 0,12,13
470 616 m 0,24,25
 442 616 442 616 428 630.5 c 128,-1,26
 414 645 414 645 414 674 c 0,27,28
 414 697 414 697 431 713 c 128,-1,29
 448 729 448 729 470 729 c 0,30,31
 494 729 494 729 510 713 c 128,-1,32
 526 697 526 697 526 674 c 0,33,34
 526 645 526 645 512.5 630.5 c 128,-1,35
 499 616 499 616 470 616 c 0,24,25
973 482 m 0,36,37
 951 482 951 482 933.5 498 c 128,-1,38
 916 514 916 514 916 538 c 0,39,40
 916 567 916 567 930.5 581 c 128,-1,41
 945 595 945 595 973 595 c 256,42,43
 1001 595 1001 595 1014.5 581 c 128,-1,44
 1028 567 1028 567 1028 538 c 0,45,46
 1028 514 1028 514 1012 498 c 128,-1,47
 996 482 996 482 973 482 c 0,36,37
336 482 m 0,48,49
 307 482 307 482 293 495.5 c 128,-1,50
 279 509 279 509 279 538 c 256,51,52
 279 567 279 567 293 581 c 128,-1,53
 307 595 307 595 336 595 c 0,54,55
 364 595 364 595 378 581 c 128,-1,56
 392 567 392 567 392 538 c 0,57,58
 392 514 392 514 375 498 c 128,-1,59
 358 482 358 482 336 482 c 0,48,49
1024 298 m 0,60,61
 994 298 994 298 979.5 311.5 c 128,-1,62
 965 325 965 325 965 354 c 0,63,64
 965 382 965 382 979.5 396 c 128,-1,65
 994 410 994 410 1024 410 c 0,66,67
 1046 410 1046 410 1063 393 c 128,-1,68
 1080 376 1080 376 1080 354 c 0,69,70
 1080 331 1080 331 1063 314.5 c 128,-1,71
 1046 298 1046 298 1024 298 c 0,60,61
287 298 m 0,72,73
 257 298 257 298 243 311.5 c 128,-1,74
 229 325 229 325 229 354 c 0,75,76
 229 382 229 382 243 396 c 128,-1,77
 257 410 257 410 287 410 c 0,78,79
 310 410 310 410 326.5 393 c 128,-1,80
 343 376 343 376 343 354 c 0,81,82
 343 331 343 331 326.5 314.5 c 128,-1,83
 310 298 310 298 287 298 c 0,72,73
973 112 m 256,84,85
 945 112 945 112 930.5 126.5 c 128,-1,86
 916 141 916 141 916 169 c 0,87,88
 916 193 916 193 933.5 209.5 c 128,-1,89
 951 226 951 226 973 226 c 0,90,91
 996 226 996 226 1012 209.5 c 128,-1,92
 1028 193 1028 193 1028 169 c 0,93,94
 1028 141 1028 141 1014.5 126.5 c 128,-1,95
 1001 112 1001 112 973 112 c 256,84,85
336 112 m 0,96,97
 307 112 307 112 293 126.5 c 128,-1,98
 279 141 279 141 279 169 c 0,99,100
 279 198 279 198 293 212 c 128,-1,101
 307 226 307 226 336 226 c 0,102,103
 358 226 358 226 375 209.5 c 128,-1,104
 392 193 392 193 392 169 c 0,105,106
 392 141 392 141 378 126.5 c 128,-1,107
 364 112 364 112 336 112 c 0,96,97
840 -22 m 0,108,109
 811 -22 811 -22 796.5 -8 c 128,-1,110
 782 6 782 6 782 34 c 0,111,112
 782 63 782 63 796.5 78 c 128,-1,113
 811 93 811 93 840 93 c 0,114,115
 863 93 863 93 879.5 75 c 128,-1,116
 896 57 896 57 896 34 c 256,117,118
 896 11 896 11 879 -5.5 c 128,-1,119
 862 -22 862 -22 840 -22 c 0,108,109
470 -22 m 0,120,121
 448 -22 448 -22 431 -5.5 c 128,-1,122
 414 11 414 11 414 34 c 256,123,124
 414 57 414 57 430.5 75 c 128,-1,125
 447 93 447 93 470 93 c 0,126,127
 495 93 495 93 510.5 75 c 128,-1,128
 526 57 526 57 526 34 c 256,129,130
 526 11 526 11 510 -5.5 c 128,-1,131
 494 -22 494 -22 470 -22 c 0,120,121
654 -72 m 0,132,133
 632 -72 632 -72 615 -55 c 128,-1,134
 598 -38 598 -38 598 -16 c 0,135,136
 598 14 598 14 612 28.5 c 128,-1,137
 626 43 626 43 654 43 c 0,138,139
 683 43 683 43 697.5 28.5 c 128,-1,140
 712 14 712 14 712 -16 c 0,141,142
 712 -44 712 -44 697.5 -58 c 128,-1,143
 683 -72 683 -72 654 -72 c 0,132,133
EndSplineSet
EndChar

StartChar: tm_k_ikaar
Encoding: 65540 -1 119
Width: 1198
GlyphClass: 2
Flags: W
LayerCount: 2
Fore
SplineSet
1168 424 m 1,0,-1
 952 424 l 1,1,-1
 952 788 l 2,2,3
 952 870 952 870 905 921 c 128,-1,4
 858 972 858 972 776 972 c 0,5,6
 702 972 702 972 656 926 c 128,-1,7
 610 880 610 880 610 802 c 1,8,-1
 612 768 l 1,9,-1
 874 768 l 1,10,-1
 874 584 l 1,11,-1
 666 584 l 1,12,-1
 666 518 l 1,13,-1
 722 524 l 1,14,15
 826 524 826 524 903 448 c 128,-1,16
 980 372 980 372 980 264 c 0,17,18
 980 154 980 154 901 75 c 128,-1,19
 822 -4 822 -4 708 -4 c 0,20,21
 624 -4 624 -4 544 58 c 1,22,23
 450 0 450 0 344 0 c 0,24,25
 226 0 226 0 128 81 c 128,-1,26
 30 162 30 162 30 286 c 0,27,28
 30 350 30 350 63 405 c 128,-1,29
 96 460 96 460 140 484 c 1,30,-1
 140 768 l 1,31,-1
 404 768 l 1,32,-1
 402 812 l 1,33,34
 402 968 402 968 511 1077 c 128,-1,35
 620 1186 620 1186 772 1186 c 0,36,37
 934 1186 934 1186 1051 1076 c 128,-1,38
 1168 966 1168 966 1168 810 c 2,39,-1
 1168 424 l 1,0,-1
446 524 m 1,40,-1
 446 584 l 1,41,-1
 362 584 l 1,42,-1
 362 524 l 1,43,-1
 446 524 l 1,40,-1
448 286 m 2,44,-1
 448 348 l 1,45,-1
 298 348 l 2,46,47
 246 348 246 348 246 258 c 0,48,49
 246 190 246 190 348 190 c 0,50,51
 448 190 448 190 448 286 c 2,44,-1
796 260 m 1,52,53
 796 314 796 314 764 334 c 1,54,-1
 666 334 l 1,55,-1
 666 202 l 1,56,57
 682 184 682 184 718 184 c 0,58,59
 740 184 740 184 766 208 c 128,-1,60
 792 232 792 232 796 260 c 1,52,53
EndSplineSet
Ligature2: "'psts' Post Base Substitutions lookup 8 subtable" tm_ka tm_ikaar
EndChar

StartChar: tm_ng_ikaar
Encoding: 65541 -1 120
Width: 1665
GlyphClass: 2
Flags: W
LayerCount: 2
Fore
SplineSet
1620 0 m 1,0,-1
 1414 0 l 1,1,-1
 1414 748 l 2,2,3
 1414 832 1414 832 1365 890 c 128,-1,4
 1316 948 1316 948 1234 948 c 0,5,6
 1168 948 1168 948 1118 902 c 128,-1,7
 1068 856 1068 856 1068 770 c 0,8,9
 1068 710 1068 710 1110 676 c 1,10,-1
 1110 768 l 1,11,-1
 1338 768 l 1,12,-1
 1338 0 l 1,13,-1
 1336 1 l 1,14,-1
 1336 0 l 1,15,-1
 716 0 l 1,16,-1
 716 184 l 1,17,-1
 748 182 l 2,18,19
 808 182 808 182 808 236 c 0,20,21
 808 318 808 318 728 318 c 0,22,23
 638 318 638 318 638 200 c 2,24,-1
 638 0 l 1,25,-1
 394 0 l 1,26,-1
 394 562 l 1,27,-1
 296 562 l 1,28,-1
 296 0 l 1,29,-1
 70 0 l 1,30,-1
 70 768 l 1,31,-1
 836 768 l 1,32,-1
 836 548 l 1,33,-1
 638 548 l 1,34,-1
 638 498 l 1,35,36
 664 504 664 504 676 506 c 128,-1,37
 688 508 688 508 716 508 c 0,38,39
 848 508 848 508 928 416 c 0,40,41
 1000 332 1000 332 1000 180 c 1,42,-1
 1110 180 l 1,43,-1
 1110 444 l 1,44,45
 1018 444 1018 444 936 537 c 128,-1,46
 854 630 854 630 854 724 c 0,47,48
 854 926 854 926 968 1044 c 0,49,50
 1070 1152 1070 1152 1234 1152 c 256,51,52
 1398 1152 1398 1152 1509 1038 c 128,-1,53
 1620 924 1620 924 1620 774 c 2,54,-1
 1620 0 l 1,0,-1
EndSplineSet
Ligature2: "'psts' Post Base Substitutions lookup 8 subtable" tm_nga tm_ikaar
EndChar

StartChar: tm_c_ikaar
Encoding: 65542 -1 121
Width: 1216
GlyphClass: 2
Flags: W
LayerCount: 2
Fore
SplineSet
1146 28 m 1,0,-1
 936 28 l 1,1,-1
 936 758 l 2,2,3
 936 850 936 850 893 903 c 128,-1,4
 850 956 850 956 770 956 c 0,5,6
 694 956 694 956 649 910 c 128,-1,7
 604 864 604 864 604 768 c 1,8,-1
 890 768 l 1,9,-1
 890 594 l 1,10,-1
 684 594 l 1,11,-1
 684 526 l 1,12,-1
 890 526 l 1,13,-1
 890 350 l 1,14,-1
 674 350 l 1,15,-1
 676 300 l 1,16,17
 676 146 676 146 560 62 c 0,18,19
 514 32 514 32 461 16 c 128,-1,20
 408 0 408 0 342 0 c 0,21,22
 236 0 236 0 136 78 c 0,23,24
 30 162 30 162 30 280 c 0,25,26
 30 380 30 380 136 466 c 1,27,-1
 136 768 l 1,28,-1
 406 768 l 1,29,-1
 404 810 l 1,30,31
 404 956 404 956 514 1057 c 128,-1,32
 624 1158 624 1158 770 1158 c 0,33,34
 922 1158 922 1158 1034 1048 c 128,-1,35
 1146 938 1146 938 1146 786 c 2,36,-1
 1146 28 l 1,0,-1
456 526 m 1,37,-1
 456 594 l 1,38,-1
 350 594 l 1,39,-1
 350 526 l 1,40,-1
 456 526 l 1,37,-1
456 312 m 2,41,-1
 456 350 l 1,42,-1
 296 350 l 2,43,44
 246 350 246 350 246 286 c 0,45,46
 246 194 246 194 342 194 c 0,47,48
 390 194 390 194 423 228 c 128,-1,49
 456 262 456 262 456 312 c 2,41,-1
EndSplineSet
Ligature2: "'psts' Post Base Substitutions lookup 8 subtable" tm_ca tm_ikaar
EndChar

StartChar: tm_j_ikaar
Encoding: 65543 -1 122
Width: 1462
GlyphClass: 2
Flags: W
LayerCount: 2
Fore
SplineSet
1392 -64 m 1,0,-1
 1200 -64 l 1,1,-1
 1200 812 l 2,2,3
 1200 902 1200 902 1149 953 c 128,-1,4
 1098 1004 1098 1004 1026 1004 c 0,5,6
 974 1004 974 1004 933 972 c 128,-1,7
 892 940 892 940 884 888 c 1,8,9
 1002 858 1002 858 1076 742 c 0,10,11
 1140 644 1140 644 1140 540 c 0,12,13
 1140 418 1140 418 1036 326 c 1,14,15
 1114 230 1114 230 1114 124 c 0,16,17
 1114 -2 1114 -2 1012 -80 c 0,18,19
 926 -142 926 -142 820 -142 c 0,20,21
 750 -142 750 -142 677 -104 c 128,-1,22
 604 -66 604 -66 566 -20 c 1,23,-1
 706 114 l 1,24,25
 742 54 742 54 802 54 c 0,26,27
 826 54 826 54 848 73 c 128,-1,28
 870 92 870 92 870 128 c 0,29,30
 870 198 870 198 786 198 c 0,31,32
 664 198 664 198 598 112 c 1,33,-1
 522 0 l 1,34,35
 452 -96 452 -96 310 -96 c 0,36,37
 196 -96 196 -96 118 -24 c 0,38,39
 28 58 28 58 28 196 c 0,40,41
 28 240 28 240 58 292 c 128,-1,42
 88 344 88 344 122 374 c 1,43,44
 28 486 28 486 28 600 c 0,45,46
 28 732 28 732 122 823 c 128,-1,47
 216 914 216 914 342 914 c 0,48,49
 446 914 446 914 516 870 c 0,50,51
 570 838 570 838 578 808 c 1,52,53
 614 860 614 860 698 894 c 1,54,55
 698 956 698 956 725 1011 c 128,-1,56
 752 1066 752 1066 802 1110 c 0,57,58
 900 1196 900 1196 1026 1196 c 0,59,60
 1178 1196 1178 1196 1285 1093 c 128,-1,61
 1392 990 1392 990 1392 838 c 2,62,-1
 1392 -64 l 1,0,-1
510 414 m 1,63,-1
 510 622 l 1,64,65
 458 720 458 720 382 720 c 0,66,67
 366 720 366 720 358 716 c 1,68,69
 408 704 408 704 445 650 c 128,-1,70
 482 596 482 596 482 536 c 0,71,72
 482 464 482 464 430 414 c 1,73,-1
 510 414 l 1,63,-1
916 528 m 0,74,75
 916 590 916 590 879 629 c 128,-1,76
 842 668 842 668 802 668 c 256,77,78
 762 668 762 668 748 646 c 1,79,-1
 748 402 l 1,80,-1
 810 402 l 2,81,82
 838 402 838 402 877 439 c 128,-1,83
 916 476 916 476 916 528 c 0,74,75
314 536 m 0,84,85
 314 584 314 584 272 584 c 0,86,87
 220 584 220 584 220 536 c 0,88,89
 220 486 220 486 268 486 c 0,90,91
 314 486 314 486 314 536 c 0,84,85
442 230 m 1,92,-1
 318 230 l 2,93,94
 282 230 282 230 256 210 c 128,-1,95
 230 190 230 190 228 158 c 0,96,97
 228 96 228 96 294 96 c 0,98,99
 334 96 334 96 371 154 c 128,-1,100
 408 212 408 212 442 230 c 1,92,-1
EndSplineSet
Ligature2: "'psts' Post Base Substitutions lookup 8 subtable" tm_ja tm_ikaar
EndChar

StartChar: tm_ny_ikaar
Encoding: 65544 -1 123
Width: 1879
GlyphClass: 2
Flags: W
LayerCount: 2
Fore
SplineSet
1826 18 m 1,0,-1
 1616 18 l 1,1,-1
 1616 748 l 2,2,3
 1616 840 1616 840 1573 893 c 128,-1,4
 1530 946 1530 946 1450 946 c 0,5,6
 1374 946 1374 946 1329 900 c 0,7,8
 1286 856 1286 856 1284 768 c 1,9,-1
 1432 768 l 1,10,-1
 1432 572 l 1,11,-1
 1202 572 l 1,12,-1
 1202 480 l 1,13,-1
 1268 480 l 2,14,15
 1394 480 1394 480 1486 356 c 0,16,17
 1564 248 1564 248 1564 124 c 0,18,19
 1564 -110 1564 -110 1354 -230 c 0,20,21
 1286 -270 1286 -270 1130 -299 c 128,-1,22
 974 -328 974 -328 828 -328 c 0,23,24
 466 -328 466 -328 248 -156 c 128,-1,25
 30 16 30 16 30 326 c 0,26,27
 30 560 30 560 166 698 c 1,28,-1
 296 596 l 1,29,30
 214 504 214 504 214 326 c 0,31,32
 214 164 214 164 328 38 c 0,33,34
 424 -64 424 -64 566 -102 c 0,35,36
 662 -126 662 -126 832 -126 c 0,37,38
 1372 -126 1372 -126 1372 120 c 0,39,40
 1372 184 1372 184 1323 240 c 128,-1,41
 1274 296 1274 296 1220 296 c 0,42,43
 1208 294 1208 294 1202 294 c 1,44,-1
 1202 0 l 1,45,-1
 962 0 l 1,46,-1
 962 572 l 1,47,-1
 662 572 l 2,48,49
 602 572 602 572 553 523 c 128,-1,50
 504 474 504 474 492 404 c 1,51,52
 560 490 560 490 670 490 c 0,53,54
 768 490 768 490 846 418 c 128,-1,55
 924 346 924 346 924 244 c 0,56,57
 924 136 924 136 851 65 c 128,-1,58
 778 -6 778 -6 654 -6 c 0,59,60
 500 -6 500 -6 390 102 c 128,-1,61
 280 210 280 210 280 386 c 0,62,63
 280 548 280 548 396 658 c 128,-1,64
 512 768 512 768 686 768 c 2,65,-1
 1085 768 l 1,66,-1
 1084 800 l 1,67,68
 1084 946 1084 946 1194 1047 c 128,-1,69
 1304 1148 1304 1148 1450 1148 c 0,70,71
 1602 1148 1602 1148 1714 1038 c 128,-1,72
 1826 928 1826 928 1826 776 c 2,73,-1
 1826 18 l 1,0,-1
768 240 m 0,74,75
 768 320 768 320 686 320 c 0,76,77
 602 320 602 320 602 244 c 0,78,79
 602 156 602 156 684 156 c 0,80,81
 768 156 768 156 768 240 c 0,74,75
EndSplineSet
Ligature2: "'psts' Post Base Substitutions lookup 8 subtable" tm_nya tm_ikaar
EndChar

StartChar: tm_tt_ikaar
Encoding: 65545 -1 124
Width: 986
GlyphClass: 2
Flags: W
LayerCount: 2
Fore
SplineSet
972 0 m 1,0,-1
 750 0 l 1,1,-1
 690 -156 l 1,2,-1
 436 -156 l 1,3,-1
 510 0 l 1,4,-1
 70 0 l 1,5,-1
 70 768 l 1,6,-1
 306 768 l 1,7,-1
 306 226 l 1,8,-1
 590 226 l 1,9,-1
 606 256 l 1,10,11
 504 266 504 266 427 347 c 128,-1,12
 350 428 350 428 350 532 c 0,13,14
 350 644 350 644 426 727 c 128,-1,15
 502 810 502 810 608 810 c 0,16,17
 752 810 752 810 842 732 c 128,-1,18
 932 654 932 654 932 536 c 0,19,20
 932 486 932 486 894 378 c 2,21,-1
 836 226 l 1,22,-1
 972 226 l 1,23,-1
 972 0 l 1,0,-1
744 538 m 0,24,25
 744 574 744 574 712 597 c 128,-1,26
 680 620 680 620 644 620 c 256,27,28
 608 620 608 620 583 595 c 128,-1,29
 558 570 558 570 558 536 c 0,30,31
 558 504 558 504 588 476 c 0,32,33
 600 466 600 466 618 458 c 128,-1,34
 636 450 636 450 652 450 c 0,35,36
 744 450 744 450 744 538 c 0,24,25
EndSplineSet
Ligature2: "'psts' Post Base Substitutions lookup 8 subtable" tm_tta tm_ikaar
EndChar

StartChar: tm_nn_ikaar
Encoding: 65546 -1 125
Width: 2788
GlyphClass: 2
Flags: W
LayerCount: 2
Fore
SplineSet
2718 -38 m 1,0,-1
 2494 -38 l 1,1,-1
 2494 764 l 2,2,3
 2494 838 2494 838 2444 894 c 128,-1,4
 2394 950 2394 950 2318 950 c 0,5,6
 2238 950 2238 950 2188 901 c 128,-1,7
 2138 852 2138 852 2138 768 c 1,8,-1
 2436 768 l 1,9,-1
 2436 566 l 1,10,-1
 2200 566 l 1,11,-1
 2200 -38 l 1,12,-1
 1974 -38 l 1,13,-1
 1974 566 l 1,14,-1
 1866 566 l 1,15,16
 1890 542 1890 542 1909 479 c 128,-1,17
 1928 416 1928 416 1928 364 c 0,18,19
 1928 190 1928 190 1810 86 c 0,20,21
 1708 -4 1708 -4 1560 -4 c 0,22,23
 1392 -4 1392 -4 1244 150 c 1,24,25
 1208 96 1208 96 1117 49 c 128,-1,26
 1026 2 1026 2 950 2 c 0,27,28
 794 2 794 2 662 142 c 1,29,30
 638 88 638 88 574 44 c 128,-1,31
 510 0 510 0 436 0 c 0,32,33
 298 0 298 0 178 90 c 0,34,35
 30 198 30 198 30 392 c 0,36,37
 30 540 30 540 145 654 c 128,-1,38
 260 768 260 768 420 768 c 2,39,-1
 1930 768 l 1,40,41
 1930 854 1930 854 1955 924 c 128,-1,42
 1980 994 1980 994 2038 1054 c 0,43,44
 2154 1166 2154 1166 2308 1166 c 0,45,46
 2474 1166 2474 1166 2596 1055 c 128,-1,47
 2718 944 2718 944 2718 770 c 2,48,-1
 2718 -38 l 1,0,-1
610 566 m 1,49,-1
 392 566 l 2,50,51
 334 566 334 566 286 512 c 128,-1,52
 238 458 238 458 238 414 c 1,53,54
 262 444 262 444 312 470 c 0,55,56
 372 502 372 502 424 502 c 0,57,58
 514 502 514 502 566 462 c 1,59,60
 572 482 572 482 582 505 c 128,-1,61
 592 528 592 528 610 566 c 1,49,-1
1104 370 m 0,62,63
 1104 450 1104 450 1052 496 c 1,64,65
 1004 544 1004 544 928 544 c 0,66,67
 862 544 862 544 810 492 c 0,68,69
 762 440 762 440 762 368 c 0,70,71
 762 294 762 294 811 249 c 128,-1,72
 860 204 860 204 934 204 c 0,73,74
 998 204 998 204 1051 252 c 128,-1,75
 1104 300 1104 300 1104 370 c 0,62,63
1724 370 m 0,76,77
 1724 434 1724 434 1673 478 c 128,-1,78
 1622 522 1622 522 1556 522 c 0,79,80
 1492 522 1492 522 1442 475 c 128,-1,81
 1392 428 1392 428 1392 358 c 0,82,83
 1392 292 1392 292 1440 244 c 0,84,85
 1464 222 1464 222 1492 210 c 128,-1,86
 1520 198 1520 198 1556 198 c 0,87,88
 1630 198 1630 198 1678 246 c 0,89,90
 1700 270 1700 270 1712 300 c 128,-1,91
 1724 330 1724 330 1724 370 c 0,76,77
520 252 m 0,92,93
 520 330 520 330 434 330 c 0,94,95
 356 330 356 330 356 256 c 0,96,97
 356 170 356 170 436 170 c 0,98,99
 520 170 520 170 520 252 c 0,92,93
EndSplineSet
Ligature2: "'psts' Post Base Substitutions lookup 8 subtable" tm_nna tm_ikaar
EndChar

StartChar: tm_t_ikaar
Encoding: 65547 -1 126
Width: 1188
GlyphClass: 2
Flags: W
LayerCount: 2
Fore
SplineSet
1158 452 m 1,0,-1
 950 452 l 1,1,-1
 950 800 l 2,2,3
 950 866 950 866 901 915 c 128,-1,4
 852 964 852 964 782 964 c 0,5,6
 716 964 716 964 670 918 c 128,-1,7
 624 872 624 872 624 768 c 1,8,-1
 870 768 l 1,9,-1
 870 586 l 1,10,-1
 666 586 l 1,11,-1
 666 522 l 1,12,13
 680 524 680 524 704 524 c 0,14,15
 852 524 852 524 952 414 c 0,16,17
 1042 312 1042 312 1042 182 c 0,18,19
 1042 26 1042 26 938 -84 c 0,20,21
 886 -138 886 -138 823 -166 c 128,-1,22
 760 -194 760 -194 682 -194 c 2,23,-1
 22 -194 l 1,24,-1
 22 -22 l 1,25,-1
 644 -22 l 2,26,27
 716 -22 716 -22 780 37 c 128,-1,28
 844 96 844 96 844 174 c 0,29,30
 844 238 844 238 809 284 c 128,-1,31
 774 330 774 330 726 330 c 2,32,-1
 666 330 l 1,33,-1
 666 278 l 2,34,35
 666 164 666 164 558 76 c 0,36,37
 460 0 460 0 342 0 c 0,38,39
 226 0 226 0 128 75 c 128,-1,40
 30 150 30 150 30 262 c 0,41,42
 30 408 30 408 152 476 c 1,43,-1
 152 768 l 1,44,-1
 428 768 l 1,45,-1
 426 814 l 1,46,47
 426 966 426 966 536 1070 c 0,48,49
 638 1166 638 1166 786 1166 c 0,50,51
 936 1166 936 1166 1047 1057 c 128,-1,52
 1158 948 1158 948 1158 800 c 2,53,-1
 1158 452 l 1,0,-1
436 522 m 1,54,-1
 436 586 l 1,55,-1
 348 586 l 1,56,-1
 348 522 l 1,57,-1
 436 522 l 1,54,-1
438 272 m 2,58,-1
 438 330 l 1,59,-1
 264 330 l 2,60,61
 234 330 234 330 234 272 c 0,62,63
 234 204 234 204 342 204 c 0,64,65
 380 204 380 204 409 223 c 128,-1,66
 438 242 438 242 438 272 c 2,58,-1
EndSplineSet
Ligature2: "'psts' Post Base Substitutions lookup 8 subtable" tm_ta tm_ikaar
EndChar

StartChar: tm_n_ikaar
Encoding: 65548 -1 127
Width: 1224
GlyphClass: 2
Flags: W
LayerCount: 2
Fore
SplineSet
1194 452 m 1,0,-1
 980 452 l 1,1,-1
 980 818 l 2,2,3
 980 878 980 878 934 924 c 0,4,5
 882 976 882 976 806 976 c 0,6,7
 736 976 736 976 687 933 c 128,-1,8
 638 890 638 890 638 810 c 0,9,10
 638 784 638 784 642 768 c 1,11,-1
 884 768 l 1,12,-1
 884 578 l 1,13,-1
 688 578 l 1,14,-1
 688 518 l 1,15,16
 786 518 786 518 863 489 c 128,-1,17
 940 460 940 460 996 396 c 0,18,19
 1086 288 1086 288 1086 150 c 0,20,21
 1086 8 1086 8 992 -100 c 0,22,23
 884 -226 884 -226 702 -226 c 2,24,-1
 60 -226 l 1,25,-1
 60 -46 l 1,26,-1
 644 -46 l 2,27,28
 746 -46 746 -46 809 12 c 128,-1,29
 872 70 872 70 872 150 c 0,30,31
 872 216 872 216 830 270 c 128,-1,32
 788 324 788 324 714 324 c 2,33,-1
 682 324 l 1,34,-1
 682 0 l 1,35,-1
 462 0 l 1,36,-1
 462 578 l 1,37,-1
 298 578 l 1,38,-1
 298 0 l 1,39,-1
 70 0 l 1,40,-1
 70 768 l 1,41,-1
 444 768 l 1,42,-1
 440 822 l 1,43,44
 440 976 440 976 546 1080 c 128,-1,45
 652 1184 652 1184 796 1184 c 0,46,47
 962 1184 962 1184 1078 1076 c 128,-1,48
 1194 968 1194 968 1194 816 c 2,49,-1
 1194 452 l 1,0,-1
EndSplineSet
Ligature2: "'psts' Post Base Substitutions lookup 8 subtable" tm_na tm_ikaar
EndChar

StartChar: tm_nnn_ikaar
Encoding: 65549 -1 128
Width: 2192
GlyphClass: 2
Flags: W
LayerCount: 2
Fore
SplineSet
2122 -22 m 1,0,-1
 1910 -22 l 1,1,-1
 1910 754 l 2,2,3
 1910 832 1910 832 1860 888 c 128,-1,4
 1810 944 1810 944 1730 944 c 0,5,6
 1672 944 1672 944 1618 902 c 0,7,8
 1570 860 1570 860 1570 800 c 0,9,10
 1570 780 1570 780 1574 768 c 1,11,-1
 1842 768 l 1,12,-1
 1842 562 l 1,13,-1
 1606 562 l 1,14,-1
 1606 -22 l 1,15,-1
 1378 -22 l 1,16,-1
 1378 562 l 1,17,-1
 1258 562 l 1,18,19
 1326 488 1326 488 1326 360 c 0,20,21
 1326 220 1326 220 1234 114 c 0,22,23
 1132 -6 1132 -6 956 -6 c 0,24,25
 776 -6 776 -6 654 142 c 1,26,27
 576 0 576 0 422 0 c 0,28,29
 252 0 252 0 141 112 c 128,-1,30
 30 224 30 224 30 392 c 0,31,32
 30 544 30 544 135 656 c 128,-1,33
 240 768 240 768 396 768 c 2,34,-1
 1356 768 l 1,35,36
 1356 854 1356 854 1381 921 c 128,-1,37
 1406 988 1406 988 1468 1046 c 0,38,39
 1584 1152 1584 1152 1728 1152 c 0,40,41
 1898 1152 1898 1152 2010 1042 c 128,-1,42
 2122 932 2122 932 2122 768 c 2,43,-1
 2122 -22 l 1,0,-1
640 564 m 1,44,-1
 416 564 l 2,45,46
 344 564 344 564 290 522 c 0,47,48
 242 480 242 480 234 424 c 1,49,50
 256 456 256 456 309 481 c 128,-1,51
 362 506 362 506 406 506 c 0,52,53
 454 506 454 506 512 484 c 0,54,55
 570 466 570 466 592 436 c 1,56,57
 592 478 592 478 640 564 c 1,44,-1
1118 368 m 0,58,59
 1118 436 1118 436 1069 482 c 128,-1,60
 1020 528 1020 528 950 528 c 256,61,62
 880 528 880 528 830 480 c 128,-1,63
 780 432 780 432 780 360 c 0,64,65
 780 282 780 282 823 234 c 128,-1,66
 866 186 866 186 940 186 c 0,67,68
 1018 186 1018 186 1068 239 c 128,-1,69
 1118 292 1118 292 1118 368 c 0,58,59
506 234 m 0,70,71
 506 260 506 260 483 284 c 128,-1,72
 460 308 460 308 434 308 c 0,73,74
 406 308 406 308 386 286 c 128,-1,75
 366 264 366 264 364 232 c 0,76,77
 364 170 364 170 440 170 c 0,78,79
 506 170 506 170 506 234 c 0,70,71
EndSplineSet
Ligature2: "'psts' Post Base Substitutions lookup 8 subtable" tm_nnna tm_ikaar
EndChar

StartChar: tm_p_ikaar
Encoding: 65550 -1 129
Width: 1230
GlyphClass: 2
Flags: W
LayerCount: 2
Fore
SplineSet
1160 0 m 1,0,-1
 954 0 l 1,1,-1
 954 748 l 2,2,3
 954 832 954 832 905 890 c 128,-1,4
 856 948 856 948 774 948 c 0,5,6
 708 948 708 948 658 902 c 128,-1,7
 608 856 608 856 608 770 c 0,8,9
 608 710 608 710 650 676 c 1,10,-1
 650 768 l 1,11,-1
 878 768 l 1,12,-1
 878 0 l 1,13,-1
 70 0 l 1,14,-1
 70 768 l 1,15,-1
 290 768 l 1,16,-1
 290 184 l 1,17,-1
 650 184 l 1,18,-1
 650 444 l 1,19,20
 558 444 558 444 476 537 c 128,-1,21
 394 630 394 630 394 724 c 0,22,23
 394 926 394 926 508 1044 c 0,24,25
 610 1152 610 1152 774 1152 c 256,26,27
 938 1152 938 1152 1049 1038 c 128,-1,28
 1160 924 1160 924 1160 774 c 2,29,-1
 1160 0 l 1,0,-1
EndSplineSet
Ligature2: "'psts' Post Base Substitutions lookup 8 subtable" tm_pa tm_ikaar
EndChar

StartChar: tm_m_ikaar
Encoding: 65551 -1 130
Width: 1480
GlyphClass: 2
Flags: W
LayerCount: 2
Fore
SplineSet
1410 0 m 1,0,-1
 1202 0 l 1,1,-1
 1202 764 l 2,2,3
 1202 834 1202 834 1148 893 c 128,-1,4
 1094 952 1094 952 1022 952 c 0,5,6
 956 952 956 952 904 906 c 128,-1,7
 852 860 852 860 852 776 c 1,8,-1
 854 740 l 1,9,10
 972 710 972 710 1054 602 c 128,-1,11
 1136 494 1136 494 1136 372 c 0,12,13
 1136 226 1136 226 1051 127 c 128,-1,14
 966 28 966 28 840 0 c 1,15,-1
 70 0 l 1,16,-1
 70 768 l 1,17,-1
 308 768 l 1,18,-1
 308 194 l 1,19,-1
 436 194 l 1,20,-1
 436 620 l 1,21,22
 506 722 506 722 656 752 c 1,23,-1
 652 804 l 1,24,25
 652 954 652 954 761 1057 c 128,-1,26
 870 1160 870 1160 1022 1160 c 0,27,28
 1188 1160 1188 1160 1304 1038 c 0,29,30
 1410 926 1410 926 1410 792 c 2,31,-1
 1410 0 l 1,0,-1
928 368 m 0,32,33
 928 434 928 434 879 491 c 128,-1,34
 830 548 830 548 762 548 c 0,35,36
 692 548 692 548 646 512 c 1,37,-1
 646 194 l 1,38,-1
 812 194 l 1,39,40
 928 262 928 262 928 368 c 0,32,33
EndSplineSet
Ligature2: "'psts' Post Base Substitutions lookup 8 subtable" tm_ma tm_ikaar
EndChar

StartChar: tm_y_ikaar
Encoding: 65552 -1 131
Width: 1486
GlyphClass: 2
Flags: W
LayerCount: 2
Fore
SplineSet
1416 0 m 1,0,-1
 1208 0 l 1,1,-1
 1208 758 l 2,2,3
 1208 846 1208 846 1160 905 c 128,-1,4
 1112 964 1112 964 1032 964 c 0,5,6
 958 964 958 964 916 919 c 128,-1,7
 874 874 874 874 874 800 c 0,8,9
 874 712 874 712 906 666 c 1,10,-1
 906 768 l 1,11,-1
 1126 768 l 1,12,-1
 1126 0 l 1,13,-1
 400 0 l 1,14,-1
 400 86 l 1,15,-1
 270 0 l 1,16,-1
 70 0 l 1,17,-1
 70 768 l 1,18,-1
 270 768 l 1,19,-1
 270 230 l 1,20,-1
 406 308 l 1,21,-1
 406 768 l 1,22,-1
 624 768 l 1,23,-1
 624 204 l 1,24,-1
 906 204 l 1,25,-1
 906 394 l 1,26,27
 802 444 802 444 732 550 c 128,-1,28
 662 656 662 656 662 796 c 0,29,30
 662 956 662 956 770 1065 c 128,-1,31
 878 1174 878 1174 1030 1174 c 0,32,33
 1198 1174 1198 1174 1307 1058 c 128,-1,34
 1416 942 1416 942 1416 780 c 2,35,-1
 1416 0 l 1,0,-1
EndSplineSet
Ligature2: "'psts' Post Base Substitutions lookup 8 subtable" tm_ya tm_ikaar
EndChar

StartChar: tm_r_ikaar
Encoding: 65553 -1 132
Width: 1210
GlyphClass: 2
Flags: W
LayerCount: 2
Fore
SplineSet
934 564 m 1,0,-1
 740 564 l 1,1,-1
 740 -318 l 1,2,-1
 -14 -318 l 1,3,-1
 -14 -88 l 1,4,-1
 498 -88 l 1,5,-1
 498 564 l 1,6,-1
 296 564 l 1,7,-1
 296 0 l 1,8,-1
 70 0 l 1,9,-1
 70 768 l 1,10,-1
 438 768 l 1,11,12
 438 844 438 844 461 906 c 128,-1,13
 484 968 484 968 536 1022 c 0,14,15
 642 1130 642 1130 792 1130 c 0,16,17
 954 1130 954 1130 1068 1004 c 0,18,19
 1170 890 1170 890 1170 754 c 2,20,-1
 1170 0 l 1,21,-1
 964 0 l 1,22,-1
 964 732 l 2,23,24
 964 828 964 828 904 886 c 0,25,26
 880 908 880 908 852 920 c 128,-1,27
 824 932 824 932 788 932 c 0,28,29
 730 932 730 932 682 886 c 0,30,31
 656 864 656 864 646 835 c 128,-1,32
 636 806 636 806 636 768 c 1,33,-1
 934 768 l 1,34,-1
 934 564 l 1,0,-1
EndSplineSet
Ligature2: "'psts' Post Base Substitutions lookup 8 subtable" tm_ra tm_ikaar
EndChar

StartChar: tm_rr_ikaar
Encoding: 65554 -1 133
Width: 1412
GlyphClass: 2
Flags: W
LayerCount: 2
Fore
SplineSet
1342 -12 m 1,0,-1
 1128 -12 l 1,1,-1
 1128 750 l 2,2,3
 1128 816 1128 816 1075 866 c 128,-1,4
 1022 916 1022 916 962 916 c 0,5,6
 896 916 896 916 843 867 c 128,-1,7
 790 818 790 818 790 734 c 1,8,9
 916 682 916 682 1006 549 c 128,-1,10
 1096 416 1096 416 1096 264 c 0,11,12
 1096 48 1096 48 932 -102 c 0,13,14
 782 -240 782 -240 596 -240 c 2,15,-1
 34 -240 l 1,16,-1
 34 -56 l 1,17,-1
 590 -56 l 2,18,19
 672 -56 672 -56 768 28 c 0,20,21
 876 124 876 124 876 254 c 0,22,23
 876 374 876 374 809 467 c 128,-1,24
 742 560 742 560 624 590 c 1,25,-1
 624 0 l 1,26,-1
 408 0 l 1,27,-1
 408 516 l 2,28,29
 408 586 408 586 344 586 c 256,30,31
 280 586 280 586 280 494 c 2,32,-1
 280 0 l 1,33,-1
 70 0 l 1,34,-1
 70 606 l 1,35,36
 142 774 142 774 322 774 c 0,37,38
 454 774 454 774 494 714 c 1,39,40
 532 736 532 736 596 752 c 1,41,42
 596 904 596 904 697 1012 c 128,-1,43
 798 1120 798 1120 958 1120 c 0,44,45
 1122 1120 1122 1120 1238 998 c 0,46,47
 1342 884 1342 884 1342 752 c 2,48,-1
 1342 -12 l 1,0,-1
EndSplineSet
Ligature2: "'psts' Post Base Substitutions lookup 8 subtable" tm_rra tm_ikaar
EndChar

StartChar: tm_l_ikaar
Encoding: 65555 -1 134
Width: 1544
GlyphClass: 2
Flags: W
LayerCount: 2
Fore
SplineSet
1474 -36 m 1,0,-1
 1284 -36 l 1,1,-1
 1284 634 l 2,2,3
 1284 706 1284 706 1242 756 c 128,-1,4
 1200 806 1200 806 1126 806 c 0,5,6
 1070 806 1070 806 1026 772 c 128,-1,7
 982 738 982 738 976 670 c 1,8,9
 1092 642 1092 642 1174 554 c 0,10,11
 1266 456 1266 456 1266 326 c 0,12,13
 1266 178 1266 178 1165 81 c 128,-1,14
 1064 -16 1064 -16 920 -16 c 0,15,16
 740 -16 740 -16 602 172 c 1,17,-1
 602 400 l 1,18,19
 590 452 590 452 536 486 c 0,20,21
 506 504 506 504 484 511 c 128,-1,22
 462 518 462 518 430 518 c 0,23,24
 362 518 362 518 302 488 c 128,-1,25
 242 458 242 458 216 396 c 1,26,27
 274 454 274 454 364 454 c 0,28,29
 462 454 462 454 526 390 c 1,30,31
 592 330 592 330 592 236 c 0,32,33
 592 138 592 138 524 69 c 128,-1,34
 456 0 456 0 356 0 c 0,35,36
 238 0 238 0 138 88 c 0,37,38
 30 182 30 182 30 320 c 0,39,40
 30 468 30 468 138 570 c 128,-1,41
 246 672 246 672 410 672 c 0,42,43
 546 672 546 672 664 594 c 0,44,45
 760 528 760 528 790 448 c 1,46,-1
 790 240 l 1,47,48
 814 166 814 166 906 166 c 0,49,50
 966 166 966 166 1014 206 c 0,51,52
 1072 254 1072 254 1072 334 c 0,53,54
 1072 420 1072 420 1006 462 c 1,55,-1
 876 516 l 2,56,57
 782 558 782 558 782 630 c 0,58,59
 782 786 782 786 885 888 c 128,-1,60
 988 990 988 990 1122 990 c 0,61,62
 1274 990 1274 990 1378 886 c 0,63,64
 1474 790 1474 790 1474 656 c 2,65,-1
 1474 -36 l 1,0,-1
446 228 m 256,66,67
 446 304 446 304 374 304 c 0,68,69
 346 304 346 304 320 281 c 128,-1,70
 294 258 294 258 294 228 c 256,71,72
 294 198 294 198 318 174 c 0,73,74
 340 156 340 156 374 152 c 1,75,76
 446 152 446 152 446 228 c 256,66,67
EndSplineSet
Ligature2: "'psts' Post Base Substitutions lookup 8 subtable" tm_la tm_ikaar
EndChar

StartChar: tm_ll_ikaar
Encoding: 65556 -1 135
Width: 1912
GlyphClass: 2
Flags: W
LayerCount: 2
Fore
SplineSet
1842 0 m 1,0,-1
 1642 0 l 1,1,-1
 1642 748 l 2,2,3
 1642 822 1642 822 1590 877 c 128,-1,4
 1538 932 1538 932 1472 932 c 256,5,6
 1406 932 1406 932 1358 894 c 128,-1,7
 1310 856 1310 856 1310 788 c 0,8,9
 1312 774 1312 774 1312 768 c 1,10,-1
 1572 768 l 1,11,-1
 1572 584 l 1,12,-1
 1324 584 l 1,13,-1
 1324 0 l 1,14,-1
 1102 0 l 1,15,-1
 1102 584 l 1,16,-1
 944 584 l 1,17,-1
 944 0 l 1,18,-1
 730 0 l 1,19,-1
 730 412 l 2,20,21
 730 488 730 488 662 550 c 128,-1,22
 594 612 594 612 494 612 c 0,23,24
 422 612 422 612 340 558 c 0,25,26
 268 506 268 506 258 444 c 1,27,28
 336 534 336 534 446 534 c 0,29,30
 546 534 546 534 621 460 c 128,-1,31
 696 386 696 386 696 278 c 0,32,33
 696 168 696 168 616 95 c 128,-1,34
 536 22 536 22 408 22 c 0,35,36
 272 22 272 22 160 112 c 0,37,38
 30 218 30 218 30 402 c 0,39,40
 30 580 30 580 180 706 c 0,41,42
 312 814 312 814 456 814 c 0,43,44
 540 814 540 814 612 788 c 128,-1,45
 684 762 684 762 746 708 c 1,46,-1
 746 768 l 1,47,-1
 1100 768 l 1,48,49
 1100 918 1100 918 1202 1020 c 0,50,51
 1316 1130 1316 1130 1460 1130 c 0,52,53
 1628 1130 1628 1130 1742 1016 c 1,54,55
 1842 910 1842 910 1842 776 c 2,56,-1
 1842 0 l 1,0,-1
522 272 m 0,57,58
 522 360 522 360 444 360 c 0,59,60
 408 360 408 360 385 334 c 128,-1,61
 362 308 362 308 362 270 c 0,62,63
 362 194 362 194 440 194 c 0,64,65
 522 194 522 194 522 272 c 0,57,58
EndSplineSet
Ligature2: "'psts' Post Base Substitutions lookup 8 subtable" tm_lla tm_ikaar
EndChar

StartChar: tm_lll_ikaar
Encoding: 65557 -1 136
Width: 1378
GlyphClass: 2
Flags: W
LayerCount: 2
Fore
SplineSet
1308 0 m 1,0,-1
 1110 0 l 1,1,-1
 1110 736 l 2,2,3
 1110 802 1110 802 1060 852 c 128,-1,4
 1010 902 1010 902 948 902 c 0,5,6
 880 902 880 902 830 858 c 0,7,8
 780 810 780 810 780 726 c 0,9,10
 782 710 782 710 782 702 c 1,11,12
 908 670 908 670 980 570 c 0,13,14
 1046 480 1046 480 1046 360 c 0,15,16
 1046 212 1046 212 952 110 c 0,17,18
 852 0 852 0 686 0 c 2,19,-1
 622 0 l 1,20,21
 674 -78 674 -78 740 -78 c 1,22,-1
 740 -238 l 1,23,24
 706 -244 706 -244 680 -244 c 0,25,26
 622 -244 622 -244 574 -212 c 1,27,28
 562 -262 562 -262 494 -324 c 0,29,30
 400 -406 400 -406 274 -406 c 0,31,32
 140 -406 140 -406 39 -319 c 128,-1,33
 -62 -232 -62 -232 -80 -110 c 1,34,-1
 108 -110 l 1,35,36
 114 -148 114 -148 152 -182 c 0,37,38
 198 -218 198 -218 256 -218 c 0,39,40
 322 -218 322 -218 372 -174 c 128,-1,41
 422 -130 422 -130 422 -58 c 0,42,43
 422 -30 422 -30 414 0 c 1,44,-1
 70 0 l 1,45,-1
 70 768 l 1,46,-1
 274 768 l 1,47,-1
 274 176 l 1,48,-1
 386 176 l 1,49,-1
 386 584 l 1,50,51
 404 628 404 628 461 670 c 128,-1,52
 518 712 518 712 590 724 c 1,53,54
 590 808 590 808 611 872 c 128,-1,55
 632 936 632 936 684 992 c 0,56,57
 788 1096 788 1096 936 1096 c 0,58,59
 1096 1096 1096 1096 1208 984 c 0,60,61
 1308 880 1308 880 1308 762 c 2,62,-1
 1308 0 l 1,0,-1
842 372 m 0,63,64
 842 440 842 440 795 493 c 128,-1,65
 748 546 748 546 686 546 c 0,66,67
 632 546 632 546 604 532 c 1,68,-1
 604 184 l 1,69,-1
 648 178 l 1,70,71
 724 178 724 178 783 231 c 128,-1,72
 842 284 842 284 842 372 c 0,63,64
EndSplineSet
Ligature2: "'psts' Post Base Substitutions lookup 8 subtable" tm_llla tm_ikaar
EndChar

StartChar: tm_v_ikaar
Encoding: 65558 -1 137
Width: 1594
GlyphClass: 2
Flags: W
LayerCount: 2
Fore
SplineSet
1524 0 m 1,0,-1
 1320 0 l 1,1,-1
 1320 722 l 2,2,3
 1320 788 1320 788 1274 846 c 0,4,5
 1222 906 1222 906 1146 906 c 0,6,7
 1080 906 1080 906 1030 859 c 128,-1,8
 980 812 980 812 980 732 c 0,9,10
 980 678 980 678 1028 648 c 1,11,-1
 1028 768 l 1,12,-1
 1254 768 l 1,13,-1
 1254 0 l 1,14,-1
 652 0 l 1,15,-1
 652 188 l 1,16,17
 696 250 696 250 696 350 c 0,18,19
 696 454 696 454 627 527 c 128,-1,20
 558 600 558 600 452 600 c 0,21,22
 342 600 342 600 264 529 c 128,-1,23
 186 458 186 458 186 356 c 1,24,25
 206 402 206 402 252 442 c 0,26,27
 316 500 316 500 396 500 c 0,28,29
 504 500 504 500 577 427 c 128,-1,30
 650 354 650 354 650 254 c 0,31,32
 650 142 650 142 582 77 c 128,-1,33
 514 12 514 12 396 12 c 0,34,35
 260 12 260 12 150 110 c 0,36,37
 30 218 30 218 30 382 c 0,38,39
 30 550 30 550 155 666 c 128,-1,40
 280 782 280 782 462 782 c 0,41,42
 668 782 668 782 792 638 c 1,43,44
 788 650 788 650 783 674 c 128,-1,45
 778 698 778 698 776 712 c 0,46,47
 776 892 776 892 888 1002 c 0,48,49
 992 1100 992 1100 1140 1100 c 0,50,51
 1304 1100 1304 1100 1414 993 c 128,-1,52
 1524 886 1524 886 1524 744 c 2,53,-1
 1524 0 l 1,0,-1
1028 178 m 1,54,-1
 1028 426 l 1,55,56
 942 434 942 434 874 500 c 1,57,58
 896 444 896 444 896 368 c 0,59,60
 896 324 896 324 883 262 c 128,-1,61
 870 200 870 200 852 178 c 1,62,-1
 1028 178 l 1,54,-1
484 260 m 0,63,64
 484 290 484 290 460 316 c 128,-1,65
 436 342 436 342 402 344 c 0,66,67
 372 344 372 344 345 318 c 128,-1,68
 318 292 318 292 318 260 c 0,69,70
 318 232 318 232 342 202 c 0,71,72
 366 178 366 178 402 178 c 0,73,74
 432 178 432 178 458 202 c 128,-1,75
 484 226 484 226 484 260 c 0,63,64
EndSplineSet
Ligature2: "'psts' Post Base Substitutions lookup 8 subtable" tm_va tm_ikaar
EndChar

StartChar: tm_ss_ikaar
Encoding: 65559 -1 138
Width: 1890
GlyphClass: 2
Flags: W
LayerCount: 2
Fore
SplineSet
1820 72 m 1,0,-1
 1618 72 l 1,1,-1
 1618 792 l 2,2,3
 1618 858 1618 858 1572 910 c 128,-1,4
 1526 962 1526 962 1452 962 c 0,5,6
 1386 962 1386 962 1338 912 c 0,7,8
 1294 862 1294 862 1294 798 c 1,9,-1
 1296 770 l 1,10,11
 1386 752 1386 752 1444 676 c 128,-1,12
 1502 600 1502 600 1502 500 c 0,13,14
 1502 454 1502 454 1400 178 c 1,15,-1
 1518 178 l 1,16,-1
 1518 0 l 1,17,-1
 1340 0 l 1,18,-1
 1282 -158 l 1,19,-1
 1032 -158 l 1,20,-1
 1106 0 l 1,21,-1
 584 0 l 1,22,-1
 584 148 l 1,23,24
 678 206 678 206 678 334 c 0,25,26
 678 436 678 436 614 503 c 128,-1,27
 550 570 550 570 452 570 c 0,28,29
 322 570 322 570 262 492 c 1,30,-1
 352 504 l 1,31,32
 450 504 450 504 525 433 c 128,-1,33
 600 362 600 362 600 248 c 0,34,35
 600 150 600 150 520 78 c 128,-1,36
 440 6 440 6 344 6 c 0,37,38
 244 6 244 6 146 92 c 0,39,40
 30 192 30 192 30 338 c 0,41,42
 30 524 30 524 143 631 c 128,-1,43
 256 738 256 738 438 738 c 0,44,45
 618 738 618 738 739 629 c 128,-1,46
 860 520 860 520 860 354 c 0,47,48
 860 248 860 248 812 178 c 1,49,-1
 1164 178 l 1,50,-1
 1194 236 l 1,51,52
 948 276 948 276 948 524 c 0,53,54
 948 594 948 594 996 664 c 128,-1,55
 1044 734 1044 734 1114 758 c 1,56,57
 1102 794 1102 794 1102 824 c 0,58,59
 1102 956 1102 956 1196 1052 c 0,60,61
 1300 1156 1300 1156 1450 1156 c 0,62,63
 1618 1156 1618 1156 1726 1030 c 0,64,65
 1820 920 1820 920 1820 782 c 2,66,-1
 1820 72 l 1,0,-1
1322 508 m 0,67,68
 1322 544 1322 544 1294 566 c 128,-1,69
 1266 588 1266 588 1228 588 c 0,70,71
 1196 588 1196 588 1170 564 c 128,-1,72
 1144 540 1144 540 1144 508 c 0,73,74
 1144 474 1144 474 1174 446 c 1,75,76
 1206 424 1206 424 1244 424 c 0,77,78
 1322 424 1322 424 1322 508 c 0,67,68
448 242 m 0,79,80
 448 328 448 328 368 328 c 0,81,82
 340 328 340 328 316 302 c 0,83,84
 296 276 296 276 296 242 c 0,85,86
 296 168 296 168 370 168 c 0,87,88
 448 168 448 168 448 242 c 0,79,80
EndSplineSet
Ligature2: "'psts' Post Base Substitutions lookup 8 subtable" tm_ssa tm_ikaar
EndChar

StartChar: tm_s_ikaar
Encoding: 65560 -1 139
Width: 1950
GlyphClass: 2
Flags: W
LayerCount: 2
Fore
SplineSet
1880 0 m 1,0,-1
 1670 0 l 1,1,-1
 1670 708 l 2,2,3
 1670 798 1670 798 1623 857 c 128,-1,4
 1576 916 1576 916 1498 916 c 0,5,6
 1424 916 1424 916 1380 868 c 128,-1,7
 1336 820 1336 820 1336 752 c 1,8,9
 1444 740 1444 740 1536 622 c 0,10,11
 1580 566 1580 566 1604 508 c 128,-1,12
 1628 450 1628 450 1628 390 c 0,13,14
 1628 220 1628 220 1526 107 c 128,-1,15
 1424 -6 1424 -6 1270 -6 c 0,16,17
 1146 -6 1146 -6 1050 60 c 0,18,19
 970 118 970 118 932 214 c 1,20,-1
 932 578 l 1,21,22
 920 596 920 596 894 596 c 0,23,24
 874 596 874 596 862 568 c 1,25,-1
 862 0 l 1,26,-1
 650 0 l 1,27,-1
 650 408 l 1,28,29
 622 480 622 480 557 523 c 128,-1,30
 492 566 492 566 428 566 c 0,31,32
 346 566 346 566 282 510 c 0,33,34
 228 460 228 460 208 386 c 1,35,36
 282 490 282 490 414 490 c 0,37,38
 508 490 508 490 578 419 c 128,-1,39
 648 348 648 348 648 246 c 0,40,41
 648 138 648 138 571 69 c 128,-1,42
 494 0 494 0 382 0 c 0,43,44
 244 0 244 0 137 111 c 128,-1,45
 30 222 30 222 30 376 c 0,46,47
 30 550 30 550 148 662 c 0,48,49
 260 764 260 764 416 764 c 0,50,51
 522 764 522 764 608 708 c 1,52,-1
 684 644 l 1,53,54
 696 682 696 682 740 716 c 0,55,56
 804 770 804 770 896 770 c 0,57,58
 996 770 996 770 1068 704 c 128,-1,59
 1140 638 1140 638 1140 560 c 2,60,-1
 1140 252 l 1,61,62
 1196 196 1196 196 1266 196 c 0,63,64
 1330 196 1330 196 1382 236 c 0,65,66
 1446 284 1446 284 1446 370 c 0,67,68
 1446 486 1446 486 1330 560 c 2,69,-1
 1200 642 l 1,70,71
 1136 696 1136 696 1136 780 c 0,72,73
 1136 916 1136 916 1244 1014 c 128,-1,74
 1352 1112 1352 1112 1494 1112 c 0,75,76
 1672 1112 1672 1112 1782 990 c 0,77,78
 1880 880 1880 880 1880 730 c 2,79,-1
 1880 0 l 1,0,-1
502 242 m 0,80,81
 502 266 502 266 477 299 c 128,-1,82
 452 332 452 332 420 332 c 0,83,84
 384 332 384 332 357 306 c 128,-1,85
 330 280 330 280 330 242 c 0,86,87
 330 212 330 212 358 184 c 1,88,89
 388 160 388 160 422 160 c 0,90,91
 450 160 450 160 476 184 c 128,-1,92
 502 208 502 208 502 242 c 0,80,81
EndSplineSet
Ligature2: "'psts' Post Base Substitutions lookup 8 subtable" tm_sa tm_ikaar
EndChar

StartChar: tm_h_ikaar
Encoding: 65561 -1 140
Width: 2316
GlyphClass: 2
Flags: W
LayerCount: 2
Fore
SplineSet
2246 0 m 1,0,-1
 2048 0 l 1,1,-1
 2048 740 l 2,2,3
 2048 806 2048 806 1993 854 c 128,-1,4
 1938 902 1938 902 1876 902 c 0,5,6
 1824 902 1824 902 1772 860 c 0,7,8
 1716 810 1716 810 1716 740 c 1,9,-1
 1718 710 l 1,10,11
 1846 670 1846 670 1928 562 c 0,12,13
 2018 442 2018 442 2018 276 c 0,14,15
 2018 60 2018 60 1878 -74 c 128,-1,16
 1738 -208 1738 -208 1526 -208 c 2,17,-1
 158 -208 l 1,18,-1
 158 -38 l 1,19,-1
 1552 -38 l 2,20,21
 1648 -38 1648 -38 1734 50 c 128,-1,22
 1820 138 1820 138 1820 258 c 0,23,24
 1820 370 1820 370 1737 465 c 128,-1,25
 1654 560 1654 560 1556 560 c 0,26,27
 1528 560 1528 560 1494 548 c 1,28,-1
 1494 0 l 1,29,-1
 1286 0 l 1,30,-1
 1286 538 l 1,31,32
 1274 568 1274 568 1248 570 c 0,33,34
 1206 570 1206 570 1194 546 c 1,35,-1
 1194 0 l 1,36,-1
 646 0 l 1,37,-1
 646 200 l 1,38,39
 628 126 628 126 560 72 c 0,40,41
 522 44 522 44 483 30 c 128,-1,42
 444 16 444 16 396 16 c 0,43,44
 280 16 280 16 172 98 c 0,45,46
 30 200 30 200 30 378 c 0,47,48
 30 546 30 546 154 669 c 128,-1,49
 278 792 278 792 464 792 c 0,50,51
 642 792 642 792 780 668 c 128,-1,52
 918 544 918 544 918 342 c 0,53,54
 918 278 918 278 884 190 c 1,55,-1
 1002 190 l 1,56,-1
 1002 638 l 1,57,58
 1080 768 1080 768 1220 768 c 0,59,60
 1262 768 1262 768 1320 746 c 128,-1,61
 1378 724 1378 724 1402 698 c 1,62,63
 1440 730 1440 730 1514 730 c 1,64,65
 1514 804 1514 804 1541 870 c 128,-1,66
 1568 936 1568 936 1618 990 c 0,67,68
 1714 1092 1714 1092 1866 1092 c 0,69,70
 2028 1092 2028 1092 2137 995 c 128,-1,71
 2246 898 2246 898 2246 772 c 2,72,-1
 2246 0 l 1,0,-1
712 358 m 0,73,74
 712 466 712 466 636 537 c 128,-1,75
 560 608 560 608 456 608 c 0,76,77
 354 608 354 608 286 548 c 128,-1,78
 218 488 218 488 202 388 c 1,79,80
 296 506 296 506 398 506 c 0,81,82
 498 506 498 506 575 437 c 128,-1,83
 652 368 652 368 652 250 c 1,84,-1
 646 200 l 1,85,-1
 686 246 l 1,86,87
 712 292 712 292 712 358 c 0,73,74
488 250 m 0,88,89
 488 280 488 280 464 306 c 128,-1,90
 440 332 440 332 408 332 c 0,91,92
 378 332 378 332 353 307 c 128,-1,93
 328 282 328 282 328 250 c 0,94,95
 328 222 328 222 352 196 c 128,-1,96
 376 170 376 170 408 170 c 0,97,98
 436 170 436 170 462 194 c 128,-1,99
 488 218 488 218 488 250 c 0,88,89
EndSplineSet
Ligature2: "'psts' Post Base Substitutions lookup 8 subtable" tm_ha tm_ikaar
EndChar

StartChar: tm_k_iikaar
Encoding: 65562 -1 141
Width: 1008
GlyphClass: 2
Flags: W
LayerCount: 2
Fore
SplineSet
978 272 m 0,0,1
 978 160 978 160 893 78 c 128,-1,2
 808 -4 808 -4 708 -4 c 0,3,4
 622 -4 622 -4 540 58 c 1,5,6
 430 0 430 0 344 0 c 0,7,8
 232 0 232 0 136 78 c 0,9,10
 30 162 30 162 30 288 c 0,11,12
 30 348 30 348 68 412 c 0,13,14
 98 466 98 466 140 490 c 1,15,-1
 140 768 l 1,16,-1
 356 768 l 1,17,18
 296 880 296 880 296 1006 c 0,19,20
 296 1138 296 1138 388 1230 c 128,-1,21
 480 1322 480 1322 614 1322 c 0,22,23
 724 1322 724 1322 809 1255 c 128,-1,24
 894 1188 894 1188 894 1084 c 0,25,26
 894 1000 894 1000 828 936 c 128,-1,27
 762 872 762 872 668 872 c 0,28,29
 554 872 554 872 484 978 c 1,30,31
 484 946 484 946 492 916 c 128,-1,32
 500 886 500 886 520 854 c 1,33,-1
 590 768 l 1,34,-1
 866 768 l 1,35,-1
 866 588 l 1,36,-1
 662 588 l 1,37,-1
 662 518 l 1,38,-1
 720 526 l 1,39,40
 816 526 816 526 897 451 c 128,-1,41
 978 376 978 376 978 272 c 0,0,1
712 1070 m 0,42,43
 712 1110 712 1110 666 1110 c 0,44,45
 652 1110 652 1110 636 1092 c 0,46,47
 626 1076 626 1076 622 1056 c 1,48,49
 622 1016 622 1016 666 1016 c 0,50,51
 712 1016 712 1016 712 1070 c 0,42,43
446 526 m 1,52,-1
 446 588 l 1,53,-1
 356 588 l 1,54,-1
 356 526 l 1,55,-1
 446 526 l 1,52,-1
446 268 m 2,56,-1
 446 348 l 1,57,-1
 302 348 l 2,58,59
 244 348 244 348 244 272 c 0,60,61
 244 190 244 190 346 190 c 0,62,63
 384 190 384 190 415 211 c 128,-1,64
 446 232 446 232 446 268 c 2,56,-1
788 266 m 1,65,66
 788 338 788 338 744 338 c 2,67,-1
 662 338 l 1,68,-1
 662 204 l 1,69,70
 674 192 674 192 706 188 c 0,71,72
 732 188 732 188 758 211 c 128,-1,73
 784 234 784 234 788 266 c 1,65,66
EndSplineSet
Ligature2: "'abvs' Above Base Substitutions lookup 6 subtable" tm_ka tm_iikaar
EndChar

StartChar: tm_ng_iikaar
Encoding: 65563 -1 142
Width: 1408
GlyphClass: 2
Flags: W
LayerCount: 2
Fore
SplineSet
1380 1030 m 0,0,1
 1380 924 1380 924 1302 866 c 0,2,3
 1272 844 1272 844 1236 832 c 128,-1,4
 1200 820 1200 820 1154 820 c 0,5,6
 1094 820 1094 820 1048 855 c 128,-1,7
 1002 890 1002 890 982 938 c 1,8,-1
 976 888 l 1,9,10
 976 806 976 806 1034 736 c 0,11,12
 1069 695 1069 695 1110 670 c 1,13,-1
 1110 768 l 1,14,-1
 1336 768 l 1,15,-1
 1336 0 l 1,16,-1
 716 0 l 1,17,-1
 716 184 l 1,18,-1
 748 182 l 2,19,20
 808 182 808 182 808 236 c 0,21,22
 808 318 808 318 728 318 c 0,23,24
 638 318 638 318 638 200 c 2,25,-1
 638 0 l 1,26,-1
 394 0 l 1,27,-1
 394 562 l 1,28,-1
 296 562 l 1,29,-1
 296 0 l 1,30,-1
 70 0 l 1,31,-1
 70 768 l 1,32,-1
 801 768 l 1,33,34
 778 846 778 846 778 944 c 0,35,36
 778 1068 778 1068 872 1171 c 128,-1,37
 966 1274 966 1274 1090 1274 c 0,38,39
 1206 1274 1206 1274 1293 1203 c 128,-1,40
 1380 1132 1380 1132 1380 1030 c 0,0,1
638 548 m 1,41,-1
 638 498 l 1,42,43
 664 504 664 504 676 506 c 128,-1,44
 688 508 688 508 716 508 c 0,45,46
 848 508 848 508 928 416 c 0,47,48
 1000 332 1000 332 1000 180 c 1,49,-1
 1110 180 l 1,50,-1
 1110 475 l 1,51,52
 917 535 917 535 836 684 c 1,53,-1
 836 548 l 1,54,-1
 638 548 l 1,41,-1
1208 1016 m 0,55,56
 1208 1054 1208 1054 1160 1054 c 0,57,58
 1146 1054 1146 1054 1131 1036 c 128,-1,59
 1116 1018 1116 1018 1112 1000 c 1,60,61
 1112 966 1112 966 1160 966 c 256,62,63
 1208 966 1208 966 1208 1016 c 0,55,56
EndSplineSet
Ligature2: "'abvs' Above Base Substitutions lookup 6 subtable" tm_nga tm_iikaar
EndChar

StartChar: tm_c_iikaar
Encoding: 65564 -1 143
Width: 898
GlyphClass: 2
Flags: W
LayerCount: 2
Fore
SplineSet
884 350 m 1,0,-1
 666 350 l 1,1,-1
 670 290 l 1,2,3
 670 146 670 146 556 64 c 0,4,5
 462 0 462 0 334 0 c 0,6,7
 232 0 232 0 136 78 c 0,8,9
 30 166 30 166 30 282 c 0,10,11
 30 394 30 394 138 466 c 1,12,-1
 138 768 l 1,13,-1
 390 768 l 1,14,15
 312 862 312 862 312 1006 c 0,16,17
 312 1124 312 1124 402 1216 c 128,-1,18
 492 1308 492 1308 618 1308 c 0,19,20
 730 1308 730 1308 806 1243 c 128,-1,21
 882 1178 882 1178 882 1076 c 0,22,23
 882 998 882 998 816 934 c 0,24,25
 752 876 752 876 666 876 c 0,26,27
 566 876 566 876 494 974 c 1,28,29
 494 878 494 878 612 768 c 1,30,-1
 884 768 l 1,31,-1
 884 594 l 1,32,-1
 672 594 l 1,33,-1
 672 526 l 1,34,-1
 884 526 l 1,35,-1
 884 350 l 1,0,-1
710 1066 m 1,36,37
 710 1104 710 1104 666 1104 c 0,38,39
 650 1104 650 1104 637 1088 c 128,-1,40
 624 1072 624 1072 624 1054 c 0,41,42
 624 1014 624 1014 666 1014 c 0,43,44
 682 1014 682 1014 694 1029 c 128,-1,45
 706 1044 706 1044 710 1066 c 1,36,37
454 526 m 1,46,-1
 454 594 l 1,47,-1
 350 594 l 1,48,-1
 350 526 l 1,49,-1
 454 526 l 1,46,-1
450 314 m 2,50,-1
 450 350 l 1,51,-1
 288 350 l 2,52,53
 274 350 274 350 256 330 c 0,54,55
 246 314 246 314 242 286 c 1,56,57
 242 196 242 196 340 196 c 0,58,59
 386 196 386 196 418 232 c 128,-1,60
 450 268 450 268 450 314 c 2,50,-1
EndSplineSet
Ligature2: "'abvs' Above Base Substitutions lookup 6 subtable" tm_ca tm_iikaar
EndChar

StartChar: tm_j_iikaar
Encoding: 65565 -1 144
Width: 1164
GlyphClass: 2
Flags: W
LayerCount: 2
Fore
SplineSet
1210 1118 m 0,0,1
 1210 926 1210 926 1000 926 c 0,2,3
 868 926 868 926 814 1072 c 1,4,-1
 806 1026 l 1,5,6
 806 946 806 946 852 888 c 1,7,8
 986 888 986 888 1070 758 c 0,9,10
 1102 708 1102 708 1117 660 c 128,-1,11
 1132 612 1132 612 1132 558 c 0,12,13
 1132 488 1132 488 1101 427 c 128,-1,14
 1070 366 1070 366 1028 342 c 1,15,16
 1062 318 1062 318 1089 255 c 128,-1,17
 1116 192 1116 192 1116 138 c 0,18,19
 1116 30 1116 30 1030 -51 c 128,-1,20
 944 -132 944 -132 834 -132 c 0,21,22
 656 -132 656 -132 580 -6 c 1,23,-1
 714 122 l 1,24,25
 754 68 754 68 812 68 c 0,26,27
 874 68 874 68 874 140 c 0,28,29
 874 210 874 210 790 210 c 0,30,31
 664 210 664 210 576 78 c 1,32,33
 564 48 564 48 516 -18 c 1,34,35
 446 -96 446 -96 318 -96 c 0,36,37
 206 -96 206 -96 123 -16 c 128,-1,38
 40 64 40 64 40 172 c 0,39,40
 40 236 40 236 76 306 c 0,41,42
 102 356 102 356 130 380 c 1,43,44
 30 486 30 486 30 604 c 0,45,46
 30 742 30 742 125 828 c 128,-1,47
 220 914 220 914 354 914 c 0,48,49
 440 914 440 914 508 876 c 0,50,51
 526 866 526 866 544 850 c 0,52,53
 556 840 556 840 596 804 c 1,54,-1
 680 870 l 1,55,56
 640 960 640 960 640 1060 c 0,57,58
 640 1180 640 1180 730 1264 c 128,-1,59
 820 1348 820 1348 940 1348 c 0,60,61
 1046 1348 1046 1348 1128 1281 c 128,-1,62
 1210 1214 1210 1214 1210 1118 c 0,0,1
1044 1108 m 0,63,64
 1044 1144 1044 1144 1000 1144 c 0,65,66
 984 1144 984 1144 971 1131 c 128,-1,67
 958 1118 958 1118 954 1098 c 1,68,69
 954 1060 954 1060 1006 1060 c 0,70,71
 1044 1060 1044 1060 1044 1108 c 0,63,64
506 424 m 1,72,-1
 506 624 l 1,73,74
 444 734 444 734 344 724 c 1,75,76
 394 712 394 712 438 657 c 128,-1,77
 482 602 482 602 482 544 c 0,78,79
 482 456 482 456 432 424 c 1,80,-1
 506 424 l 1,72,-1
912 540 m 0,81,82
 912 594 912 594 877 636 c 128,-1,83
 842 678 842 678 796 678 c 0,84,85
 762 678 762 678 750 660 c 1,86,-1
 750 418 l 1,87,-1
 808 418 l 2,88,89
 840 418 840 418 876 455 c 128,-1,90
 912 492 912 492 912 540 c 0,81,82
312 536 m 0,91,92
 312 588 312 588 272 588 c 0,93,94
 224 588 224 588 224 536 c 0,95,96
 224 488 224 488 272 488 c 0,97,98
 312 488 312 488 312 536 c 0,91,92
448 232 m 1,99,-1
 332 232 l 2,100,101
 302 232 302 232 268 208 c 0,102,103
 242 186 242 186 240 156 c 0,104,105
 240 130 240 130 260 116 c 128,-1,106
 280 102 280 102 306 98 c 1,107,108
 348 98 348 98 380 150 c 0,109,110
 414 214 414 214 448 232 c 1,99,-1
EndSplineSet
Ligature2: "'abvs' Above Base Substitutions lookup 6 subtable" tm_ja tm_iikaar
EndChar

StartChar: tm_ny_iikaar
Encoding: 65566 -1 145
Width: 1607
GlyphClass: 2
Flags: W
LayerCount: 2
Fore
SplineSet
1564 124 m 0,0,1
 1564 -110 1564 -110 1354 -230 c 0,2,3
 1286 -270 1286 -270 1130 -299 c 128,-1,4
 974 -328 974 -328 828 -328 c 0,5,6
 466 -328 466 -328 248 -156 c 128,-1,7
 30 16 30 16 30 326 c 0,8,9
 30 560 30 560 166 698 c 1,10,-1
 296 596 l 1,11,12
 214 504 214 504 214 326 c 0,13,14
 214 164 214 164 328 38 c 0,15,16
 424 -64 424 -64 566 -102 c 0,17,18
 662 -126 662 -126 832 -126 c 0,19,20
 1372 -126 1372 -126 1372 120 c 0,21,22
 1372 184 1372 184 1323 240 c 128,-1,23
 1274 296 1274 296 1220 296 c 0,24,25
 1208 294 1208 294 1202 294 c 1,26,-1
 1202 0 l 1,27,-1
 962 0 l 1,28,-1
 962 572 l 1,29,-1
 662 572 l 2,30,31
 602 572 602 572 553 523 c 128,-1,32
 504 474 504 474 492 404 c 1,33,34
 560 490 560 490 670 490 c 0,35,36
 768 490 768 490 846 418 c 128,-1,37
 924 346 924 346 924 244 c 0,38,39
 924 136 924 136 851 65 c 128,-1,40
 778 -6 778 -6 654 -6 c 0,41,42
 500 -6 500 -6 390 102 c 128,-1,43
 280 210 280 210 280 386 c 0,44,45
 280 548 280 548 396 658 c 128,-1,46
 512 768 512 768 686 768 c 2,47,-1
 982 768 l 1,48,49
 912 859 912 859 912 996 c 0,50,51
 912 1114 912 1114 1002 1206 c 128,-1,52
 1092 1298 1092 1298 1218 1298 c 0,53,54
 1330 1298 1330 1298 1406 1233 c 128,-1,55
 1482 1168 1482 1168 1482 1066 c 0,56,57
 1482 988 1482 988 1416 924 c 0,58,59
 1352 866 1352 866 1266 866 c 0,60,61
 1166 866 1166 866 1094 964 c 1,62,63
 1094 872 1094 872 1201 768 c 1,64,-1
 1432 768 l 1,65,-1
 1432 572 l 1,66,-1
 1202 572 l 1,67,-1
 1202 480 l 1,68,-1
 1268 480 l 2,69,70
 1394 480 1394 480 1486 356 c 0,71,72
 1564 248 1564 248 1564 124 c 0,0,1
768 240 m 0,73,74
 768 320 768 320 686 320 c 0,75,76
 602 320 602 320 602 244 c 0,77,78
 602 156 602 156 684 156 c 0,79,80
 768 156 768 156 768 240 c 0,73,74
1310 1056 m 1,81,82
 1310 1094 1310 1094 1266 1094 c 0,83,84
 1250 1094 1250 1094 1237 1078 c 128,-1,85
 1224 1062 1224 1062 1224 1044 c 0,86,87
 1224 1004 1224 1004 1266 1004 c 0,88,89
 1282 1004 1282 1004 1294 1019 c 128,-1,90
 1306 1034 1306 1034 1310 1056 c 1,81,82
EndSplineSet
Ligature2: "'abvs' Above Base Substitutions lookup 6 subtable" tm_nya tm_iikaar
EndChar

StartChar: tm_tt_iikaar
Encoding: 65567 -1 146
Width: 1006
GlyphClass: 2
Flags: W
LayerCount: 2
Fore
SplineSet
992 574 m 0,0,1
 992 484 992 484 924 419 c 128,-1,2
 856 354 856 354 766 354 c 0,3,4
 692 354 692 354 634 410 c 1,5,6
 634 348 634 348 734 287 c 128,-1,7
 834 226 834 226 930 226 c 2,8,-1
 984 226 l 1,9,-1
 984 0 l 1,10,-1
 70 0 l 1,11,-1
 70 768 l 1,12,-1
 304 768 l 1,13,-1
 304 226 l 1,14,-1
 538 226 l 1,15,16
 430 326 430 326 430 462 c 0,17,18
 430 608 430 608 523 700 c 128,-1,19
 616 792 616 792 750 792 c 0,20,21
 848 792 848 792 920 733 c 128,-1,22
 992 674 992 674 992 574 c 0,0,1
822 552 m 0,23,24
 822 568 822 568 809 580 c 128,-1,25
 796 592 796 592 776 596 c 1,26,27
 732 596 732 596 732 546 c 0,28,29
 732 502 732 502 772 502 c 0,30,31
 822 502 822 502 822 552 c 0,23,24
EndSplineSet
Ligature2: "'abvs' Above Base Substitutions lookup 5 subtable" tm_tta tm_iikaar
EndChar

StartChar: tm_nn_iikaar
Encoding: 65568 -1 147
Width: 2458
GlyphClass: 2
Flags: W
LayerCount: 2
Fore
SplineSet
2444 568 m 1,0,-1
 2208 568 l 1,1,-1
 2208 -46 l 1,2,-1
 1964 -46 l 1,3,-1
 1964 568 l 1,4,-1
 1864 568 l 1,5,6
 1924 490 1924 490 1924 366 c 0,7,8
 1924 198 1924 198 1806 92 c 0,9,10
 1700 -2 1700 -2 1558 -2 c 0,11,12
 1392 -2 1392 -2 1246 156 c 1,13,14
 1204 102 1204 102 1132 60 c 0,15,16
 1044 8 1044 8 956 8 c 0,17,18
 864 8 864 8 786 48 c 1,19,20
 714 80 714 80 676 134 c 1,21,22
 564 0 564 0 448 0 c 0,23,24
 276 0 276 0 156 108 c 0,25,26
 30 222 30 222 30 400 c 0,27,28
 30 534 30 534 145 651 c 128,-1,29
 260 768 260 768 404 768 c 2,30,-1
 1880 768 l 1,31,32
 1798 896 1798 896 1798 1044 c 0,33,34
 1798 1174 1798 1174 1889 1273 c 128,-1,35
 1980 1372 1980 1372 2122 1372 c 0,36,37
 2244 1372 2244 1372 2333 1301 c 128,-1,38
 2422 1230 2422 1230 2422 1124 c 256,39,40
 2422 1018 2422 1018 2348 958 c 0,41,42
 2284 906 2284 906 2192 906 c 0,43,44
 2046 906 2046 906 1992 1050 c 1,45,-1
 1988 1010 l 1,46,47
 1988 906 1988 906 2106 768 c 1,48,-1
 2444 768 l 1,49,-1
 2444 568 l 1,0,-1
2238 1112 m 1,50,51
 2238 1148 2238 1148 2184 1148 c 0,52,53
 2172 1148 2172 1148 2158 1131 c 128,-1,54
 2144 1114 2144 1114 2144 1096 c 0,55,56
 2144 1056 2144 1056 2190 1056 c 0,57,58
 2208 1056 2208 1056 2221 1072 c 128,-1,59
 2234 1088 2234 1088 2238 1112 c 1,50,51
612 570 m 1,60,-1
 404 570 l 2,61,62
 344 570 344 570 290 522 c 0,63,64
 244 476 244 476 244 422 c 1,65,66
 268 452 268 452 318 476 c 0,67,68
 376 506 376 506 430 506 c 0,69,70
 528 506 528 506 566 460 c 1,71,72
 574 498 574 498 586 526 c 128,-1,73
 598 554 598 554 612 570 c 1,60,-1
1104 376 m 0,74,75
 1104 438 1104 438 1057 492 c 128,-1,76
 1010 546 1010 546 942 546 c 0,77,78
 872 546 872 546 816 490 c 128,-1,79
 760 434 760 434 760 372 c 0,80,81
 760 302 760 302 820 250 c 0,82,83
 874 208 874 208 940 208 c 256,84,85
 1006 208 1006 208 1055 257 c 128,-1,86
 1104 306 1104 306 1104 376 c 0,74,75
1714 368 m 0,87,88
 1714 440 1714 440 1668 483 c 128,-1,89
 1622 526 1622 526 1556 526 c 256,90,91
 1490 526 1490 526 1441 483 c 128,-1,92
 1392 440 1392 440 1392 362 c 0,93,94
 1392 296 1392 296 1440 244 c 0,95,96
 1464 222 1464 222 1492 210 c 128,-1,97
 1520 198 1520 198 1556 198 c 0,98,99
 1622 198 1622 198 1668 250 c 128,-1,100
 1714 302 1714 302 1714 368 c 0,87,88
518 248 m 0,101,102
 518 332 518 332 436 332 c 0,103,104
 402 332 402 332 375 307 c 128,-1,105
 348 282 348 282 348 250 c 0,106,107
 348 162 348 162 432 162 c 0,108,109
 518 162 518 162 518 248 c 0,101,102
EndSplineSet
Ligature2: "'abvs' Above Base Substitutions lookup 6 subtable" tm_nna tm_iikaar
EndChar

StartChar: tm_t_iikaar
Encoding: 65569 -1 148
Width: 1076
GlyphClass: 2
Flags: W
LayerCount: 2
Fore
SplineSet
1046 184 m 0,0,1
 1046 20 1046 20 946 -87 c 128,-1,2
 846 -194 846 -194 688 -194 c 2,3,-1
 20 -194 l 1,4,-1
 20 -18 l 1,5,-1
 648 -18 l 2,6,7
 734 -18 734 -18 792 37 c 128,-1,8
 850 92 850 92 850 156 c 0,9,10
 850 326 850 326 740 326 c 2,11,-1
 668 326 l 1,12,-1
 668 272 l 2,13,14
 668 156 668 156 564 78 c 128,-1,15
 460 0 460 0 346 0 c 256,16,17
 232 0 232 0 138 70 c 0,18,19
 30 148 30 148 30 266 c 0,20,21
 30 414 30 414 154 482 c 1,22,-1
 154 768 l 1,23,-1
 426 768 l 1,24,25
 394 808 394 808 371 883 c 128,-1,26
 348 958 348 958 348 1004 c 0,27,28
 348 1120 348 1120 432 1214 c 128,-1,29
 516 1308 516 1308 652 1308 c 0,30,31
 776 1308 776 1308 851 1247 c 128,-1,32
 926 1186 926 1186 926 1082 c 0,33,34
 926 996 926 996 866 938 c 0,35,36
 806 884 806 884 706 884 c 0,37,38
 580 884 580 884 532 1004 c 1,39,-1
 528 976 l 1,40,41
 528 880 528 880 640 768 c 1,42,-1
 868 768 l 1,43,-1
 868 592 l 1,44,-1
 668 592 l 1,45,-1
 668 522 l 1,46,47
 764 522 764 522 835 497 c 128,-1,48
 906 472 906 472 960 414 c 0,49,50
 1046 312 1046 312 1046 184 c 0,0,1
752 1072 m 0,51,52
 752 1110 752 1110 714 1110 c 0,53,54
 698 1110 698 1110 683 1092 c 128,-1,55
 668 1074 668 1074 664 1056 c 1,56,57
 664 1022 664 1022 710 1022 c 0,58,59
 752 1022 752 1022 752 1072 c 0,51,52
442 522 m 1,60,-1
 442 592 l 1,61,-1
 352 592 l 1,62,-1
 352 522 l 1,63,-1
 442 522 l 1,60,-1
442 266 m 2,64,-1
 442 336 l 1,65,-1
 278 336 l 2,66,67
 232 336 232 336 232 282 c 0,68,69
 232 252 232 252 262 224 c 1,70,71
 294 202 294 202 336 202 c 0,72,73
 376 202 376 202 408 220 c 128,-1,74
 440 238 440 238 442 266 c 2,64,-1
EndSplineSet
Ligature2: "'abvs' Above Base Substitutions lookup 6 subtable" tm_ta tm_iikaar
EndChar

StartChar: tm_n_iikaar
Encoding: 65570 -1 149
Width: 1104
GlyphClass: 2
Flags: W
LayerCount: 2
Fore
SplineSet
1074 148 m 0,0,1
 1074 6 1074 6 986 -102 c 0,2,3
 884 -228 884 -228 706 -228 c 2,4,-1
 64 -228 l 1,5,-1
 64 -46 l 1,6,-1
 632 -46 l 2,7,8
 864 -46 864 -46 864 150 c 0,9,10
 864 218 864 218 830 264 c 0,11,12
 786 320 786 320 718 320 c 2,13,-1
 680 320 l 1,14,-1
 680 0 l 1,15,-1
 454 0 l 1,16,-1
 454 580 l 1,17,-1
 292 580 l 1,18,-1
 292 0 l 1,19,-1
 70 0 l 1,20,-1
 70 768 l 1,21,-1
 436 768 l 1,22,23
 372 868 372 868 372 992 c 0,24,25
 372 1100 372 1100 452 1194 c 0,26,27
 546 1302 546 1302 690 1302 c 0,28,29
 808 1302 808 1302 884 1238 c 0,30,31
 960 1178 960 1178 960 1074 c 0,32,33
 960 964 960 964 884 908 c 0,34,35
 824 866 824 866 734 866 c 0,36,37
 608 866 608 866 564 976 c 1,38,-1
 560 948 l 1,39,40
 560 868 560 868 660 768 c 1,41,-1
 876 768 l 1,42,-1
 876 576 l 1,43,-1
 684 576 l 1,44,-1
 684 520 l 1,45,46
 784 520 784 520 856 491 c 128,-1,47
 928 462 928 462 984 396 c 0,48,49
 1074 288 1074 288 1074 148 c 0,0,1
782 1062 m 0,50,51
 782 1094 782 1094 744 1094 c 0,52,53
 726 1094 726 1094 710 1078 c 0,54,55
 700 1064 700 1064 696 1046 c 1,56,57
 696 1006 696 1006 740 1006 c 0,58,59
 782 1006 782 1006 782 1062 c 0,50,51
EndSplineSet
Ligature2: "'abvs' Above Base Substitutions lookup 6 subtable" tm_na tm_iikaar
EndChar

StartChar: tm_nnn_iikaar
Encoding: 65571 -1 150
Width: 1830
GlyphClass: 2
Flags: W
LayerCount: 2
Fore
SplineSet
1816 562 m 1,0,-1
 1600 562 l 1,1,-1
 1600 -24 l 1,2,-1
 1376 -24 l 1,3,-1
 1376 562 l 1,4,-1
 1254 562 l 1,5,6
 1272 546 1272 546 1298 476 c 128,-1,7
 1324 406 1324 406 1324 354 c 0,8,9
 1324 188 1324 188 1200 82 c 0,10,11
 1090 -12 1090 -12 960 -12 c 0,12,13
 774 -12 774 -12 646 134 c 1,14,15
 572 0 572 0 414 0 c 0,16,17
 246 0 246 0 138 114 c 128,-1,18
 30 228 30 228 30 398 c 0,19,20
 30 550 30 550 136 659 c 128,-1,21
 242 768 242 768 398 768 c 2,22,-1
 1300 768 l 1,23,24
 1266 800 1266 800 1240 868 c 0,25,26
 1216 940 1216 940 1216 1022 c 0,27,28
 1216 1156 1216 1156 1308 1244 c 128,-1,29
 1400 1332 1400 1332 1526 1332 c 0,30,31
 1644 1332 1644 1332 1728 1266 c 128,-1,32
 1812 1200 1812 1200 1812 1090 c 0,33,34
 1812 994 1812 994 1749 940 c 128,-1,35
 1686 886 1686 886 1590 886 c 0,36,37
 1524 886 1524 886 1474 923 c 128,-1,38
 1424 960 1424 960 1404 1018 c 1,39,-1
 1402 984 l 1,40,41
 1402 870 1402 870 1510 768 c 1,42,-1
 1816 768 l 1,43,-1
 1816 562 l 1,0,-1
1634 1080 m 0,44,45
 1634 1118 1634 1118 1590 1118 c 0,46,47
 1574 1118 1574 1118 1559 1101 c 128,-1,48
 1544 1084 1544 1084 1540 1062 c 1,49,50
 1540 1028 1540 1028 1592 1028 c 0,51,52
 1634 1028 1634 1028 1634 1080 c 0,44,45
640 568 m 1,53,-1
 412 568 l 2,54,55
 340 568 340 568 289 524 c 128,-1,56
 238 480 238 480 232 422 c 1,57,58
 254 454 254 454 309 478 c 128,-1,59
 364 502 364 502 408 502 c 0,60,61
 454 502 454 502 510 483 c 128,-1,62
 566 464 566 464 588 434 c 1,63,64
 594 480 594 480 640 568 c 1,53,-1
1116 366 m 0,65,66
 1116 434 1116 434 1069 480 c 128,-1,67
 1022 526 1022 526 950 526 c 0,68,69
 880 526 880 526 826 478 c 1,70,71
 776 428 776 428 776 354 c 0,72,73
 776 274 776 274 822 227 c 128,-1,74
 868 180 868 180 940 180 c 0,75,76
 1008 180 1008 180 1062 234 c 128,-1,77
 1116 288 1116 288 1116 366 c 0,65,66
504 230 m 0,78,79
 504 258 504 258 481 282 c 128,-1,80
 458 306 458 306 430 306 c 0,81,82
 404 306 404 306 384 284 c 128,-1,83
 364 262 364 262 362 230 c 0,84,85
 362 206 362 206 383 187 c 128,-1,86
 404 168 404 168 434 168 c 0,87,88
 504 168 504 168 504 230 c 0,78,79
EndSplineSet
Ligature2: "'abvs' Above Base Substitutions lookup 6 subtable" tm_nnna tm_iikaar
EndChar

StartChar: tm_p_iikaar
Encoding: 65572 -1 151
Width: 938
GlyphClass: 2
Flags: W
LayerCount: 2
Fore
SplineSet
900 1030 m 0,0,1
 900 924 900 924 822 866 c 0,2,3
 792 844 792 844 756 832 c 128,-1,4
 720 820 720 820 674 820 c 0,5,6
 614 820 614 820 568 855 c 128,-1,7
 522 890 522 890 502 938 c 1,8,-1
 496 888 l 1,9,10
 496 806 496 806 554 736 c 0,11,12
 594 690 594 690 642 664 c 1,13,-1
 642 768 l 1,14,-1
 868 768 l 1,15,-1
 868 0 l 1,16,-1
 70 0 l 1,17,-1
 70 768 l 1,18,-1
 290 768 l 1,19,-1
 290 186 l 1,20,-1
 640 186 l 1,21,-1
 640 472 l 1,22,23
 298 572 298 572 298 944 c 0,24,25
 298 1068 298 1068 392 1171 c 128,-1,26
 486 1274 486 1274 610 1274 c 0,27,28
 726 1274 726 1274 813 1203 c 128,-1,29
 900 1132 900 1132 900 1030 c 0,0,1
728 1016 m 0,30,31
 728 1054 728 1054 680 1054 c 0,32,33
 666 1054 666 1054 651 1036 c 128,-1,34
 636 1018 636 1018 632 1000 c 1,35,36
 632 966 632 966 680 966 c 256,37,38
 728 966 728 966 728 1016 c 0,30,31
EndSplineSet
Ligature2: "'abvs' Above Base Substitutions lookup 6 subtable" tm_pa tm_iikaar
EndChar

StartChar: tm_m_iikaar
Encoding: 65573 -1 152
Width: 1186
GlyphClass: 2
Flags: W
LayerCount: 2
Fore
SplineSet
1156 374 m 0,0,1
 1156 234 1156 234 1067 129 c 128,-1,2
 978 24 978 24 846 0 c 1,3,-1
 70 0 l 1,4,-1
 70 768 l 1,5,-1
 312 768 l 1,6,-1
 312 192 l 1,7,-1
 440 192 l 1,8,-1
 440 624 l 1,9,10
 470 682 470 682 580 738 c 1,11,12
 552 766 552 766 522 836 c 0,13,14
 512 864 512 864 504 902 c 128,-1,15
 496 940 496 940 496 972 c 0,16,17
 496 1096 496 1096 582 1196 c 0,18,19
 678 1308 678 1308 830 1308 c 0,20,21
 950 1308 950 1308 1032 1238 c 128,-1,22
 1114 1168 1114 1168 1114 1064 c 0,23,24
 1114 968 1114 968 1043 909 c 128,-1,25
 972 850 972 850 876 850 c 0,26,27
 816 850 816 850 758 894 c 0,28,29
 718 924 718 924 694 968 c 1,30,31
 684 866 684 866 782 768 c 1,32,33
 950 750 950 750 1056 632 c 0,34,35
 1156 522 1156 522 1156 374 c 0,0,1
932 1054 m 0,36,37
 932 1094 932 1094 888 1094 c 0,38,39
 872 1094 872 1094 857 1077 c 128,-1,40
 842 1060 842 1060 838 1038 c 1,41,42
 838 1000 838 1000 882 1000 c 0,43,44
 932 1000 932 1000 932 1054 c 0,36,37
942 376 m 0,45,46
 942 442 942 442 893 497 c 128,-1,47
 844 552 844 552 772 552 c 0,48,49
 688 552 688 552 654 520 c 1,50,-1
 654 192 l 1,51,-1
 814 192 l 1,52,53
 942 256 942 256 942 376 c 0,45,46
EndSplineSet
Ligature2: "'abvs' Above Base Substitutions lookup 6 subtable" tm_ma tm_iikaar
EndChar

StartChar: tm_y_iikaar
Encoding: 65574 -1 153
Width: 1186
GlyphClass: 2
Flags: W
LayerCount: 2
Fore
SplineSet
1160 1068 m 0,0,1
 1160 986 1160 986 1098 927 c 128,-1,2
 1036 868 1036 868 944 868 c 0,3,4
 890 868 890 868 839 897 c 128,-1,5
 788 926 788 926 772 966 c 1,6,7
 768 934 768 934 776 902 c 128,-1,8
 784 870 784 870 806 826 c 0,9,10
 848 748 848 748 890 736 c 1,11,-1
 890 768 l 1,12,-1
 1116 768 l 1,13,-1
 1116 0 l 1,14,-1
 396 0 l 1,15,-1
 396 92 l 1,16,-1
 270 0 l 1,17,-1
 70 0 l 1,18,-1
 70 768 l 1,19,-1
 270 768 l 1,20,-1
 270 228 l 1,21,-1
 398 308 l 1,22,-1
 398 768 l 1,23,-1
 604 768 l 1,24,-1
 604 210 l 1,25,-1
 896 210 l 1,26,-1
 896 532 l 1,27,28
 776 574 776 574 696 660 c 0,29,30
 570 790 570 790 570 992 c 0,31,32
 570 1102 570 1102 646 1190 c 0,33,34
 734 1296 734 1296 880 1296 c 0,35,36
 996 1296 996 1296 1078 1229 c 128,-1,37
 1160 1162 1160 1162 1160 1068 c 0,0,1
988 1056 m 0,38,39
 988 1070 988 1070 972 1084 c 0,40,41
 962 1096 962 1096 940 1098 c 0,42,43
 926 1098 926 1098 908 1080 c 1,44,45
 898 1064 898 1064 894 1044 c 1,46,47
 894 1008 894 1008 944 1008 c 0,48,49
 956 1008 956 1008 970 1022 c 128,-1,50
 984 1036 984 1036 988 1056 c 0,38,39
EndSplineSet
Ligature2: "'abvs' Above Base Substitutions lookup 6 subtable" tm_ya tm_iikaar
EndChar

StartChar: tm_r_iikaar
Encoding: 65575 -1 154
Width: 954
GlyphClass: 2
Flags: W
LayerCount: 2
Fore
SplineSet
934 564 m 1,0,-1
 740 564 l 1,1,-1
 740 -318 l 1,2,-1
 -14 -318 l 1,3,-1
 -14 -88 l 1,4,-1
 498 -88 l 1,5,-1
 498 564 l 1,6,-1
 296 564 l 1,7,-1
 296 0 l 1,8,-1
 70 0 l 1,9,-1
 70 768 l 1,10,-1
 448 768 l 1,11,12
 362 890 362 890 362 1010 c 0,13,14
 362 1122 362 1122 438 1210 c 0,15,16
 526 1314 526 1314 672 1314 c 0,17,18
 786 1314 786 1314 865 1247 c 128,-1,19
 944 1180 944 1180 944 1086 c 0,20,21
 944 998 944 998 878 938 c 0,22,23
 814 884 814 884 716 884 c 0,24,25
 654 884 654 884 602 928 c 0,26,27
 560 964 560 964 546 996 c 1,28,-1
 542 974 l 1,29,30
 542 932 542 932 584 862 c 0,31,32
 624 802 624 802 670 768 c 1,33,-1
 934 768 l 1,34,-1
 934 564 l 1,0,-1
770 1074 m 0,35,36
 770 1112 770 1112 722 1112 c 0,37,38
 706 1112 706 1112 694 1094 c 128,-1,39
 682 1076 682 1076 678 1056 c 1,40,41
 678 1024 678 1024 720 1024 c 0,42,43
 770 1024 770 1024 770 1074 c 0,35,36
EndSplineSet
Ligature2: "'abvs' Above Base Substitutions lookup 5 subtable" tm_ra tm_iikaar
EndChar

StartChar: tm_rr_iikaar
Encoding: 65576 -1 155
Width: 1128
GlyphClass: 2
Flags: W
LayerCount: 2
Fore
SplineSet
1106 1014 m 0,0,1
 1106 812 1106 812 874 812 c 0,2,3
 806 812 806 812 758 853 c 128,-1,4
 710 894 710 894 690 950 c 1,5,-1
 684 900 l 1,6,7
 684 838 684 838 746 752 c 1,8,9
 888 710 888 710 993 575 c 128,-1,10
 1098 440 1098 440 1098 260 c 0,11,12
 1098 68 1098 68 945 -87 c 128,-1,13
 792 -242 792 -242 580 -242 c 2,14,-1
 46 -242 l 1,15,-1
 46 -60 l 1,16,-1
 552 -60 l 2,17,18
 646 -60 646 -60 754 30 c 0,19,20
 870 128 870 128 870 250 c 0,21,22
 870 374 870 374 808 468 c 128,-1,23
 746 562 746 562 628 586 c 1,24,-1
 628 0 l 1,25,-1
 412 0 l 1,26,-1
 412 502 l 2,27,28
 412 580 412 580 348 580 c 256,29,30
 284 580 284 580 284 482 c 2,31,-1
 284 0 l 1,32,-1
 70 0 l 1,33,-1
 70 602 l 1,34,35
 100 690 100 690 186 738 c 0,36,37
 252 774 252 774 324 774 c 0,38,39
 436 774 436 774 496 714 c 1,40,-1
 548 736 l 1,41,42
 496 830 496 830 496 950 c 256,43,44
 496 1070 496 1070 589 1163 c 128,-1,45
 682 1256 682 1256 818 1256 c 0,46,47
 944 1256 944 1256 1025 1189 c 128,-1,48
 1106 1122 1106 1122 1106 1014 c 0,0,1
928 1002 m 0,49,50
 928 1040 928 1040 884 1040 c 0,51,52
 872 1040 872 1040 850 1022 c 0,53,54
 838 1010 838 1010 834 990 c 1,55,56
 834 952 834 952 880 952 c 0,57,58
 928 952 928 952 928 1002 c 0,49,50
EndSplineSet
Ligature2: "'abvs' Above Base Substitutions lookup 6 subtable" tm_rra tm_iikaar
EndChar

StartChar: tm_l_iikaar
Encoding: 65577 -1 156
Width: 1298
GlyphClass: 2
Flags: W
LayerCount: 2
Fore
SplineSet
1268 322 m 0,0,1
 1268 178 1268 178 1163 80 c 128,-1,2
 1058 -18 1058 -18 914 -18 c 0,3,4
 822 -18 822 -18 726 48 c 0,5,6
 652 100 652 100 608 168 c 1,7,-1
 608 394 l 1,8,9
 596 452 596 452 536 488 c 0,10,11
 486 516 486 516 432 516 c 0,12,13
 356 516 356 516 295 483 c 128,-1,14
 234 450 234 450 210 392 c 1,15,16
 290 456 290 456 372 456 c 0,17,18
 452 456 452 456 525 393 c 128,-1,19
 598 330 598 330 598 234 c 256,20,21
 598 138 598 138 527 69 c 128,-1,22
 456 0 456 0 362 0 c 0,23,24
 246 0 246 0 144 84 c 0,25,26
 30 178 30 178 30 320 c 0,27,28
 30 470 30 470 140 571 c 128,-1,29
 250 672 250 672 418 672 c 0,30,31
 670 672 670 672 798 442 c 1,32,-1
 798 218 l 1,33,34
 820 152 820 152 914 152 c 0,35,36
 974 152 974 152 1022 192 c 0,37,38
 1082 240 1082 240 1082 328 c 256,39,40
 1082 416 1082 416 990 470 c 1,41,-1
 810 552 l 1,42,43
 750 586 750 586 692 672 c 0,44,45
 622 778 622 778 622 900 c 0,46,47
 622 1002 622 1002 690 1082 c 0,48,49
 768 1176 768 1176 904 1176 c 0,50,51
 1010 1176 1010 1176 1076 1118 c 128,-1,52
 1142 1060 1142 1060 1142 974 c 0,53,54
 1142 898 1142 898 1088 840 c 1,55,56
 1032 788 1032 788 948 788 c 0,57,58
 870 788 870 788 804 854 c 1,59,60
 804 750 804 750 910 682 c 1,61,62
 968 682 968 682 1021 659 c 128,-1,63
 1074 636 1074 636 1132 588 c 0,64,65
 1268 482 1268 482 1268 322 c 0,0,1
984 958 m 0,66,67
 984 994 984 994 940 994 c 0,68,69
 930 994 930 994 914 976 c 1,70,-1
 904 942 l 1,71,72
 904 912 904 912 940 912 c 0,73,74
 984 912 984 912 984 958 c 0,66,67
448 226 m 0,75,76
 448 258 448 258 426 280 c 1,77,78
 408 304 408 304 374 304 c 0,79,80
 344 304 344 304 316 280 c 0,81,82
 298 262 298 262 294 226 c 0,83,84
 294 198 294 198 318 174 c 0,85,86
 340 156 340 156 374 152 c 1,87,88
 448 152 448 152 448 226 c 0,75,76
EndSplineSet
Ligature2: "'abvs' Above Base Substitutions lookup 5 subtable" tm_la tm_iikaar
EndChar

StartChar: tm_ll_iikaar
Encoding: 65578 -1 157
Width: 1558
GlyphClass: 2
Flags: W
LayerCount: 2
Fore
SplineSet
1544 586 m 1,0,-1
 1314 586 l 1,1,-1
 1314 0 l 1,2,-1
 1096 0 l 1,3,-1
 1096 586 l 1,4,-1
 946 586 l 1,5,-1
 946 0 l 1,6,-1
 728 0 l 1,7,-1
 728 372 l 2,8,9
 728 462 728 462 650 532 c 0,10,11
 578 592 578 592 494 592 c 0,12,13
 424 592 424 592 347 538 c 128,-1,14
 270 484 270 484 254 414 c 1,15,16
 330 506 330 506 446 506 c 0,17,18
 542 506 542 506 617 435 c 128,-1,19
 692 364 692 364 692 264 c 0,20,21
 692 152 692 152 614 78 c 128,-1,22
 536 4 536 4 406 4 c 0,23,24
 266 4 266 4 152 106 c 0,25,26
 30 218 30 218 30 386 c 0,27,28
 30 564 30 564 176 678 c 0,29,30
 308 776 308 776 484 776 c 0,31,32
 606 776 606 776 728 700 c 1,33,-1
 728 768 l 1,34,-1
 1038 768 l 1,35,36
 1020 788 1020 788 991 855 c 128,-1,37
 962 922 962 922 962 986 c 0,38,39
 962 1088 962 1088 1040 1182 c 0,40,41
 1128 1286 1128 1286 1268 1286 c 0,42,43
 1386 1286 1386 1286 1457 1225 c 128,-1,44
 1528 1164 1528 1164 1528 1062 c 0,45,46
 1528 970 1528 970 1460 916 c 0,47,48
 1400 868 1400 868 1308 868 c 0,49,50
 1218 868 1218 868 1144 968 c 1,51,52
 1138 918 1138 918 1182 848 c 1,53,-1
 1244 768 l 1,54,-1
 1544 768 l 1,55,-1
 1544 586 l 1,0,-1
1362 1050 m 0,56,57
 1362 1088 1362 1088 1316 1088 c 0,58,59
 1306 1088 1306 1088 1288 1070 c 0,60,61
 1276 1054 1276 1054 1274 1036 c 0,62,63
 1274 1002 1274 1002 1316 1002 c 0,64,65
 1362 1002 1362 1002 1362 1050 c 0,56,57
528 254 m 0,66,67
 528 282 528 282 506 312 c 128,-1,68
 484 342 484 342 450 342 c 0,69,70
 414 342 414 342 388 315 c 128,-1,71
 362 288 362 288 362 252 c 0,72,73
 362 176 362 176 440 176 c 0,74,75
 476 176 476 176 500 198 c 128,-1,76
 524 220 524 220 528 254 c 0,66,67
EndSplineSet
Ligature2: "'abvs' Above Base Substitutions lookup 6 subtable" tm_lla tm_iikaar
EndChar

StartChar: tm_lll_iikaar
Encoding: 65579 -1 158
Width: 1072
GlyphClass: 2
Flags: W
LayerCount: 2
Fore
SplineSet
1042 358 m 0,0,1
 1042 210 1042 210 949 105 c 128,-1,2
 856 0 856 0 690 0 c 2,3,-1
 618 0 l 1,4,5
 642 -36 642 -36 674 -58 c 128,-1,6
 706 -80 706 -80 742 -80 c 1,7,-1
 742 -242 l 1,8,9
 732 -246 732 -246 705 -246 c 128,-1,10
 678 -246 678 -246 666 -246 c 0,11,12
 608 -240 608 -240 576 -218 c 1,13,14
 474 -410 474 -410 282 -410 c 0,15,16
 146 -410 146 -410 44 -326 c 128,-1,17
 -58 -242 -58 -242 -76 -106 c 1,18,-1
 108 -106 l 1,19,20
 154 -224 154 -224 262 -224 c 0,21,22
 328 -224 328 -224 376 -177 c 128,-1,23
 424 -130 424 -130 424 -60 c 0,24,25
 424 -26 424 -26 414 0 c 1,26,-1
 70 0 l 1,27,-1
 70 768 l 1,28,-1
 282 768 l 1,29,-1
 282 176 l 1,30,-1
 390 176 l 1,31,-1
 390 598 l 1,32,33
 424 656 424 656 518 700 c 1,34,-1
 480 774 l 1,35,36
 464 814 464 814 456 848 c 128,-1,37
 448 882 448 882 448 924 c 0,38,39
 448 1044 448 1044 538 1136 c 128,-1,40
 628 1228 628 1228 754 1228 c 0,41,42
 870 1228 870 1228 947 1167 c 128,-1,43
 1024 1106 1024 1106 1024 1004 c 0,44,45
 1024 908 1024 908 954 852 c 0,46,47
 892 806 892 806 804 806 c 0,48,49
 690 806 690 806 630 920 c 1,50,51
 620 822 620 822 706 734 c 1,52,53
 866 716 866 716 962 596 c 0,54,55
 1042 492 1042 492 1042 358 c 0,0,1
854 994 m 0,56,57
 854 1030 854 1030 812 1030 c 256,58,59
 770 1030 770 1030 770 990 c 0,60,61
 770 944 770 944 812 944 c 256,62,63
 854 944 854 944 854 994 c 0,56,57
842 370 m 0,64,65
 842 454 842 454 778 506 c 0,66,67
 730 548 730 548 678 548 c 0,68,69
 644 548 644 548 608 530 c 1,70,-1
 608 178 l 1,71,-1
 648 174 l 1,72,73
 730 174 730 174 786 232 c 128,-1,74
 842 290 842 290 842 370 c 0,64,65
EndSplineSet
Ligature2: "'abvs' Above Base Substitutions lookup 6 subtable" tm_llla tm_iikaar
EndChar

StartChar: tm_v_iikaar
Encoding: 65580 -1 159
Width: 1296
GlyphClass: 2
Flags: W
LayerCount: 2
Fore
SplineSet
1250 1020 m 0,0,1
 1250 922 1250 922 1187 868 c 128,-1,2
 1124 814 1124 814 1026 814 c 0,3,4
 964 814 964 814 910 860 c 0,5,6
 870 894 870 894 856 928 c 1,7,8
 854 916 854 916 854 894 c 0,9,10
 854 744 854 744 1010 662 c 1,11,-1
 1010 768 l 1,12,-1
 1226 768 l 1,13,-1
 1226 0 l 1,14,-1
 650 0 l 1,15,-1
 650 190 l 1,16,17
 690 254 690 254 690 358 c 0,18,19
 690 452 690 452 618 529 c 128,-1,20
 546 606 546 606 444 606 c 0,21,22
 338 606 338 606 261 532 c 128,-1,23
 184 458 184 458 184 356 c 1,24,25
 202 400 202 400 248 444 c 0,26,27
 316 502 316 502 396 502 c 0,28,29
 504 502 504 502 576 429 c 128,-1,30
 648 356 648 356 648 258 c 0,31,32
 648 150 648 150 577 81 c 128,-1,33
 506 12 506 12 388 12 c 0,34,35
 244 12 244 12 140 116 c 0,36,37
 30 226 30 226 30 390 c 0,38,39
 30 560 30 560 151 671 c 128,-1,40
 272 782 272 782 454 782 c 0,41,42
 546 782 546 782 632 748 c 0,43,44
 700 722 700 722 724 692 c 1,45,46
 694 758 694 758 678 819 c 128,-1,47
 662 880 662 880 662 940 c 0,48,49
 662 1048 662 1048 742 1136 c 0,50,51
 832 1238 832 1238 978 1238 c 0,52,53
 1094 1238 1094 1238 1172 1174 c 128,-1,54
 1250 1110 1250 1110 1250 1020 c 0,0,1
1078 1004 m 0,55,56
 1078 1042 1078 1042 1036 1042 c 0,57,58
 1022 1042 1022 1042 1007 1024 c 128,-1,59
 992 1006 992 1006 988 984 c 1,60,61
 988 954 988 954 1032 954 c 0,62,63
 1078 954 1078 954 1078 1004 c 0,55,56
1010 172 m 1,64,-1
 1010 486 l 1,65,66
 958 486 958 486 842 566 c 1,67,68
 896 464 896 464 896 378 c 0,69,70
 896 248 896 248 848 172 c 1,71,-1
 1010 172 l 1,64,-1
480 260 m 0,72,73
 480 298 480 298 458 322 c 128,-1,74
 436 346 436 346 402 346 c 256,75,76
 368 346 368 346 343 322 c 128,-1,77
 318 298 318 298 314 264 c 0,78,79
 314 234 314 234 340 206 c 1,80,81
 366 184 366 184 400 180 c 1,82,83
 480 180 480 180 480 260 c 0,72,73
EndSplineSet
Ligature2: "'abvs' Above Base Substitutions lookup 6 subtable" tm_va tm_iikaar
EndChar

StartChar: tm_ss_iikaar
Encoding: 65581 -1 160
Width: 1532
GlyphClass: 2
Flags: W
LayerCount: 2
Fore
SplineSet
1596 1064 m 0,0,1
 1596 974 1596 974 1541 919 c 128,-1,2
 1486 864 1486 864 1386 864 c 0,3,4
 1312 864 1312 864 1252 916 c 0,5,6
 1208 954 1208 954 1190 1000 c 1,7,8
 1188 992 1188 992 1188 972 c 0,9,10
 1188 886 1188 886 1258 768 c 1,11,12
 1366 756 1366 756 1434 681 c 128,-1,13
 1502 606 1502 606 1502 496 c 0,14,15
 1502 416 1502 416 1398 178 c 1,16,-1
 1518 178 l 1,17,-1
 1518 0 l 1,18,-1
 1340 0 l 1,19,-1
 1280 -158 l 1,20,-1
 1036 -158 l 1,21,-1
 1104 0 l 1,22,-1
 584 0 l 1,23,-1
 584 146 l 1,24,25
 678 206 678 206 678 330 c 0,26,27
 678 428 678 428 620 494 c 0,28,29
 556 568 556 568 450 568 c 0,30,31
 388 568 388 568 333 545 c 128,-1,32
 278 522 278 522 260 490 c 1,33,34
 302 502 302 502 346 502 c 0,35,36
 454 502 454 502 528 428 c 128,-1,37
 602 354 602 354 602 238 c 0,38,39
 602 162 602 162 532 90 c 0,40,41
 454 6 454 6 344 6 c 0,42,43
 244 6 244 6 142 96 c 0,44,45
 30 198 30 198 30 346 c 0,46,47
 30 526 30 526 146 632 c 128,-1,48
 262 738 262 738 444 738 c 0,49,50
 614 738 614 738 737 629 c 128,-1,51
 860 520 860 520 860 366 c 0,52,53
 860 238 860 238 812 178 c 1,54,-1
 1166 178 l 1,55,-1
 1196 242 l 1,56,57
 1090 242 1090 242 1012 332 c 0,58,59
 948 408 948 408 948 508 c 0,60,61
 948 656 948 656 1076 740 c 1,62,63
 1010 866 1010 866 1010 988 c 0,64,65
 1010 1104 1010 1104 1094 1198 c 128,-1,66
 1178 1292 1178 1292 1316 1292 c 0,67,68
 1426 1292 1426 1292 1511 1228 c 128,-1,69
 1596 1164 1596 1164 1596 1064 c 0,0,1
1424 1046 m 0,70,71
 1424 1080 1424 1080 1382 1080 c 0,72,73
 1338 1080 1338 1080 1338 1030 c 0,74,75
 1338 998 1338 998 1386 998 c 0,76,77
 1424 998 1424 998 1424 1046 c 0,70,71
1324 502 m 0,78,79
 1324 540 1324 540 1296 563 c 128,-1,80
 1268 586 1268 586 1232 586 c 0,81,82
 1194 586 1194 586 1170 564 c 128,-1,83
 1146 542 1146 542 1146 508 c 0,84,85
 1146 472 1146 472 1172 446 c 0,86,87
 1198 424 1198 424 1238 424 c 0,88,89
 1272 424 1272 424 1298 445 c 128,-1,90
 1324 466 1324 466 1324 502 c 0,78,79
450 242 m 0,91,92
 450 272 450 272 427 298 c 128,-1,93
 404 324 404 324 370 326 c 0,94,95
 340 326 340 326 317 300 c 128,-1,96
 294 274 294 274 294 242 c 0,97,98
 294 214 294 214 318 190 c 1,99,100
 344 170 344 170 376 170 c 0,101,102
 450 170 450 170 450 242 c 0,91,92
EndSplineSet
Ligature2: "'abvs' Above Base Substitutions lookup 6 subtable" tm_ssa tm_iikaar
EndChar

StartChar: tm_s_iikaar
Encoding: 65582 -1 161
Width: 1664
GlyphClass: 2
Flags: W
LayerCount: 2
Fore
SplineSet
1634 380 m 0,0,1
 1634 220 1634 220 1524 107 c 128,-1,2
 1414 -6 1414 -6 1260 -6 c 0,3,4
 1150 -6 1150 -6 1063 51 c 128,-1,5
 976 108 976 108 934 200 c 1,6,-1
 934 566 l 1,7,8
 926 596 926 596 900 598 c 0,9,10
 874 598 874 598 858 570 c 1,11,-1
 858 0 l 1,12,-1
 654 0 l 1,13,-1
 654 402 l 1,14,15
 624 480 624 480 558 525 c 128,-1,16
 492 570 492 570 432 570 c 0,17,18
 350 570 350 570 286 514 c 0,19,20
 232 466 232 466 208 396 c 1,21,22
 286 490 286 490 416 490 c 0,23,24
 514 490 514 490 578 420 c 1,25,26
 644 354 644 354 644 250 c 0,27,28
 644 152 644 152 574 76 c 128,-1,29
 504 0 504 0 392 0 c 0,30,31
 248 0 248 0 142 100 c 0,32,33
 30 208 30 208 30 380 c 0,34,35
 30 562 30 562 150 670 c 0,36,37
 260 764 260 764 420 764 c 0,38,39
 496 764 496 764 578 726 c 0,40,41
 646 694 646 694 688 646 c 1,42,43
 712 698 712 698 770 733 c 128,-1,44
 828 768 828 768 900 768 c 0,45,46
 996 768 996 768 1056 714 c 128,-1,47
 1116 660 1116 660 1140 566 c 1,48,-1
 1140 248 l 1,49,50
 1188 194 1188 194 1266 194 c 0,51,52
 1330 194 1330 194 1384 236 c 0,53,54
 1450 288 1450 288 1450 390 c 0,55,56
 1450 490 1450 490 1358 546 c 1,57,-1
 1216 610 l 1,58,59
 1150 650 1150 650 1086 738 c 0,60,61
 1010 850 1010 850 1010 970 c 0,62,63
 1010 1076 1010 1076 1088 1170 c 0,64,65
 1180 1274 1180 1274 1326 1274 c 0,66,67
 1446 1274 1446 1274 1522 1213 c 128,-1,68
 1598 1152 1598 1152 1598 1046 c 0,69,70
 1598 956 1598 956 1532 902 c 128,-1,71
 1466 848 1466 848 1380 848 c 0,72,73
 1254 848 1254 848 1200 956 c 1,74,75
 1200 856 1200 856 1290 786 c 0,76,77
 1314 768 1314 768 1440 702 c 1,78,79
 1506 672 1506 672 1560 590 c 0,80,81
 1634 486 1634 486 1634 380 c 0,0,1
1428 1038 m 0,82,83
 1428 1078 1428 1078 1384 1078 c 0,84,85
 1370 1078 1370 1078 1354 1060 c 0,86,87
 1344 1044 1344 1044 1340 1024 c 1,88,89
 1340 990 1340 990 1380 990 c 0,90,91
 1428 990 1428 990 1428 1038 c 0,82,83
502 244 m 0,92,93
 502 272 502 272 480 301 c 128,-1,94
 458 330 458 330 422 330 c 0,95,96
 384 330 384 330 356 305 c 128,-1,97
 328 280 328 280 328 244 c 0,98,99
 328 214 328 214 360 188 c 1,100,101
 394 166 394 166 430 166 c 0,102,103
 502 166 502 166 502 244 c 0,92,93
EndSplineSet
Ligature2: "'abvs' Above Base Substitutions lookup 5 subtable" tm_sa tm_iikaar
EndChar

StartChar: tm_h_iikaar
Encoding: 65583 -1 162
Width: 2042
GlyphClass: 2
Flags: W
LayerCount: 2
Fore
SplineSet
2012 268 m 0,0,1
 2012 60 2012 60 1871 -74 c 128,-1,2
 1730 -208 1730 -208 1520 -208 c 2,3,-1
 158 -208 l 1,4,-1
 158 -38 l 1,5,-1
 1562 -38 l 2,6,7
 1646 -38 1646 -38 1726 42 c 0,8,9
 1814 130 1814 130 1814 250 c 256,10,11
 1814 370 1814 370 1735 465 c 128,-1,12
 1656 560 1656 560 1554 560 c 0,13,14
 1522 560 1522 560 1488 548 c 1,15,-1
 1488 0 l 1,16,-1
 1278 0 l 1,17,-1
 1278 540 l 1,18,19
 1272 572 1272 572 1238 572 c 0,20,21
 1196 572 1196 572 1190 538 c 1,22,-1
 1190 0 l 1,23,-1
 644 0 l 1,24,-1
 644 186 l 1,25,26
 614 116 614 116 549 66 c 128,-1,27
 484 16 484 16 394 16 c 0,28,29
 278 16 278 16 170 98 c 0,30,31
 30 204 30 204 30 384 c 0,32,33
 30 548 30 548 155 670 c 128,-1,34
 280 792 280 792 458 792 c 0,35,36
 642 792 642 792 772 676 c 0,37,38
 912 548 912 548 912 346 c 0,39,40
 912 276 912 276 878 188 c 1,41,-1
 996 188 l 1,42,-1
 996 630 l 1,43,44
 1014 678 1014 678 1080 723 c 128,-1,45
 1146 768 1146 768 1214 768 c 0,46,47
 1322 768 1322 768 1398 704 c 1,48,-1
 1442 722 l 1,49,50
 1424 740 1424 740 1396 806 c 1,51,52
 1368 884 1368 884 1368 950 c 0,53,54
 1368 1048 1368 1048 1446 1138 c 0,55,56
 1536 1240 1536 1240 1678 1240 c 0,57,58
 1786 1240 1786 1240 1859 1175 c 128,-1,59
 1932 1110 1932 1110 1932 1022 c 256,60,61
 1932 934 1932 934 1866 876 c 0,62,63
 1802 824 1802 824 1716 824 c 0,64,65
 1656 824 1656 824 1606 862 c 0,66,67
 1568 890 1568 890 1552 920 c 1,68,-1
 1548 894 l 1,69,70
 1548 856 1548 856 1586 800 c 1,71,-1
 1644 726 l 1,72,73
 1794 712 1794 712 1903 586 c 128,-1,74
 2012 460 2012 460 2012 268 c 0,0,1
1764 1010 m 0,75,76
 1764 1046 1764 1046 1722 1046 c 0,77,78
 1708 1046 1708 1046 1690 1028 c 0,79,80
 1678 1012 1678 1012 1674 994 c 1,81,82
 1674 960 1674 960 1718 960 c 0,83,84
 1764 960 1764 960 1764 1010 c 0,75,76
714 358 m 0,85,86
 714 460 714 460 636 534 c 128,-1,87
 558 608 558 608 454 608 c 0,88,89
 346 608 346 608 270 530 c 0,90,91
 206 462 206 462 206 386 c 1,92,93
 298 502 298 502 398 502 c 0,94,95
 500 502 500 502 577 435 c 128,-1,96
 654 368 654 368 654 250 c 1,97,-1
 646 202 l 1,98,-1
 690 250 l 1,99,100
 714 290 714 290 714 358 c 0,85,86
490 242 m 0,101,102
 490 272 490 272 466 298 c 128,-1,103
 442 324 442 324 408 326 c 0,104,105
 378 326 378 326 354 301 c 128,-1,106
 330 276 330 276 330 242 c 0,107,108
 330 214 330 214 354 184 c 0,109,110
 378 160 378 160 410 160 c 0,111,112
 438 160 438 160 464 184 c 128,-1,113
 490 208 490 208 490 242 c 0,101,102
EndSplineSet
Ligature2: "'abvs' Above Base Substitutions lookup 6 subtable" tm_ha tm_iikaar
EndChar

StartChar: tm_k_ukaar
Encoding: 65584 -1 163
Width: 1332
GlyphClass: 2
Flags: W
LayerCount: 2
Fore
SplineSet
1302 180 m 0,0,1
 1302 -22 1302 -22 1120 -156 c 0,2,3
 946 -282 946 -282 706 -282 c 0,4,5
 438 -282 438 -282 234 -118 c 128,-1,6
 30 46 30 46 30 288 c 0,7,8
 30 452 30 452 111 573 c 128,-1,9
 192 694 192 694 334 736 c 1,10,-1
 382 586 l 1,11,12
 208 484 208 484 208 290 c 0,13,14
 208 136 208 136 357 21 c 128,-1,15
 506 -94 506 -94 692 -94 c 0,16,17
 876 -94 876 -94 994 -8 c 0,18,19
 1100 70 1100 70 1100 168 c 0,20,21
 1100 234 1100 234 1068 281 c 128,-1,22
 1036 328 1036 328 1008 328 c 2,23,-1
 920 328 l 1,24,-1
 922 284 l 1,25,26
 922 158 922 158 831 79 c 128,-1,27
 740 0 740 0 604 0 c 256,28,29
 468 0 468 0 375 79 c 128,-1,30
 282 158 282 158 282 278 c 256,31,32
 282 398 282 398 408 476 c 1,33,-1
 408 768 l 1,34,-1
 1114 768 l 1,35,-1
 1114 590 l 1,36,-1
 918 590 l 1,37,-1
 918 522 l 1,38,-1
 970 526 l 1,39,40
 1098 526 1098 526 1200 423 c 128,-1,41
 1302 320 1302 320 1302 180 c 0,0,1
698 522 m 1,42,-1
 698 592 l 1,43,-1
 608 592 l 1,44,-1
 608 522 l 1,45,-1
 698 522 l 1,42,-1
702 248 m 1,46,-1
 702 328 l 1,47,-1
 526 328 l 2,48,49
 492 328 492 328 492 274 c 0,50,51
 492 248 492 248 522 220 c 0,52,53
 552 196 552 196 588 196 c 0,54,55
 658 196 658 196 702 248 c 1,46,-1
EndSplineSet
Ligature2: "'psts' Post Base Substitutions lookup 7 subtable" tm_ka tm_ukaar
EndChar

StartChar: tm_ng_ukaar
Encoding: 65585 -1 164
Width: 1391
GlyphClass: 2
Flags: W
LayerCount: 2
Fore
SplineSet
1331 -166 m 1,0,-1
 1101 -166 l 1,1,-1
 1101 0 l 1,2,-1
 716 0 l 1,3,-1
 716 184 l 1,4,-1
 748 182 l 2,5,6
 808 182 808 182 808 236 c 0,7,8
 808 318 808 318 728 318 c 0,9,10
 638 318 638 318 638 200 c 2,11,-1
 638 0 l 1,12,-1
 394 0 l 1,13,-1
 394 562 l 1,14,-1
 296 562 l 1,15,-1
 296 0 l 1,16,-1
 70 0 l 1,17,-1
 70 768 l 1,18,-1
 836 768 l 1,19,-1
 836 548 l 1,20,-1
 638 548 l 1,21,-1
 638 498 l 1,22,23
 664 504 664 504 676 506 c 128,-1,24
 688 508 688 508 716 508 c 0,25,26
 848 508 848 508 928 416 c 0,27,28
 1000 332 1000 332 1000 180 c 1,29,-1
 1101 180 l 1,30,-1
 1101 768 l 1,31,-1
 1336 768 l 1,32,-1
 1331 -166 l 1,0,-1
EndSplineSet
Ligature2: "'psts' Post Base Substitutions lookup 7 subtable" tm_nga tm_ukaar
EndChar

StartChar: tm_c_ukaar
Encoding: 65586 -1 165
Width: 1160
GlyphClass: 2
Flags: W
LayerCount: 2
Fore
SplineSet
1146 334 m 1,0,-1
 994 334 l 1,1,-1
 994 22 l 1,2,-1
 760 22 l 1,3,-1
 760 334 l 1,4,-1
 672 334 l 1,5,-1
 674 286 l 1,6,7
 674 140 674 140 562 64 c 0,8,9
 470 0 470 0 342 0 c 0,10,11
 236 0 236 0 136 78 c 0,12,13
 30 162 30 162 30 282 c 0,14,15
 30 382 30 382 138 470 c 1,16,-1
 138 768 l 1,17,-1
 894 768 l 1,18,-1
 894 590 l 1,19,-1
 678 590 l 1,20,-1
 678 530 l 1,21,-1
 1146 530 l 1,22,-1
 1146 334 l 1,0,-1
454 530 m 1,23,-1
 454 596 l 1,24,-1
 356 596 l 1,25,-1
 356 530 l 1,26,-1
 454 530 l 1,23,-1
454 312 m 2,27,-1
 454 354 l 1,28,-1
 290 354 l 2,29,30
 242 354 242 354 242 286 c 0,31,32
 242 192 242 192 344 192 c 0,33,34
 392 192 392 192 423 230 c 128,-1,35
 454 268 454 268 454 312 c 2,27,-1
EndSplineSet
Ligature2: "'psts' Post Base Substitutions lookup 7 subtable" tm_ca tm_ukaar
EndChar

StartChar: glyph167
Encoding: 65587 -1 166
Width: 1012
GlyphClass: 2
Flags: W
LayerCount: 2
Fore
SplineSet
68 876 m 1,0,-1
 943 876 l 1,1,-1
 943 0 l 1,2,-1
 68 0 l 1,3,-1
 68 876 l 1,0,-1
873 70 m 1,4,-1
 873 804 l 1,5,-1
 138 804 l 1,6,-1
 138 70 l 1,7,-1
 873 70 l 1,4,-1
EndSplineSet
EndChar

StartChar: tm_ny_ukaar
Encoding: 65588 -1 167
Width: 1708
GlyphClass: 2
Flags: W
LayerCount: 2
Fore
SplineSet
1162 59 m 1,0,1
 1164 65 1164 65 1165 70 c 0,2,3
 1163 78 1163 78 1161 86 c 1,4,-1
 1169 88 l 1,5,6
 1172 103 1172 103 1172 120 c 0,7,8
 1172 184 1172 184 1123 240 c 128,-1,9
 1074 296 1074 296 1020 296 c 0,10,11
 1008 294 1008 294 1002 294 c 1,12,-1
 1002 0 l 1,13,-1
 762 0 l 1,14,-1
 762 572 l 1,15,-1
 462 572 l 2,16,17
 402 572 402 572 353 523 c 128,-1,18
 304 474 304 474 292 404 c 1,19,20
 360 490 360 490 470 490 c 0,21,22
 568 490 568 490 646 418 c 128,-1,23
 724 346 724 346 724 244 c 0,24,25
 724 136 724 136 651 65 c 128,-1,26
 578 -6 578 -6 454 -6 c 0,27,28
 300 -6 300 -6 190 102 c 128,-1,29
 80 210 80 210 80 386 c 0,30,31
 80 548 80 548 196 658 c 128,-1,32
 312 768 312 768 486 768 c 2,33,-1
 1232 768 l 1,34,-1
 1232 572 l 1,35,-1
 1002 572 l 1,36,-1
 1002 480 l 1,37,-1
 1068 480 l 2,38,39
 1194 480 1194 480 1286 356 c 0,40,41
 1364 248 1364 248 1364 124 c 2,42,-1
 1364 120 l 1,43,44
 1376 72 1376 72 1376 23 c 1,45,-1
 1370 -37 l 1,46,-1
 1366 -79 l 1,47,-1
 1450 -79 l 1,48,-1
 1450 729 l 1,49,-1
 1664 729 l 1,50,-1
 1664 -259 l 1,51,-1
 1284 -259 l 1,52,53
 1224 -373 1224 -373 1084 -435 c 0,54,55
 1036 -455 1036 -455 989 -467 c 128,-1,56
 942 -479 942 -479 900 -479 c 0,57,58
 772 -479 772 -479 622 -385 c 128,-1,59
 472 -291 472 -291 472 -183 c 0,60,61
 472 -79 472 -79 614 -79 c 2,62,-1
 1160 -79 l 1,63,64
 1172 -39 1172 -39 1172 17 c 0,65,66
 1172 36 1172 36 1168 55 c 1,67,-1
 1162 59 l 1,0,1
568 240 m 0,68,69
 568 320 568 320 486 320 c 0,70,71
 402 320 402 320 402 244 c 0,72,73
 402 156 402 156 484 156 c 0,74,75
 568 156 568 156 568 240 c 0,68,69
1052 -259 m 1,76,-1
 738 -259 l 1,77,78
 808 -307 808 -307 910 -307 c 0,79,80
 998 -307 998 -307 1052 -259 c 1,76,-1
EndSplineSet
Ligature2: "'psts' Post Base Substitutions lookup 7 subtable" tm_nya tm_ukaar
EndChar

StartChar: tm_tt_ukaar
Encoding: 65589 -1 168
Width: 1120
GlyphClass: 2
Flags: W
LayerCount: 2
Fore
SplineSet
1090 204 m 0,0,1
 1090 -6 1090 -6 942 -128 c 0,2,3
 806 -242 806 -242 600 -242 c 0,4,5
 380 -242 380 -242 210 -72 c 0,6,7
 30 108 30 108 30 368 c 0,8,9
 30 622 30 622 210 818 c 128,-1,10
 390 1014 390 1014 658 1014 c 0,11,12
 754 1014 754 1014 860 984 c 1,13,-1
 788 812 l 1,14,15
 718 832 718 832 660 832 c 0,16,17
 486 832 486 832 365 696 c 128,-1,18
 244 560 244 560 244 378 c 0,19,20
 244 198 244 198 370 62 c 0,21,22
 488 -62 488 -62 638 -62 c 0,23,24
 734 -62 734 -62 816 22 c 128,-1,25
 898 106 898 106 898 224 c 0,26,27
 898 314 898 314 853 367 c 128,-1,28
 808 420 808 420 726 430 c 1,29,-1
 726 0 l 1,30,-1
 504 0 l 1,31,-1
 504 768 l 1,32,-1
 726 768 l 1,33,-1
 726 638 l 1,34,35
 866 638 866 638 978 503 c 128,-1,36
 1090 368 1090 368 1090 204 c 0,0,1
EndSplineSet
Ligature2: "'psts' Post Base Substitutions lookup 7 subtable" tm_tta tm_ukaar
EndChar

StartChar: tm_nn_ukaar
Encoding: 65590 -1 169
Width: 2676
GlyphClass: 2
Flags: W
LayerCount: 2
Fore
SplineSet
2606 -286 m 1,0,-1
 2010 -286 l 1,1,2
 1822 -430 1822 -430 1544 -510 c 0,3,4
 1322 -570 1322 -570 1122 -570 c 0,5,6
 756 -570 756 -570 500 -442 c 0,7,8
 286 -336 286 -336 286 -234 c 0,9,10
 286 -176 286 -176 335 -131 c 128,-1,11
 384 -86 384 -86 458 -86 c 2,12,-1
 1904 -86 l 1,13,14
 1972 -18 1972 -18 2031 92 c 128,-1,15
 2090 202 2090 202 2090 296 c 0,16,17
 2090 384 2090 384 2019 475 c 128,-1,18
 1948 566 1948 566 1848 566 c 1,19,20
 1914 494 1914 494 1914 366 c 0,21,22
 1914 210 1914 210 1802 104 c 128,-1,23
 1690 -2 1690 -2 1550 -2 c 0,24,25
 1360 -2 1360 -2 1240 154 c 1,26,27
 1094 8 1094 8 954 8 c 0,28,29
 786 8 786 8 682 124 c 1,30,31
 548 0 548 0 436 0 c 0,32,33
 298 0 298 0 174 96 c 0,34,35
 30 208 30 208 30 392 c 0,36,37
 30 536 30 536 150 652 c 128,-1,38
 270 768 270 768 426 768 c 2,39,-1
 1830 768 l 2,40,41
 2036 768 2036 768 2175 634 c 128,-1,42
 2314 500 2314 500 2314 280 c 0,43,44
 2314 154 2314 154 2278 64 c 0,45,46
 2256 6 2256 6 2192 -86 c 1,47,-1
 2388 -86 l 1,48,-1
 2388 792 l 1,49,-1
 2606 792 l 1,50,-1
 2606 -286 l 1,0,-1
610 568 m 1,51,-1
 402 568 l 2,52,53
 338 568 338 568 289 513 c 128,-1,54
 240 458 240 458 240 408 c 1,55,56
 318 504 318 504 420 504 c 0,57,58
 528 504 528 504 558 466 c 1,59,-1
 610 568 l 1,51,-1
1100 366 m 0,60,61
 1100 432 1100 432 1055 488 c 128,-1,62
 1010 544 1010 544 930 544 c 0,63,64
 848 544 848 544 800 482 c 1,65,66
 762 424 762 424 762 358 c 0,67,68
 762 298 762 298 801 247 c 128,-1,69
 840 196 840 196 916 196 c 0,70,71
 988 196 988 196 1044 246 c 128,-1,72
 1100 296 1100 296 1100 366 c 0,60,61
1702 366 m 0,73,74
 1702 430 1702 430 1655 476 c 128,-1,75
 1608 522 1608 522 1542 522 c 0,76,77
 1474 522 1474 522 1427 476 c 128,-1,78
 1380 430 1380 430 1380 358 c 0,79,80
 1380 294 1380 294 1428 242 c 1,81,82
 1478 196 1478 196 1542 196 c 0,83,84
 1608 196 1608 196 1655 245 c 128,-1,85
 1702 294 1702 294 1702 366 c 0,73,74
520 246 m 0,86,87
 520 330 520 330 440 330 c 0,88,89
 356 330 356 330 356 252 c 0,90,91
 356 156 356 156 436 156 c 0,92,93
 520 156 520 156 520 246 c 0,86,87
1588 -276 m 1,94,-1
 612 -276 l 1,95,96
 888 -384 888 -384 1078 -384 c 0,97,98
 1360 -384 1360 -384 1588 -276 c 1,94,-1
EndSplineSet
Ligature2: "'psts' Post Base Substitutions lookup 7 subtable" tm_nna tm_ukaar
EndChar

StartChar: tm_t_ukaar
Encoding: 65591 -1 170
Width: 1348
GlyphClass: 2
Flags: W
LayerCount: 2
Fore
SplineSet
1278 -184 m 1,0,-1
 944 -184 l 1,1,2
 790 -416 790 -416 532 -416 c 0,3,4
 384 -416 384 -416 243 -316 c 128,-1,5
 102 -216 102 -216 102 -114 c 256,6,7
 102 -12 102 -12 196 0 c 1,8,9
 130 34 130 34 80 101 c 128,-1,10
 30 168 30 168 30 244 c 0,11,12
 30 386 30 386 162 462 c 1,13,-1
 162 768 l 1,14,-1
 872 768 l 1,15,-1
 872 578 l 1,16,-1
 696 578 l 1,17,-1
 696 506 l 1,18,19
 858 506 858 506 956 338 c 0,20,21
 1028 212 1028 212 1028 86 c 0,22,23
 1028 24 1028 24 1012 -6 c 1,24,-1
 1066 -6 l 1,25,-1
 1066 768 l 1,26,-1
 1278 768 l 1,27,-1
 1278 -184 l 1,0,-1
466 506 m 1,28,-1
 466 578 l 1,29,-1
 378 578 l 1,30,-1
 378 506 l 1,31,-1
 466 506 l 1,28,-1
466 262 m 2,32,-1
 466 300 l 1,33,-1
 304 300 l 2,34,35
 258 300 258 300 258 256 c 0,36,37
 258 226 258 226 288 198 c 0,38,39
 318 174 318 174 356 174 c 0,40,41
 398 174 398 174 432 204 c 128,-1,42
 466 234 466 234 466 262 c 2,32,-1
810 -6 m 1,43,44
 816 18 816 18 816 70 c 0,45,46
 816 284 816 284 696 296 c 1,47,-1
 696 200 l 2,48,49
 696 88 696 88 558 -6 c 1,50,-1
 810 -6 l 1,43,44
712 -184 m 1,51,-1
 358 -184 l 1,52,53
 446 -238 446 -238 544 -238 c 0,54,55
 646 -238 646 -238 712 -184 c 1,51,-1
EndSplineSet
Ligature2: "'psts' Post Base Substitutions lookup 7 subtable" tm_ta tm_ukaar
EndChar

StartChar: tm_n_ukaar
Encoding: 65592 -1 171
Width: 1482
GlyphClass: 2
Flags: W
LayerCount: 2
Fore
SplineSet
1412 -216 m 1,0,-1
 1032 -216 l 1,1,2
 972 -330 972 -330 832 -392 c 0,3,4
 784 -412 784 -412 737 -424 c 128,-1,5
 690 -436 690 -436 648 -436 c 0,6,7
 520 -436 520 -436 370 -342 c 128,-1,8
 220 -248 220 -248 220 -140 c 0,9,10
 220 -36 220 -36 362 -36 c 2,11,-1
 908 -36 l 1,12,13
 920 4 920 4 920 60 c 0,14,15
 920 156 920 156 846 233 c 128,-1,16
 772 310 772 310 676 310 c 1,17,-1
 676 0 l 1,18,-1
 458 0 l 1,19,-1
 458 578 l 1,20,-1
 296 578 l 1,21,-1
 296 0 l 1,22,-1
 70 0 l 1,23,-1
 70 768 l 1,24,-1
 880 768 l 1,25,-1
 880 578 l 1,26,-1
 686 578 l 1,27,-1
 686 530 l 1,28,29
 884 506 884 506 1012 354 c 0,30,31
 1124 220 1124 220 1124 66 c 1,32,-1
 1118 6 l 1,33,-1
 1114 -36 l 1,34,-1
 1198 -36 l 1,35,-1
 1198 772 l 1,36,-1
 1412 772 l 1,37,-1
 1412 -216 l 1,0,-1
800 -216 m 1,38,-1
 486 -216 l 1,39,40
 556 -264 556 -264 658 -264 c 0,41,42
 746 -264 746 -264 800 -216 c 1,38,-1
EndSplineSet
Ligature2: "'psts' Post Base Substitutions lookup 7 subtable" tm_na tm_ukaar
EndChar

StartChar: tm_nnn_ukaar
Encoding: 65593 -1 172
Width: 2060
GlyphClass: 2
Flags: W
LayerCount: 2
Fore
SplineSet
1990 -216 m 1,0,-1
 1532 -216 l 1,1,2
 1446 -290 1446 -290 1397 -328 c 128,-1,3
 1348 -366 1348 -366 1310 -388 c 0,4,5
 1174 -460 1174 -460 958 -460 c 0,6,7
 748 -460 748 -460 606 -386 c 0,8,9
 448 -300 448 -300 448 -156 c 0,10,11
 448 -116 448 -116 472 -82 c 0,12,13
 496 -54 496 -54 532 -54 c 2,14,-1
 1350 -54 l 1,15,16
 1420 -12 1420 -12 1456 46 c 0,17,18
 1504 124 1504 124 1504 264 c 0,19,20
 1504 360 1504 360 1446 464 c 0,21,22
 1374 594 1374 594 1270 594 c 1,23,-1
 1240 592 l 1,24,25
 1318 496 1318 496 1318 354 c 0,26,27
 1318 198 1318 198 1212 98 c 128,-1,28
 1106 -2 1106 -2 946 -2 c 0,29,30
 846 -2 846 -2 762 46 c 0,31,32
 690 86 690 86 666 142 c 1,33,34
 652 86 652 86 583 43 c 128,-1,35
 514 0 514 0 432 0 c 0,36,37
 292 0 292 0 172 100 c 0,38,39
 30 214 30 214 30 396 c 0,40,41
 30 546 30 546 138 657 c 128,-1,42
 246 768 246 768 384 768 c 2,43,-1
 1374 768 l 1,44,45
 1540 706 1540 706 1624 578 c 128,-1,46
 1708 450 1708 450 1708 228 c 0,47,48
 1708 170 1708 170 1704 143 c 128,-1,49
 1700 116 1700 116 1686 60 c 2,50,-1
 1656 -54 l 1,51,-1
 1776 -54 l 1,52,-1
 1776 790 l 1,53,-1
 1990 790 l 1,54,-1
 1990 -216 l 1,0,-1
660 580 m 1,55,-1
 438 580 l 2,56,57
 346 580 346 580 286 531 c 128,-1,58
 226 482 226 482 226 372 c 1,59,60
 262 436 262 436 328 476 c 0,61,62
 386 508 386 508 434 508 c 0,63,64
 548 508 548 508 598 456 c 1,65,66
 598 478 598 478 620 520 c 1,67,68
 638 564 638 564 660 580 c 1,55,-1
1098 382 m 0,69,70
 1098 444 1098 444 1051 492 c 128,-1,71
 1004 540 1004 540 942 540 c 256,72,73
 880 540 880 540 833 491 c 128,-1,74
 786 442 786 442 786 372 c 0,75,76
 786 308 786 308 828 260 c 1,77,78
 872 216 872 216 946 216 c 0,79,80
 1098 216 1098 216 1098 382 c 0,69,70
512 254 m 0,81,82
 512 280 512 280 494 300 c 128,-1,83
 476 320 476 320 448 324 c 0,84,85
 420 324 420 324 401 305 c 128,-1,86
 382 286 382 286 378 254 c 0,87,88
 378 230 378 230 398 208 c 0,89,90
 418 190 418 190 450 188 c 0,91,92
 512 188 512 188 512 254 c 0,81,82
1196 -216 m 1,93,-1
 704 -216 l 1,94,95
 788 -272 788 -272 960 -272 c 0,96,97
 1104 -272 1104 -272 1196 -216 c 1,93,-1
EndSplineSet
Ligature2: "'psts' Post Base Substitutions lookup 7 subtable" tm_nnna tm_ukaar
EndChar

StartChar: tm_p_ukaar
Encoding: 65594 -1 173
Width: 942
GlyphClass: 2
Flags: W
LayerCount: 2
Fore
SplineSet
872 -166 m 1,0,-1
 642 -166 l 1,1,-1
 642 0 l 1,2,-1
 70 0 l 1,3,-1
 70 768 l 1,4,-1
 288 768 l 1,5,-1
 288 190 l 1,6,-1
 642 190 l 1,7,-1
 642 768 l 1,8,-1
 872 768 l 1,9,-1
 872 -166 l 1,0,-1
EndSplineSet
Ligature2: "'psts' Post Base Substitutions lookup 7 subtable" tm_pa tm_ukaar
EndChar

StartChar: tm_m_ukaar
Encoding: 65595 -1 174
Width: 1450
GlyphClass: 2
Flags: W
LayerCount: 2
Fore
SplineSet
1420 360 m 0,0,1
 1420 230 1420 230 1338 130 c 128,-1,2
 1256 30 1256 30 1132 0 c 1,3,-1
 908 0 l 1,4,5
 890 -150 890 -150 785 -240 c 128,-1,6
 680 -330 680 -330 542 -330 c 0,7,8
 370 -330 370 -330 214 -186 c 0,9,10
 30 -12 30 -12 30 278 c 256,11,12
 30 568 30 568 230 768 c 1,13,-1
 344 624 l 1,14,15
 222 486 222 486 222 296 c 0,16,17
 222 154 222 154 288 18 c 0,18,19
 374 -152 374 -152 526 -152 c 0,20,21
 598 -152 598 -152 655 -108 c 128,-1,22
 712 -64 712 -64 706 0 c 1,23,-1
 358 0 l 1,24,-1
 358 768 l 1,25,-1
 596 768 l 1,26,-1
 596 196 l 1,27,-1
 722 196 l 1,28,-1
 722 614 l 1,29,30
 752 666 752 666 836 712 c 0,31,32
 876 732 876 732 920 744 c 128,-1,33
 964 756 964 756 1008 756 c 0,34,35
 1188 756 1188 756 1308 634 c 0,36,37
 1420 518 1420 518 1420 360 c 0,0,1
1212 364 m 0,38,39
 1212 432 1212 432 1166 484 c 0,40,41
 1114 542 1114 542 1042 542 c 0,42,43
 976 542 976 542 932 504 c 1,44,-1
 932 196 l 1,45,-1
 1094 196 l 1,46,47
 1212 238 1212 238 1212 364 c 0,38,39
EndSplineSet
Ligature2: "'psts' Post Base Substitutions lookup 7 subtable" tm_ma tm_ukaar
EndChar

StartChar: tm_y_ukaar
Encoding: 65596 -1 175
Width: 1202
GlyphClass: 2
Flags: W
LayerCount: 2
Fore
SplineSet
1132 -164 m 1,0,-1
 910 -164 l 1,1,-1
 910 0 l 1,2,-1
 398 0 l 1,3,-1
 398 88 l 1,4,-1
 274 0 l 1,5,-1
 70 0 l 1,6,-1
 70 768 l 1,7,-1
 268 768 l 1,8,-1
 268 228 l 1,9,-1
 404 310 l 1,10,-1
 404 768 l 1,11,-1
 644 768 l 1,12,-1
 644 198 l 1,13,-1
 910 198 l 1,14,-1
 910 768 l 1,15,-1
 1132 768 l 1,16,-1
 1132 -164 l 1,0,-1
EndSplineSet
Ligature2: "'psts' Post Base Substitutions lookup 7 subtable" tm_ya tm_ukaar
EndChar

StartChar: tm_r_ukaar
Encoding: 65597 -1 176
Width: 1304
GlyphClass: 2
Flags: W
LayerCount: 2
Fore
SplineSet
1274 160 m 0,0,1
 1274 -42 1274 -42 1100 -188 c 128,-1,2
 926 -334 926 -334 684 -334 c 0,3,4
 418 -334 418 -334 232 -186 c 0,5,6
 30 -26 30 -26 30 244 c 0,7,8
 30 364 30 364 100 472 c 0,9,10
 158 566 158 566 246 620 c 1,11,-1
 332 478 l 1,12,13
 276 422 276 422 244 362 c 1,14,15
 216 296 216 296 216 206 c 0,16,17
 216 48 216 48 364 -52 c 0,18,19
 502 -144 502 -144 682 -144 c 256,20,21
 862 -144 862 -144 980 -57 c 128,-1,22
 1098 30 1098 30 1098 142 c 0,23,24
 1098 202 1098 202 1067 253 c 128,-1,25
 1036 304 1036 304 982 324 c 1,26,-1
 982 0 l 1,27,-1
 754 0 l 1,28,-1
 754 580 l 1,29,-1
 620 580 l 1,30,-1
 620 0 l 1,31,-1
 392 0 l 1,32,-1
 392 768 l 1,33,-1
 1186 768 l 1,34,-1
 1186 580 l 1,35,-1
 982 580 l 1,36,-1
 982 520 l 1,37,38
 1104 490 1104 490 1189 390 c 128,-1,39
 1274 290 1274 290 1274 160 c 0,0,1
EndSplineSet
Ligature2: "'psts' Post Base Substitutions lookup 7 subtable" tm_ra tm_ukaar
EndChar

StartChar: tm_rr_ukaar
Encoding: 65598 -1 177
Width: 1396
GlyphClass: 2
Flags: W
LayerCount: 2
Fore
SplineSet
1326 -238 m 1,0,-1
 926 -238 l 1,1,2
 738 -474 738 -474 452 -474 c 0,3,4
 296 -474 296 -474 146 -390 c 0,5,6
 -16 -300 -16 -300 -16 -180 c 0,7,8
 -16 -44 -16 -44 180 -44 c 2,9,-1
 798 -44 l 1,10,11
 866 24 866 24 866 228 c 0,12,13
 866 354 866 354 791 456 c 128,-1,14
 716 558 716 558 600 558 c 1,15,-1
 600 0 l 1,16,-1
 374 0 l 1,17,-1
 374 498 l 2,18,19
 374 590 374 590 308 590 c 256,20,21
 242 590 242 590 242 498 c 2,22,-1
 242 0 l 1,23,-1
 30 0 l 1,24,-1
 30 590 l 1,25,26
 56 666 56 666 138 724 c 0,27,28
 214 774 214 774 282 774 c 0,29,30
 408 774 408 774 454 722 c 1,31,32
 504 750 504 750 616 750 c 0,33,34
 784 750 784 750 926 590 c 0,35,36
 1080 418 1080 418 1080 178 c 0,37,38
 1080 56 1080 56 1042 -44 c 1,39,-1
 1122 -44 l 1,40,-1
 1122 768 l 1,41,-1
 1326 768 l 1,42,-1
 1326 -238 l 1,0,-1
590 -238 m 1,43,-1
 276 -238 l 1,44,45
 354 -316 354 -316 436 -316 c 0,46,47
 494 -316 494 -316 538 -288 c 0,48,49
 572 -268 572 -268 590 -238 c 1,43,-1
EndSplineSet
Ligature2: "'psts' Post Base Substitutions lookup 7 subtable" tm_rra tm_ukaar
EndChar

StartChar: tm_l_ukaar
Encoding: 65599 -1 178
Width: 1588
GlyphClass: 2
Flags: W
LayerCount: 2
Fore
SplineSet
1518 -210 m 1,0,-1
 956 -210 l 1,1,2
 830 -448 830 -448 554 -448 c 0,3,4
 394 -448 394 -448 264 -334 c 0,5,6
 146 -232 146 -232 146 -130 c 0,7,8
 146 -50 146 -50 204 -50 c 2,9,-1
 792 -50 l 1,10,-1
 792 26 l 1,11,12
 660 84 660 84 606 184 c 1,13,-1
 606 392 l 1,14,15
 594 446 594 446 539 483 c 128,-1,16
 484 520 484 520 426 520 c 0,17,18
 366 520 366 520 302 490 c 1,19,20
 236 454 236 454 206 392 c 1,21,22
 276 452 276 452 364 452 c 0,23,24
 462 452 462 452 526 388 c 1,25,26
 592 328 592 328 592 234 c 0,27,28
 592 138 592 138 521 69 c 128,-1,29
 450 0 450 0 356 0 c 0,30,31
 246 0 246 0 148 74 c 0,32,33
 30 164 30 164 30 316 c 0,34,35
 30 480 30 480 137 576 c 128,-1,36
 244 672 244 672 414 672 c 0,37,38
 556 672 556 672 674 590 c 0,39,40
 776 518 776 518 794 436 c 1,41,-1
 794 242 l 1,42,43
 816 170 816 170 900 170 c 0,44,45
 962 170 962 170 1018 216 c 128,-1,46
 1074 262 1074 262 1074 332 c 0,47,48
 1074 416 1074 416 1020 464 c 0,49,50
 972 502 972 502 916 502 c 0,51,52
 888 502 888 502 820 482 c 1,53,-1
 820 678 l 1,54,55
 856 686 856 686 864 688 c 0,56,57
 886 688 886 688 896 688 c 0,58,59
 1032 688 1032 688 1142 590 c 128,-1,60
 1252 492 1252 492 1252 342 c 0,61,62
 1252 214 1252 214 1177 127 c 128,-1,63
 1102 40 1102 40 980 16 c 1,64,-1
 980 -50 l 1,65,-1
 1336 -50 l 1,66,-1
 1336 712 l 1,67,-1
 1518 712 l 1,68,-1
 1518 -210 l 1,0,-1
446 226 m 0,69,70
 446 260 446 260 424 282 c 0,71,72
 406 304 406 304 372 304 c 0,73,74
 344 304 344 304 318 281 c 128,-1,75
 292 258 292 258 292 226 c 0,76,77
 292 198 292 198 316 174 c 0,78,79
 338 156 338 156 372 152 c 1,80,81
 446 152 446 152 446 226 c 0,69,70
732 -210 m 1,82,-1
 392 -210 l 1,83,84
 500 -276 500 -276 554 -276 c 0,85,86
 648 -276 648 -276 732 -210 c 1,82,-1
EndSplineSet
Ligature2: "'psts' Post Base Substitutions lookup 7 subtable" tm_la tm_ukaar
EndChar

StartChar: tm_ll_ukaar
Encoding: 65600 -1 179
Width: 1858
GlyphClass: 2
Flags: W
LayerCount: 2
Fore
SplineSet
1828 136 m 0,0,1
 1828 -50 1828 -50 1688 -190 c 0,2,3
 1570 -310 1570 -310 1398 -354 c 0,4,5
 1356 -364 1356 -364 1241 -370 c 128,-1,6
 1126 -376 1126 -376 940 -376 c 0,7,8
 762 -376 762 -376 633 -358 c 128,-1,9
 504 -340 504 -340 410 -300 c 0,10,11
 256 -236 256 -236 148 -90 c 0,12,13
 30 74 30 74 30 276 c 0,14,15
 30 382 30 382 58 472 c 1,16,-1
 232 392 l 1,17,18
 214 350 214 350 214 250 c 0,19,20
 214 4 214 4 464 -92 c 0,21,22
 550 -124 550 -124 702 -142 c 128,-1,23
 854 -160 854 -160 1064 -160 c 2,24,-1
 1248 -162 l 2,25,26
 1348 -162 1348 -162 1462 -122 c 0,27,28
 1654 -56 1654 -56 1654 120 c 0,29,30
 1654 238 1654 238 1534 298 c 1,31,-1
 1534 0 l 1,32,-1
 1314 0 l 1,33,-1
 1314 586 l 1,34,-1
 1168 586 l 1,35,-1
 1168 0 l 1,36,-1
 946 0 l 1,37,-1
 946 390 l 2,38,39
 946 470 946 470 877 532 c 128,-1,40
 808 594 808 594 712 594 c 0,41,42
 624 594 624 594 552 530 c 0,43,44
 494 478 494 478 470 404 c 1,45,46
 494 446 494 446 552 479 c 128,-1,47
 610 512 610 512 668 512 c 0,48,49
 766 512 766 512 839 442 c 128,-1,50
 912 372 912 372 912 272 c 0,51,52
 912 158 912 158 838 84 c 128,-1,53
 764 10 764 10 634 10 c 0,54,55
 476 10 476 10 364 119 c 128,-1,56
 252 228 252 228 252 382 c 0,57,58
 252 562 252 562 390 680 c 1,59,60
 518 784 518 784 688 784 c 0,61,62
 834 784 834 784 950 698 c 1,63,-1
 950 768 l 1,64,-1
 1766 768 l 1,65,-1
 1766 586 l 1,66,-1
 1534 586 l 1,67,-1
 1534 488 l 1,68,69
 1650 464 1650 464 1732 376 c 0,70,71
 1828 276 1828 276 1828 136 c 0,0,1
750 256 m 0,72,73
 750 284 750 284 728 314 c 128,-1,74
 706 344 706 344 672 344 c 0,75,76
 636 344 636 344 611 319 c 128,-1,77
 586 294 586 294 586 254 c 0,78,79
 586 224 586 224 610 200 c 0,80,81
 632 182 632 182 666 178 c 0,82,83
 700 178 700 178 724 201 c 128,-1,84
 748 224 748 224 750 256 c 0,72,73
EndSplineSet
Ligature2: "'psts' Post Base Substitutions lookup 7 subtable" tm_lla tm_ukaar
EndChar

StartChar: tm_lll_ukaar
Encoding: 65601 -1 180
Width: 1482
GlyphClass: 2
Flags: W
LayerCount: 2
Fore
SplineSet
1452 356 m 0,0,1
 1452 198 1452 198 1364 104 c 0,2,3
 1262 -4 1262 -4 1070 -4 c 1,4,5
 1118 -68 1118 -68 1212 -68 c 0,6,7
 1242 -68 1242 -68 1260 -64 c 1,8,-1
 1260 -260 l 1,9,10
 1244 -264 1244 -264 1225 -264 c 128,-1,11
 1206 -264 1206 -264 1196 -264 c 2,12,-1
 1168 -264 l 2,13,14
 1156 -264 1156 -264 1144 -264 c 0,15,16
 1126 -260 1126 -260 1118 -260 c 0,17,18
 1068 -254 1068 -254 1038 -244 c 128,-1,19
 1008 -234 1008 -234 984 -214 c 1,20,21
 966 -288 966 -288 858 -356 c 128,-1,22
 750 -424 750 -424 626 -424 c 0,23,24
 376 -424 376 -424 196 -226 c 0,25,26
 30 -38 30 -38 30 210 c 0,27,28
 30 358 30 358 100 486 c 0,29,30
 184 640 184 640 340 714 c 1,31,-1
 410 560 l 1,32,33
 334 524 334 524 272 428 c 128,-1,34
 210 332 210 332 210 246 c 0,35,36
 210 46 210 46 337 -89 c 128,-1,37
 464 -224 464 -224 638 -224 c 0,38,39
 710 -224 710 -224 768 -184 c 0,40,41
 834 -138 834 -138 834 -60 c 0,42,43
 834 -28 834 -28 824 0 c 1,44,-1
 478 0 l 1,45,-1
 478 768 l 1,46,-1
 688 768 l 1,47,-1
 688 176 l 1,48,-1
 798 176 l 1,49,-1
 798 576 l 1,50,51
 812 632 812 632 901 686 c 128,-1,52
 990 740 990 740 1074 740 c 0,53,54
 1266 740 1266 740 1368 608 c 0,55,56
 1452 502 1452 502 1452 356 c 0,0,1
1254 368 m 0,57,58
 1254 448 1254 448 1194 502 c 0,59,60
 1146 544 1146 544 1096 544 c 0,61,62
 1034 544 1034 544 1012 528 c 1,63,-1
 1012 182 l 1,64,-1
 1060 176 l 1,65,66
 1136 176 1136 176 1195 228 c 128,-1,67
 1254 280 1254 280 1254 368 c 0,57,58
EndSplineSet
Ligature2: "'psts' Post Base Substitutions lookup 7 subtable" tm_llla tm_ukaar
EndChar

StartChar: tm_v_ukaar
Encoding: 65602 -1 181
Width: 1296
GlyphClass: 2
Flags: W
LayerCount: 2
Fore
SplineSet
1226 -178 m 1,0,-1
 1004 -178 l 1,1,-1
 1004 0 l 1,2,-1
 648 0 l 1,3,-1
 648 192 l 1,4,5
 692 246 692 246 692 352 c 0,6,7
 692 446 692 446 621 524 c 128,-1,8
 550 602 550 602 450 602 c 0,9,10
 340 602 340 602 262 532 c 128,-1,11
 184 462 184 462 184 356 c 1,12,13
 250 504 250 504 396 504 c 0,14,15
 498 504 498 504 570 432 c 128,-1,16
 642 360 642 360 642 254 c 0,17,18
 642 12 642 12 394 12 c 0,19,20
 254 12 254 12 142 121 c 128,-1,21
 30 230 30 230 30 384 c 0,22,23
 30 552 30 552 153 667 c 128,-1,24
 276 782 276 782 458 782 c 0,25,26
 642 782 642 782 766 662 c 128,-1,27
 890 542 890 542 890 372 c 0,28,29
 890 252 890 252 846 170 c 1,30,-1
 1004 170 l 1,31,-1
 1004 768 l 1,32,-1
 1226 768 l 1,33,-1
 1226 -178 l 1,0,-1
480 262 m 0,34,35
 480 292 480 292 456 318 c 128,-1,36
 432 344 432 344 398 344 c 0,37,38
 370 344 370 344 340 320 c 0,39,40
 316 296 316 296 316 262 c 0,41,42
 316 232 316 232 340 204 c 1,43,44
 366 182 366 182 398 182 c 0,45,46
 432 182 432 182 456 205 c 128,-1,47
 480 228 480 228 480 262 c 0,34,35
EndSplineSet
Ligature2: "'psts' Post Base Substitutions lookup 7 subtable" tm_va tm_ukaar
EndChar

